<svg width="1395" height="718" viewBox="0 0 1395 718" fill="none" xmlns="http://www.w3.org/2000/svg">
<g id="mountainSvg" clip-path="url(#clip0_22_383)">
<g id="Mountains">
<g id="mountainLandscapeLeft" clip-path="url(#clip1_22_383)">
<g id="mountains">
<path id="path10761" d="M493.702 176.872C496.054 177.315 520.249 197.769 520.249 197.769C520.249 197.769 570.969 219.527 586.634 233.485C602.299 247.444 609.671 248.4 602.397 248.261C595.123 248.121 557.231 227.765 552.089 229.248C546.948 230.733 508.214 210.205 508.214 210.205C508.214 210.205 497.551 202.083 496.076 196.908C494.601 191.733 475.762 168.444 475.762 168.444L493.702 176.872Z" fill="url(#paint0_linear_22_383)"/>
<path id="path10802" d="M511.813 208.636C508.524 220.072 515.999 241.741 516.896 249.565C517.793 257.39 535.434 263.409 539.022 263.108C542.61 262.805 581.482 242.041 579.688 240.838C577.893 239.634 558.159 226.994 554.87 226.994C551.581 226.994 515.401 212.247 511.813 208.636Z" fill="url(#paint1_linear_22_383)"/>
<path id="path10763" d="M477.426 168.91C468.456 172.522 451.712 185.162 451.712 185.162C451.712 185.162 425.399 183.958 423.605 186.967C421.811 189.977 401.478 206.83 397.89 207.432C394.302 208.034 461.878 249.565 473.24 247.76C484.602 245.954 519.287 271.234 524.072 270.632C528.856 270.03 509.121 215.257 512.111 211.044C515.101 206.83 501.945 199.006 499.553 196.598C497.161 194.19 477.426 168.91 477.426 168.91Z" fill="#352F9A"/>
<path id="path9917" d="M114.135 18.4638C114.135 18.4638 99.4805 8.20291 132.969 3.38794C150.137 6.93865 156.382 9.48477 170.949 12.7252C183.825 21.9237 198.358 56.6474 222.279 59.0549C214.916 67.7525 214.28 70.9464 204.44 74.6308C190.977 76.0821 158.693 85.7969 163.477 95.4273C168.261 105.058 114.135 18.4638 114.135 18.4638Z" fill="url(#paint2_linear_22_383)"/>
<path id="path10714" d="M200.305 56.6266C190.697 56.3827 199.128 58.044 182.996 66.9481C207.562 150.21 229.806 168.29 251.19 177.663C281.079 179.3 315.05 167.647 322.671 163.934C308.39 148.517 259.461 94.9895 245.922 68.0596C234.8 64.5848 234.418 60.582 222.458 59.3782C219.316 59.0621 203.331 58.2247 200.305 56.6266Z" fill="url(#paint3_linear_22_383)"/>
<path id="path10751" d="M251.974 162.29C280.679 160.484 308.786 159.882 321.942 162.891C335.099 165.901 379.352 186.967 383.538 194.19C387.724 201.413 490.583 232.712 495.367 241.741C500.151 250.769 548.591 261.603 562.943 264.011C577.295 266.418 397.89 303.736 373.97 299.523C350.049 295.309 231.044 161.086 251.974 162.29Z" fill="url(#paint4_linear_22_383)"/>
<path id="path10739" d="M417.196 251.647C434.111 250.796 457.791 252.499 464.557 254.201C471.323 255.904 510.226 270.374 515.3 272.928C520.375 275.481 476.397 286.547 470.477 286.547C464.557 286.547 417.196 251.647 417.196 251.647Z" fill="url(#paint5_linear_22_383)"/>
<path id="path10729" d="M310.636 226.962C352.076 226.962 406.202 238.879 423.963 249.945C441.723 261.011 485.7 282.291 480.626 286.547C475.552 290.803 380.831 297.613 369.836 293.357C358.842 289.101 310.636 226.962 310.636 226.962Z" fill="url(#paint6_linear_22_383)"/>
<path id="path10695" d="M-0.0306396 68.6359C12.6552 60.5493 41.1765 50.5911 52.4324 43.4816C56.1803 39.8274 58.6163 33.8954 68.4466 28.735C88.1074 18.4139 103.857 11.1789 113.582 7.34815C120.348 7.34815 122.04 -7.9735 133.88 20.9677C145.72 49.909 150.692 67.4322 161.233 73.2444C168.597 70.7335 186.949 59.9107 197.203 58.9531C207.458 57.9955 216.193 66.9032 224.227 65.6263C233.53 85.2041 237.058 136.733 253.972 162.27C264.121 162.27 290.127 198.446 312.433 225.473C343.196 221.855 347.425 254.201 398.591 292.506C393.517 301.018 -0.0306396 257.606 -0.0306396 257.606V68.6359Z" fill="#35006F"/>
<path id="path4857" d="M-0.0306396 229.516C135.285 202.277 229.879 218.45 284.005 249.094C338.131 279.738 412.555 303.572 500.51 272.928C588.465 242.284 612.145 198.021 686.569 191.211C760.992 184.401 757.61 201.426 825.267 211.64C892.925 221.855 953.817 157.162 994.412 129.924C1035.01 102.685 1066.96 126.679 1128.67 89.8746C1138.61 97.9611 1157.86 101.111 1160.62 110.431C1216.66 125.285 1393.21 195.184 1475.86 180.997C1475.86 198.106 1475.86 358.886 1475.86 358.886H-0.0306396V229.516Z" fill="#2B0054"/>
<g id="path5727" filter="url(#filter0_f_22_383)">
<path d="M290.845 25.2022C290.847 25.6426 290.761 26.0788 290.595 26.486C290.428 26.8933 290.183 27.2635 289.874 27.5753C289.565 27.8872 289.198 28.1345 288.794 28.3034C288.39 28.4722 287.957 28.5593 287.519 28.5593C287.081 28.5593 286.648 28.4722 286.244 28.3034C285.84 28.1345 285.473 27.8872 285.164 27.5753C284.855 27.2635 284.61 26.8933 284.443 26.486C284.276 26.0788 284.191 25.6426 284.192 25.2022C284.191 24.7617 284.276 24.3255 284.443 23.9183C284.61 23.511 284.855 23.1409 285.164 22.829C285.473 22.5171 285.84 22.2698 286.244 22.1009C286.648 21.9321 287.081 21.845 287.519 21.845C287.957 21.845 288.39 21.9321 288.794 22.1009C289.198 22.2698 289.565 22.5171 289.874 22.829C290.183 23.1409 290.428 23.511 290.595 23.9183C290.761 24.3255 290.847 24.7617 290.845 25.2022Z" fill="white"/>
</g>
<g id="path5729" filter="url(#filter1_f_22_383)">
<path d="M327.862 87.9219C327.863 88.3122 327.787 88.6987 327.639 89.0596C327.492 89.4205 327.275 89.7485 327.001 90.0248C326.727 90.3012 326.402 90.5204 326.044 90.67C325.686 90.8196 325.302 90.8967 324.914 90.8967C324.526 90.8967 324.142 90.8196 323.784 90.67C323.426 90.5204 323.101 90.3012 322.827 90.0248C322.553 89.7485 322.336 89.4205 322.188 89.0596C322.041 88.6987 321.965 88.3122 321.966 87.9219C321.965 87.5317 322.041 87.1452 322.188 86.7843C322.336 86.4234 322.553 86.0954 322.827 85.819C323.101 85.5427 323.426 85.3235 323.784 85.1739C324.142 85.0243 324.526 84.9471 324.914 84.9471C325.302 84.9471 325.686 85.0243 326.044 85.1739C326.402 85.3235 326.727 85.5427 327.001 85.819C327.275 86.0954 327.492 86.4234 327.639 86.7843C327.787 87.1452 327.863 87.5317 327.862 87.9219Z" fill="white"/>
</g>
<g id="path5731" filter="url(#filter2_f_22_383)">
<path d="M387.518 11.0891C387.519 11.5619 387.428 12.03 387.249 12.4672C387.07 12.9043 386.807 13.3016 386.476 13.6364C386.144 13.9711 385.75 14.2366 385.316 14.4178C384.882 14.599 384.417 14.6925 383.947 14.6925C383.478 14.6925 383.013 14.599 382.579 14.4178C382.145 14.2366 381.751 13.9711 381.419 13.6364C381.088 13.3016 380.825 12.9043 380.646 12.4672C380.467 12.03 380.376 11.5619 380.377 11.0891C380.376 10.6164 380.467 10.1482 380.646 9.71111C380.825 9.27398 381.088 8.87665 381.419 8.54191C381.751 8.20718 382.145 7.94166 382.579 7.76045C383.013 7.57925 383.478 7.48578 383.947 7.48578C384.417 7.48578 384.882 7.57925 385.316 7.76045C385.75 7.94166 386.144 8.20718 386.476 8.54191C386.807 8.87665 387.07 9.27398 387.249 9.71111C387.428 10.1482 387.519 10.6164 387.518 11.0891Z" fill="white"/>
</g>
<g id="path5733" filter="url(#filter3_f_22_383)">
<path d="M412.11 184.063C412.111 184.401 412.045 184.736 411.917 185.049C411.789 185.361 411.602 185.645 411.364 185.885C411.127 186.124 410.845 186.314 410.535 186.444C410.224 186.574 409.892 186.64 409.556 186.64C409.22 186.64 408.887 186.574 408.577 186.444C408.267 186.314 407.985 186.124 407.747 185.885C407.51 185.645 407.322 185.361 407.194 185.049C407.066 184.736 407.001 184.401 407.002 184.063C407.001 183.725 407.066 183.39 407.194 183.077C407.322 182.764 407.51 182.48 407.747 182.241C407.985 182.001 408.267 181.811 408.577 181.682C408.887 181.552 409.22 181.485 409.556 181.485C409.892 181.485 410.224 181.552 410.535 181.682C410.845 181.811 411.127 182.001 411.364 182.241C411.602 182.48 411.789 182.764 411.917 183.077C412.045 183.39 412.111 183.725 412.11 184.063Z" fill="white"/>
</g>
<g id="path5735" filter="url(#filter4_f_22_383)">
<path d="M386.16 132.992C386.16 133.307 386.099 133.619 385.98 133.91C385.861 134.202 385.686 134.466 385.465 134.689C385.244 134.912 384.982 135.089 384.693 135.21C384.404 135.331 384.094 135.393 383.781 135.393C383.468 135.393 383.158 135.331 382.869 135.21C382.58 135.089 382.318 134.912 382.097 134.689C381.876 134.466 381.7 134.202 381.581 133.91C381.462 133.619 381.401 133.307 381.402 132.992C381.401 132.677 381.462 132.366 381.581 132.074C381.7 131.783 381.876 131.518 382.097 131.295C382.318 131.072 382.58 130.895 382.869 130.775C383.158 130.654 383.468 130.592 383.781 130.592C384.094 130.592 384.404 130.654 384.693 130.775C384.982 130.895 385.244 131.072 385.465 131.295C385.686 131.518 385.861 131.783 385.98 132.074C386.099 132.366 386.16 132.677 386.16 132.992Z" fill="white"/>
</g>
<g id="path5737" filter="url(#filter5_f_22_383)">
<path d="M582.103 138.112C582.105 138.56 582.018 139.004 581.848 139.418C581.679 139.832 581.43 140.209 581.115 140.526C580.801 140.843 580.427 141.095 580.016 141.267C579.605 141.439 579.164 141.527 578.719 141.527C578.274 141.527 577.833 141.439 577.422 141.267C577.01 141.095 576.637 140.843 576.322 140.526C576.008 140.209 575.759 139.832 575.589 139.418C575.42 139.004 575.333 138.56 575.334 138.112C575.333 137.664 575.42 137.22 575.589 136.805C575.759 136.391 576.008 136.014 576.322 135.697C576.637 135.38 577.01 135.128 577.422 134.956C577.833 134.785 578.274 134.696 578.719 134.696C579.164 134.696 579.605 134.785 580.016 134.956C580.427 135.128 580.801 135.38 581.115 135.697C581.43 136.014 581.679 136.391 581.848 136.805C582.018 137.22 582.105 137.664 582.103 138.112Z" fill="white"/>
</g>
<g id="path5739" filter="url(#filter6_f_22_383)">
<path d="M587.276 145.642C587.277 146.051 587.197 146.456 587.043 146.834C586.888 147.212 586.661 147.556 586.374 147.846C586.087 148.136 585.746 148.365 585.37 148.522C584.995 148.679 584.593 148.76 584.186 148.76C583.78 148.76 583.377 148.679 583.002 148.522C582.627 148.365 582.286 148.136 581.999 147.846C581.712 147.556 581.484 147.212 581.329 146.834C581.175 146.456 581.096 146.051 581.097 145.642C581.096 145.233 581.175 144.828 581.329 144.449C581.484 144.071 581.712 143.727 581.999 143.438C582.286 143.148 582.627 142.918 583.002 142.762C583.377 142.605 583.78 142.524 584.186 142.524C584.593 142.524 584.995 142.605 585.37 142.762C585.746 142.918 586.087 143.148 586.374 143.438C586.661 143.727 586.888 144.071 587.043 144.449C587.197 144.828 587.277 145.233 587.276 145.642Z" fill="white"/>
</g>
<g id="path5741" filter="url(#filter7_f_22_383)">
<path d="M697.202 112.806C697.203 113.207 697.125 113.605 696.973 113.976C696.822 114.347 696.599 114.684 696.317 114.968C696.036 115.253 695.701 115.478 695.333 115.632C694.964 115.786 694.57 115.865 694.171 115.865C693.772 115.865 693.378 115.786 693.009 115.632C692.641 115.478 692.306 115.253 692.025 114.968C691.743 114.684 691.52 114.347 691.368 113.976C691.216 113.605 691.139 113.207 691.14 112.806C691.139 112.405 691.216 112.007 691.368 111.636C691.52 111.265 691.743 110.928 692.025 110.644C692.306 110.36 692.641 110.134 693.009 109.98C693.378 109.827 693.772 109.747 694.171 109.747C694.57 109.747 694.964 109.827 695.333 109.98C695.701 110.134 696.036 110.36 696.317 110.644C696.599 110.928 696.822 111.265 696.973 111.636C697.125 112.007 697.203 112.405 697.202 112.806Z" fill="white"/>
</g>
<g id="path5745" filter="url(#filter8_f_22_383)">
<path d="M703.053 50.7858C703.054 51.1786 702.978 51.5676 702.829 51.9308C702.68 52.294 702.462 52.6242 702.187 52.9023C701.911 53.1804 701.583 53.401 701.223 53.5516C700.863 53.7022 700.476 53.7798 700.086 53.7798C699.696 53.7798 699.309 53.7022 698.949 53.5516C698.588 53.401 698.261 53.1804 697.985 52.9023C697.71 52.6242 697.491 52.294 697.343 51.9308C697.194 51.5676 697.118 51.1786 697.119 50.7858C697.118 50.393 697.194 50.004 697.343 49.6408C697.491 49.2776 697.71 48.9474 697.985 48.6693C698.261 48.3912 698.588 48.1705 698.949 48.02C699.309 47.8694 699.696 47.7917 700.086 47.7917C700.476 47.7917 700.863 47.8694 701.223 48.02C701.583 48.1705 701.911 48.3912 702.187 48.6693C702.462 48.9474 702.68 49.2776 702.829 49.6408C702.978 50.004 703.054 50.393 703.053 50.7858Z" fill="white"/>
</g>
<g id="path5747" filter="url(#filter9_f_22_383)">
<path d="M666.54 161.553C666.541 161.912 666.471 162.267 666.336 162.599C666.2 162.931 666 163.232 665.749 163.487C665.497 163.741 665.198 163.942 664.869 164.08C664.539 164.217 664.186 164.288 663.83 164.288C663.474 164.288 663.121 164.217 662.791 164.08C662.462 163.942 662.163 163.741 661.911 163.487C661.66 163.232 661.46 162.931 661.324 162.599C661.188 162.267 661.119 161.912 661.12 161.553C661.119 161.194 661.188 160.839 661.324 160.507C661.46 160.176 661.66 159.874 661.911 159.62C662.163 159.366 662.462 159.164 662.791 159.027C663.121 158.889 663.474 158.818 663.83 158.818C664.186 158.818 664.539 158.889 664.869 159.027C665.198 159.164 665.497 159.366 665.749 159.62C666 159.874 666.2 160.176 666.336 160.507C666.471 160.839 666.541 161.194 666.54 161.553Z" fill="white"/>
</g>
<g id="path5813" filter="url(#filter10_f_22_383)">
<path d="M69.7362 3.38615C69.7374 3.81827 69.6536 4.24622 69.4901 4.64579C69.3266 5.04536 69.0865 5.40856 68.7834 5.71454C68.4802 6.02052 68.1199 6.26323 67.7233 6.42887C67.3268 6.59451 66.9018 6.67994 66.4724 6.67994C66.0431 6.67994 65.6181 6.59451 65.2215 6.42887C64.825 6.26323 64.4646 6.02052 64.1615 5.71454C63.8583 5.40856 63.618 5.04536 63.4545 4.64579C63.291 4.24622 63.2075 3.81827 63.2086 3.38615C63.2075 2.95402 63.291 2.52607 63.4545 2.1265C63.618 1.72693 63.8583 1.36373 64.1615 1.05775C64.4646 0.751772 64.825 0.509064 65.2215 0.343424C65.6181 0.177784 66.0431 0.0923462 66.4724 0.0923462C66.9018 0.0923462 67.3268 0.177784 67.7233 0.343424C68.1199 0.509064 68.4802 0.751772 68.7834 1.05775C69.0865 1.36373 69.3266 1.72693 69.4901 2.1265C69.6536 2.52607 69.7374 2.95402 69.7362 3.38615Z" fill="white"/>
</g>
<path id="path10860" d="M573.232 235.048C556.318 247.817 454.408 285.696 416.351 286.547C378.293 287.399 324.167 274.63 308.098 261.862C292.03 249.094 259.892 230.367 247.206 231.218C234.52 232.07 275.115 271.225 315.71 286.547C356.304 301.869 511.918 282.717 527.986 277.61C544.055 272.503 561.392 252.073 573.232 235.048Z" fill="url(#paint7_linear_22_383)"/>
<path id="path10842" d="M895.876 269.523C833.293 212.844 780.858 188.657 699.668 188.657C630.645 188.657 607.55 208.607 585.814 222.287C573.777 229.863 564.353 243.561 550.821 259.734C562.224 255.908 617.618 220.47 694.594 218.45C791.887 215.896 874.733 256.755 895.876 269.523Z" fill="url(#paint8_radial_22_383)"/>
<path id="path10872" d="M280.679 243.546C254.366 224.887 132.371 201.413 55.2268 219.47C134.165 216.461 204.799 222.522 246.592 239.333C254.797 239.021 269.616 240.235 280.679 243.546Z" fill="url(#paint9_linear_22_383)"/>
<path id="path5114" d="M157.56 74.5944C169.4 71.1896 194.772 57.57 199 56.7186C203.229 55.8676 220.989 65.231 225.218 65.231C227.332 65.231 232.195 98.4285 238.855 109.494C244.247 129.072 244.247 145.246 246.784 148.65C249.321 152.055 237.845 117.937 205.766 113.325C195.406 111.835 156.714 77.9993 157.56 74.5944Z" fill="url(#paint10_linear_22_383)"/>
<path id="path5116" d="M99.4292 24.9399C108.166 36.1155 128.589 61.1343 133.979 63.3941C139.37 65.6547 148.304 81.8494 149.516 89.2259C150.728 96.6024 138.649 72.7214 134.277 69.0279C129.906 65.3354 107.839 53.2203 107.435 50.7613C97.4818 48.6899 97.9052 45.5209 106.655 44.1026C106.048 41.3622 104.805 38.5695 102.059 37.1318C96.5678 34.2568 95.9716 22.989 99.4292 24.9399Z" fill="url(#paint11_linear_22_383)"/>
<path id="path5136" d="M236.408 199.526C225.855 179.814 225.991 170.109 219.214 166.727C212.436 163.346 143.975 125.786 135.654 116.111C127.333 106.435 108.681 92.8796 102.923 90.856C97.1658 88.8325 128.41 124.818 127.089 134.356C125.768 143.894 152.188 153.678 160.48 154.841C168.772 156.004 202.299 166.785 206.542 171.027C210.785 175.268 236.408 199.526 236.408 199.526Z" fill="url(#paint12_linear_22_383)"/>
<path id="path10959" d="M493.702 534.515C496.054 534.072 520.249 513.617 520.249 513.617C520.249 513.617 570.969 491.86 586.634 477.902C602.299 463.943 609.671 462.987 602.397 463.126C595.123 463.266 557.231 483.622 552.089 482.139C546.948 480.654 508.214 501.182 508.214 501.182C508.214 501.182 497.551 509.304 496.076 514.479C494.601 519.654 475.762 542.943 475.762 542.943L493.702 534.515Z" fill="url(#paint13_linear_22_383)"/>
<path id="path10961" d="M511.813 502.751C508.524 491.315 515.999 469.646 516.896 461.822C517.793 453.997 535.434 447.978 539.022 448.279C542.61 448.582 581.482 469.345 579.688 470.549C577.893 471.753 558.159 484.393 554.87 484.393C551.581 484.393 515.401 499.139 511.813 502.751Z" fill="url(#paint14_linear_22_383)"/>
<path id="path10963" d="M477.426 542.476C468.456 538.865 451.712 526.225 451.712 526.225C451.712 526.225 425.399 527.429 423.605 524.419C421.811 521.41 401.478 504.557 397.89 503.954C394.302 503.353 461.878 461.822 473.24 463.627C484.602 465.433 519.287 440.153 524.072 440.755C528.856 441.357 509.121 496.13 512.111 500.343C515.101 504.557 501.945 512.381 499.553 514.789C497.161 517.196 477.426 542.476 477.426 542.476Z" fill="#352F9A"/>
<path id="path10965" d="M114.135 692.924C114.135 692.924 99.4805 703.185 132.969 708C150.137 704.449 156.382 701.903 170.949 698.662C183.825 689.464 198.358 654.74 222.279 652.332C214.916 643.635 214.28 640.441 204.44 636.757C190.977 635.305 158.693 625.59 163.477 615.96C168.261 606.33 114.135 692.924 114.135 692.924Z" fill="url(#paint15_linear_22_383)"/>
<path id="path10967" d="M200.305 654.76C190.697 655.004 199.128 653.343 182.996 644.439C207.562 561.176 229.806 543.097 251.19 533.723C281.079 532.087 315.05 543.74 322.671 547.452C308.39 562.87 259.461 616.397 245.922 643.327C234.8 646.802 234.418 650.805 222.458 652.008C219.316 652.325 203.331 653.162 200.305 654.76Z" fill="url(#paint16_linear_22_383)"/>
<path id="path10969" d="M251.974 549.097C280.679 550.903 308.786 551.505 321.942 548.496C335.099 545.486 379.352 524.419 383.538 517.196C387.724 509.974 490.583 478.675 495.367 469.646C500.151 460.618 548.591 449.783 562.943 447.376C577.295 444.969 397.89 407.651 373.97 411.864C350.049 416.077 231.044 550.301 251.974 549.097Z" fill="url(#paint17_linear_22_383)"/>
<path id="path10971" d="M417.196 459.74C434.111 460.59 457.791 458.888 464.557 457.186C471.323 455.483 510.226 441.013 515.3 438.459C520.375 435.905 476.397 424.84 470.477 424.84C464.557 424.84 417.196 459.74 417.196 459.74Z" fill="url(#paint18_linear_22_383)"/>
<path id="path10973" d="M310.636 484.424C352.076 484.424 406.202 472.508 423.963 461.442C441.723 450.376 485.7 429.096 480.626 424.84C475.552 420.583 380.831 413.774 369.836 418.03C358.842 422.286 310.636 484.424 310.636 484.424Z" fill="url(#paint19_linear_22_383)"/>
<path id="path10975" d="M-0.0306396 642.751C12.6552 650.837 41.1765 660.796 52.4324 667.905C56.1803 671.559 58.6163 677.491 68.4466 682.652C88.1074 692.973 103.857 700.208 113.582 704.039C120.348 704.039 122.04 719.36 133.88 690.419C145.72 661.478 150.692 643.955 161.233 638.142C168.597 640.653 186.949 651.476 197.203 652.434C207.458 653.391 216.193 644.484 224.227 645.761C233.53 626.183 237.058 574.654 253.972 549.117C264.121 549.117 290.127 512.94 312.433 485.914C343.196 489.532 347.425 457.186 398.591 418.881C393.517 410.369 -0.0306396 453.781 -0.0306396 453.781V642.751Z" fill="#35006F"/>
<path id="path10977" d="M-0.0306396 481.871C135.285 509.11 229.879 492.937 284.005 462.293C338.131 431.649 412.555 407.815 500.51 438.459C588.465 469.103 612.145 513.366 686.569 520.175C760.992 526.986 757.61 509.961 825.267 499.747C892.925 489.532 953.817 554.224 994.412 581.463C1035.01 608.702 1066.96 584.708 1128.67 621.512C1138.61 613.426 1157.86 610.276 1160.62 600.956C1216.66 586.102 1393.21 516.203 1475.86 530.39C1475.86 513.281 1475.86 352.501 1475.86 352.501H-0.0306396V481.871Z" fill="#2B0054"/>
<g id="path10989" filter="url(#filter11_f_22_383)">
<path d="M290.845 686.184C290.847 685.744 290.761 685.308 290.595 684.901C290.428 684.493 290.183 684.123 289.874 683.811C289.565 683.499 289.198 683.252 288.794 683.083C288.39 682.914 287.957 682.827 287.519 682.827C287.081 682.827 286.648 682.914 286.244 683.083C285.84 683.252 285.473 683.499 285.164 683.811C284.855 684.123 284.61 684.493 284.443 684.901C284.276 685.308 284.191 685.744 284.192 686.184C284.191 686.625 284.276 687.061 284.443 687.468C284.61 687.875 284.855 688.246 285.164 688.558C285.473 688.869 285.84 689.117 286.244 689.286C286.648 689.454 287.081 689.542 287.519 689.542C287.957 689.542 288.39 689.454 288.794 689.286C289.198 689.117 289.565 688.869 289.874 688.558C290.183 688.246 290.428 687.875 290.595 687.468C290.761 687.061 290.847 686.625 290.845 686.184Z" fill="white"/>
</g>
<g id="path10991" filter="url(#filter12_f_22_383)">
<path d="M327.862 623.465C327.863 623.075 327.787 622.688 327.639 622.327C327.492 621.967 327.275 621.638 327.001 621.362C326.727 621.086 326.402 620.867 326.044 620.717C325.686 620.567 325.302 620.49 324.914 620.49C324.526 620.49 324.142 620.567 323.784 620.717C323.426 620.867 323.101 621.086 322.827 621.362C322.553 621.638 322.336 621.967 322.188 622.327C322.041 622.688 321.965 623.075 321.966 623.465C321.965 623.855 322.041 624.242 322.188 624.603C322.336 624.964 322.553 625.292 322.827 625.568C323.101 625.844 323.426 626.063 323.784 626.213C324.142 626.363 324.526 626.44 324.914 626.44C325.302 626.44 325.686 626.363 326.044 626.213C326.402 626.063 326.727 625.844 327.001 625.568C327.275 625.292 327.492 624.964 327.639 624.603C327.787 624.242 327.863 623.855 327.862 623.465Z" fill="white"/>
</g>
<g id="path10993" filter="url(#filter13_f_22_383)">
<path d="M387.518 700.298C387.519 699.825 387.428 699.357 387.249 698.92C387.07 698.483 386.807 698.086 386.476 697.751C386.144 697.416 385.75 697.151 385.316 696.969C384.882 696.788 384.417 696.695 383.947 696.695C383.478 696.695 383.013 696.788 382.579 696.969C382.145 697.151 381.751 697.416 381.419 697.751C381.088 698.086 380.825 698.483 380.646 698.92C380.467 699.357 380.376 699.825 380.377 700.298C380.376 700.771 380.467 701.239 380.646 701.676C380.825 702.113 381.088 702.511 381.419 702.845C381.751 703.18 382.145 703.446 382.579 703.627C383.013 703.808 383.478 703.901 383.947 703.901C384.417 703.901 384.882 703.808 385.316 703.627C385.75 703.446 386.144 703.18 386.476 702.845C386.807 702.511 387.07 702.113 387.249 701.676C387.428 701.239 387.519 700.771 387.518 700.298Z" fill="white"/>
</g>
<g id="path10995" filter="url(#filter14_f_22_383)">
<path d="M412.11 527.324C412.111 526.986 412.045 526.651 411.917 526.338C411.789 526.025 411.602 525.741 411.364 525.502C411.127 525.262 410.845 525.072 410.535 524.943C410.224 524.813 409.892 524.746 409.556 524.746C409.22 524.746 408.887 524.813 408.577 524.943C408.267 525.072 407.985 525.262 407.747 525.502C407.51 525.741 407.322 526.025 407.194 526.338C407.066 526.651 407.001 526.986 407.002 527.324C407.001 527.662 407.066 527.997 407.194 528.31C407.322 528.622 407.51 528.907 407.747 529.146C407.985 529.386 408.267 529.575 408.577 529.705C408.887 529.835 409.22 529.902 409.556 529.902C409.892 529.902 410.224 529.835 410.535 529.705C410.845 529.575 411.127 529.386 411.364 529.146C411.602 528.907 411.789 528.622 411.917 528.31C412.045 527.997 412.111 527.662 412.11 527.324Z" fill="white"/>
</g>
<g id="path10997" filter="url(#filter15_f_22_383)">
<path d="M386.16 578.395C386.16 578.08 386.099 577.768 385.98 577.476C385.861 577.185 385.686 576.921 385.465 576.698C385.244 576.475 384.982 576.298 384.693 576.177C384.404 576.056 384.094 575.994 383.781 575.994C383.468 575.994 383.158 576.056 382.869 576.177C382.58 576.298 382.318 576.475 382.097 576.698C381.876 576.921 381.7 577.185 381.581 577.476C381.462 577.768 381.401 578.08 381.402 578.395C381.401 578.709 381.462 579.021 381.581 579.313C381.7 579.604 381.876 579.869 382.097 580.092C382.318 580.315 382.58 580.491 382.869 580.612C383.158 580.733 383.468 580.795 383.781 580.795C384.094 580.795 384.404 580.733 384.693 580.612C384.982 580.491 385.244 580.315 385.465 580.092C385.686 579.869 385.861 579.604 385.98 579.313C386.099 579.021 386.16 578.709 386.16 578.395Z" fill="white"/>
</g>
<g id="path10999" filter="url(#filter16_f_22_383)">
<path d="M582.103 573.275C582.105 572.827 582.018 572.383 581.848 571.969C581.679 571.555 581.43 571.178 581.115 570.861C580.801 570.543 580.427 570.292 580.016 570.12C579.605 569.948 579.164 569.859 578.719 569.859C578.274 569.859 577.833 569.948 577.422 570.12C577.01 570.292 576.637 570.543 576.322 570.861C576.008 571.178 575.759 571.555 575.589 571.969C575.42 572.383 575.333 572.827 575.334 573.275C575.333 573.723 575.42 574.167 575.589 574.581C575.759 574.996 576.008 575.372 576.322 575.69C576.637 576.007 577.01 576.259 577.422 576.43C577.833 576.602 578.274 576.691 578.719 576.691C579.164 576.691 579.605 576.602 580.016 576.43C580.427 576.259 580.801 576.007 581.115 575.69C581.43 575.372 581.679 574.996 581.848 574.581C582.018 574.167 582.105 573.723 582.103 573.275Z" fill="white"/>
</g>
<g id="path11001" filter="url(#filter17_f_22_383)">
<path d="M587.276 565.745C587.277 565.336 587.197 564.931 587.043 564.553C586.888 564.174 586.661 563.831 586.374 563.541C586.087 563.251 585.746 563.022 585.37 562.865C584.995 562.708 584.593 562.627 584.186 562.627C583.78 562.627 583.377 562.708 583.002 562.865C582.627 563.022 582.286 563.251 581.999 563.541C581.712 563.831 581.484 564.174 581.329 564.553C581.175 564.931 581.096 565.336 581.097 565.745C581.096 566.154 581.175 566.559 581.329 566.937C581.484 567.316 581.712 567.659 581.999 567.949C582.286 568.239 582.627 568.468 583.002 568.625C583.377 568.782 583.78 568.863 584.186 568.863C584.593 568.863 584.995 568.782 585.37 568.625C585.746 568.468 586.087 568.239 586.374 567.949C586.661 567.659 586.888 567.316 587.043 566.937C587.197 566.559 587.277 566.154 587.276 565.745Z" fill="white"/>
</g>
<g id="path11003" filter="url(#filter18_f_22_383)">
<path d="M697.202 598.581C697.203 598.18 697.125 597.782 696.973 597.411C696.822 597.04 696.599 596.703 696.317 596.419C696.036 596.135 695.701 595.909 695.333 595.755C694.964 595.601 694.57 595.522 694.171 595.522C693.772 595.522 693.378 595.601 693.009 595.755C692.641 595.909 692.306 596.135 692.025 596.419C691.743 596.703 691.52 597.04 691.368 597.411C691.216 597.782 691.139 598.18 691.14 598.581C691.139 598.982 691.216 599.38 691.368 599.751C691.52 600.122 691.743 600.459 692.025 600.743C692.306 601.027 692.641 601.253 693.009 601.407C693.378 601.561 693.772 601.64 694.171 601.64C694.57 601.64 694.964 601.561 695.333 601.407C695.701 601.253 696.036 601.027 696.317 600.743C696.599 600.459 696.822 600.122 696.973 599.751C697.125 599.38 697.203 598.982 697.202 598.581Z" fill="white"/>
</g>
<g id="path11007" filter="url(#filter19_f_22_383)">
<path d="M703.053 660.602C703.054 660.209 702.978 659.82 702.829 659.457C702.68 659.093 702.462 658.763 702.187 658.485C701.911 658.207 701.583 657.986 701.223 657.836C700.863 657.685 700.476 657.608 700.086 657.608C699.696 657.608 699.309 657.685 698.949 657.836C698.588 657.986 698.261 658.207 697.985 658.485C697.71 658.763 697.491 659.093 697.343 659.457C697.194 659.82 697.118 660.209 697.119 660.602C697.118 660.994 697.194 661.383 697.343 661.747C697.491 662.11 697.71 662.44 697.985 662.718C698.261 662.996 698.588 663.217 698.949 663.367C699.309 663.518 699.696 663.596 700.086 663.596C700.476 663.596 700.863 663.518 701.223 663.367C701.583 663.217 701.911 662.996 702.187 662.718C702.462 662.44 702.68 662.11 702.829 661.747C702.978 661.383 703.054 660.994 703.053 660.602Z" fill="white"/>
</g>
<g id="path11009" filter="url(#filter20_f_22_383)">
<path d="M666.54 549.834C666.541 549.475 666.471 549.119 666.336 548.788C666.2 548.456 666 548.154 665.749 547.9C665.497 547.646 665.198 547.445 664.869 547.307C664.539 547.17 664.186 547.099 663.83 547.099C663.474 547.099 663.121 547.17 662.791 547.307C662.462 547.445 662.163 547.646 661.911 547.9C661.66 548.154 661.46 548.456 661.324 548.788C661.188 549.119 661.119 549.475 661.12 549.834C661.119 550.192 661.188 550.548 661.324 550.879C661.46 551.211 661.66 551.513 661.911 551.767C662.163 552.021 662.462 552.222 662.791 552.36C663.121 552.497 663.474 552.568 663.83 552.568C664.186 552.568 664.539 552.497 664.869 552.36C665.198 552.222 665.497 552.021 665.749 551.767C666 551.513 666.2 551.211 666.336 550.879C666.471 550.548 666.541 550.192 666.54 549.834Z" fill="white"/>
</g>
<g id="path11047" filter="url(#filter21_f_22_383)">
<path d="M69.7362 708.001C69.7374 707.569 69.6536 707.141 69.4901 706.741C69.3266 706.342 69.0865 705.978 68.7834 705.672C68.4802 705.366 68.1199 705.124 67.7233 704.958C67.3268 704.792 66.9018 704.707 66.4724 704.707C66.0431 704.707 65.6181 704.792 65.2215 704.958C64.825 705.124 64.4646 705.366 64.1615 705.672C63.8583 705.978 63.618 706.342 63.4545 706.741C63.291 707.141 63.2075 707.569 63.2086 708.001C63.2075 708.433 63.291 708.861 63.4545 709.26C63.618 709.66 63.8583 710.023 64.1615 710.329C64.4646 710.635 64.825 710.878 65.2215 711.043C65.6181 711.209 66.0431 711.295 66.4724 711.295C66.9018 711.295 67.3268 711.209 67.7233 711.043C68.1199 710.878 68.4802 710.635 68.7834 710.329C69.0865 710.023 69.3266 709.66 69.4901 709.26C69.6536 708.861 69.7374 708.433 69.7362 708.001Z" fill="white"/>
</g>
<path id="path11055" d="M573.232 476.339C556.318 463.57 454.408 425.691 416.351 424.84C378.293 423.988 324.167 436.757 308.098 449.525C292.03 462.293 259.892 481.02 247.206 480.169C234.52 479.317 275.115 440.162 315.71 424.84C356.304 409.518 511.918 428.67 527.986 433.777C544.055 438.884 561.392 459.314 573.232 476.339Z" fill="url(#paint20_linear_22_383)"/>
<path id="path11057" d="M895.876 441.864C833.293 498.543 780.858 522.729 699.668 522.73C630.645 522.73 607.55 502.78 585.814 489.1C573.777 481.524 564.353 467.826 550.821 451.653C562.224 455.479 617.618 490.917 694.594 492.937C791.887 495.491 874.733 454.632 895.876 441.864Z" fill="url(#paint21_radial_22_383)"/>
<path id="path11059" d="M280.679 467.841C254.366 486.5 132.371 509.974 55.2268 491.917C134.165 494.927 204.799 488.865 246.592 472.055C254.797 472.366 269.616 471.152 280.679 467.841Z" fill="url(#paint22_linear_22_383)"/>
<path id="path11061" d="M157.56 636.792C169.4 640.197 194.772 653.817 199 654.668C203.229 655.519 220.989 646.155 225.218 646.155C227.332 646.155 232.195 612.958 238.855 601.892C244.247 582.314 244.247 566.141 246.784 562.736C249.321 559.331 237.845 593.449 205.766 598.062C195.406 599.552 156.714 633.387 157.56 636.792Z" fill="url(#paint23_linear_22_383)"/>
<path id="path11063" d="M99.4292 686.447C108.166 675.271 128.589 650.253 133.979 647.993C139.37 645.732 148.304 629.537 149.516 622.161C150.728 614.785 138.649 638.666 134.277 642.359C129.906 646.051 107.839 658.167 107.435 660.626C97.4818 662.697 97.9052 665.866 106.655 667.284C106.048 670.025 104.805 672.817 102.059 674.255C96.5678 677.13 95.9716 688.398 99.4292 686.447Z" fill="url(#paint24_linear_22_383)"/>
<path id="path11069" d="M236.408 511.861C225.855 531.573 225.991 541.278 219.214 544.66C212.436 548.041 143.975 585.601 135.654 595.276C127.333 604.952 108.681 618.507 102.923 620.531C97.1658 622.554 128.41 586.569 127.089 577.031C125.768 567.493 152.188 557.709 160.48 556.546C168.772 555.382 202.299 544.602 206.542 540.36C210.785 536.119 236.408 511.861 236.408 511.861Z" fill="url(#paint25_linear_22_383)"/>
</g>
</g>
<g id="mountainLandscapeRight" clip-path="url(#clip2_22_383)">
<g id="mountains_2">
<path id="path10761_2" d="M902.702 534.628C900.357 534.185 876.231 513.731 876.231 513.731C876.231 513.731 825.655 491.973 810.035 478.015C794.414 464.057 787.063 463.1 794.316 463.239C801.57 463.379 839.355 483.735 844.481 482.252C849.608 480.768 888.232 501.295 888.232 501.295C888.232 501.295 898.864 509.417 900.335 514.592C901.806 519.767 920.592 543.056 920.592 543.056L902.702 534.628Z" fill="url(#paint26_linear_22_383)"/>
<path id="path10802_2" d="M884.643 502.864C887.923 491.428 880.469 469.76 879.575 461.935C878.68 454.11 861.089 448.091 857.511 448.392C853.933 448.695 815.173 469.459 816.962 470.663C818.751 471.866 838.429 484.506 841.709 484.506C844.988 484.506 881.066 499.253 884.643 502.864Z" fill="url(#paint27_linear_22_383)"/>
<path id="path10763_2" d="M918.932 542.59C927.877 538.978 944.574 526.339 944.574 526.339C944.574 526.339 970.811 527.542 972.6 524.533C974.389 521.523 994.664 504.67 998.242 504.068C1001.82 503.466 934.436 461.935 923.106 463.74C911.776 465.546 877.19 440.266 872.419 440.868C867.649 441.47 887.327 496.243 884.346 500.457C881.364 504.67 894.483 512.494 896.868 514.902C899.254 517.31 918.932 542.59 918.932 542.59Z" fill="#352F9A"/>
<path id="path9917_2" d="M1281.19 693.036C1281.19 693.036 1295.8 703.297 1262.41 708.112C1245.29 704.561 1239.06 702.015 1224.54 698.775C1211.7 689.576 1197.21 654.853 1173.35 652.445C1180.7 643.747 1181.33 640.554 1191.14 636.869C1204.57 635.418 1236.76 625.703 1231.99 616.073C1227.22 606.442 1281.19 693.036 1281.19 693.036Z" fill="url(#paint28_linear_22_383)"/>
<path id="path10714_2" d="M1195.27 654.873C1204.85 655.117 1196.44 653.456 1212.52 644.552C1188.03 561.29 1165.85 543.21 1144.52 533.837C1114.72 532.2 1080.85 543.853 1073.25 547.566C1087.49 562.983 1136.28 616.511 1149.78 643.44C1160.87 646.915 1161.25 650.918 1173.18 652.122C1176.31 652.438 1192.25 653.275 1195.27 654.873Z" fill="url(#paint29_linear_22_383)"/>
<path id="path10751_2" d="M1143.74 549.21C1115.12 551.016 1087.09 551.618 1073.97 548.609C1060.85 545.599 1016.73 524.533 1012.55 517.31C1008.38 510.087 905.813 478.788 901.042 469.76C896.272 460.731 847.97 449.897 833.659 447.489C819.347 445.082 998.241 407.764 1022.09 411.977C1045.95 416.191 1164.61 550.414 1143.74 549.21Z" fill="url(#paint30_linear_22_383)"/>
<path id="path10739_2" d="M978.99 459.853C962.124 460.704 938.511 459.001 931.765 457.299C925.018 455.597 886.225 441.126 881.166 438.573C876.106 436.019 919.958 424.953 925.861 424.953C931.765 424.953 978.99 459.853 978.99 459.853Z" fill="url(#paint31_linear_22_383)"/>
<path id="path10729_2" d="M1085.25 484.538C1043.93 484.538 989.953 472.621 972.243 461.555C954.534 450.489 910.681 429.209 915.741 424.953C920.801 420.697 1015.25 413.887 1026.22 418.143C1037.18 422.399 1085.25 484.538 1085.25 484.538Z" fill="url(#paint32_linear_22_383)"/>
<path id="path10695_2" d="M1395.03 642.864C1382.38 650.951 1353.94 660.909 1342.72 668.018C1338.98 671.673 1336.55 677.605 1326.75 682.765C1307.14 693.086 1291.44 700.321 1281.74 704.152C1274.99 704.152 1273.31 719.474 1261.5 690.532C1249.69 661.591 1244.74 644.068 1234.23 638.256C1226.88 640.766 1208.58 651.589 1198.36 652.547C1188.13 653.504 1179.42 644.597 1171.41 645.874C1162.13 626.296 1158.62 574.767 1141.75 549.23C1131.63 549.23 1105.7 513.054 1083.46 486.027C1052.78 489.645 1048.56 457.299 997.543 418.994C1002.6 410.482 1395.03 453.894 1395.03 453.894L1395.03 642.864Z" fill="#35006F"/>
<path id="path4857_2" d="M1395.03 481.984C1260.1 509.223 1165.78 493.05 1111.8 462.406C1057.83 431.763 983.619 407.929 895.914 438.572C808.209 469.216 784.596 513.479 710.384 520.289C636.173 527.099 639.546 510.074 572.081 499.86C504.615 489.645 443.896 554.338 403.417 581.577C362.938 608.815 331.078 584.821 269.541 621.626C259.632 613.539 240.436 610.389 237.685 601.069C181.805 586.215 5.75836 516.316 -76.6637 530.504C-76.6637 513.394 -76.6637 352.615 -76.6637 352.615L1395.03 352.615L1395.03 481.984Z" fill="#2B0054"/>
<g id="path5727_2" filter="url(#filter22_f_22_383)">
<path d="M1104.98 686.298C1104.98 685.857 1105.07 685.421 1105.23 685.014C1105.4 684.607 1105.64 684.237 1105.95 683.925C1106.26 683.613 1106.62 683.366 1107.03 683.197C1107.43 683.028 1107.86 682.941 1108.3 682.941C1108.74 682.941 1109.17 683.028 1109.57 683.197C1109.97 683.366 1110.34 683.613 1110.65 683.925C1110.96 684.237 1111.2 684.607 1111.37 685.014C1111.53 685.421 1111.62 685.857 1111.62 686.298C1111.62 686.738 1111.53 687.175 1111.37 687.582C1111.2 687.989 1110.96 688.359 1110.65 688.671C1110.34 688.983 1109.97 689.23 1109.57 689.399C1109.17 689.568 1108.74 689.655 1108.3 689.655C1107.86 689.655 1107.43 689.568 1107.03 689.399C1106.62 689.23 1106.26 688.983 1105.95 688.671C1105.64 688.359 1105.4 687.989 1105.23 687.582C1105.07 687.175 1104.98 686.738 1104.98 686.298Z" fill="white"/>
</g>
<g id="path5729_2" filter="url(#filter23_f_22_383)">
<path d="M1068.07 623.578C1068.07 623.188 1068.15 622.801 1068.29 622.44C1068.44 622.08 1068.66 621.752 1068.93 621.475C1069.2 621.199 1069.53 620.98 1069.88 620.83C1070.24 620.68 1070.62 620.603 1071.01 620.603C1071.4 620.603 1071.78 620.68 1072.14 620.83C1072.49 620.98 1072.82 621.199 1073.09 621.475C1073.36 621.752 1073.58 622.08 1073.73 622.44C1073.88 622.801 1073.95 623.188 1073.95 623.578C1073.95 623.968 1073.88 624.355 1073.73 624.716C1073.58 625.077 1073.36 625.405 1073.09 625.681C1072.82 625.957 1072.49 626.176 1072.14 626.326C1071.78 626.476 1071.4 626.553 1071.01 626.553C1070.62 626.553 1070.24 626.476 1069.88 626.326C1069.53 626.176 1069.2 625.957 1068.93 625.681C1068.66 625.405 1068.44 625.077 1068.29 624.716C1068.15 624.355 1068.07 623.968 1068.07 623.578Z" fill="white"/>
</g>
<g id="path5731_2" filter="url(#filter24_f_22_383)">
<path d="M1008.58 700.411C1008.58 699.938 1008.67 699.47 1008.85 699.033C1009.03 698.596 1009.29 698.198 1009.62 697.864C1009.95 697.529 1010.35 697.263 1010.78 697.082C1011.21 696.901 1011.68 696.808 1012.14 696.808C1012.61 696.808 1013.08 696.901 1013.51 697.082C1013.94 697.263 1014.33 697.529 1014.67 697.864C1015 698.198 1015.26 698.596 1015.44 699.033C1015.62 699.47 1015.71 699.938 1015.71 700.411C1015.71 700.884 1015.62 701.352 1015.44 701.789C1015.26 702.226 1015 702.623 1014.67 702.958C1014.33 703.293 1013.94 703.558 1013.51 703.74C1013.08 703.921 1012.61 704.014 1012.14 704.014C1011.68 704.014 1011.21 703.921 1010.78 703.74C1010.35 703.558 1009.95 703.293 1009.62 702.958C1009.29 702.623 1009.03 702.226 1008.85 701.789C1008.67 701.352 1008.58 700.884 1008.58 700.411Z" fill="white"/>
</g>
<g id="path5733_2" filter="url(#filter25_f_22_383)">
<path d="M984.062 527.437C984.061 527.099 984.127 526.764 984.254 526.451C984.382 526.139 984.569 525.855 984.806 525.615C985.043 525.376 985.324 525.186 985.633 525.056C985.943 524.926 986.274 524.86 986.609 524.86C986.944 524.86 987.276 524.926 987.585 525.056C987.895 525.186 988.176 525.376 988.413 525.615C988.649 525.855 988.837 526.139 988.964 526.451C989.092 526.764 989.157 527.099 989.156 527.437C989.157 527.775 989.092 528.11 988.964 528.423C988.837 528.736 988.649 529.02 988.413 529.259C988.176 529.499 987.895 529.689 987.585 529.818C987.276 529.948 986.944 530.015 986.609 530.015C986.274 530.015 985.943 529.948 985.633 529.818C985.324 529.689 985.043 529.499 984.806 529.259C984.569 529.02 984.382 528.736 984.254 528.423C984.127 528.11 984.061 527.775 984.062 527.437Z" fill="white"/>
</g>
<g id="path5735_2" filter="url(#filter26_f_22_383)">
<path d="M1009.94 578.508C1009.94 578.193 1010 577.881 1010.12 577.59C1010.24 577.298 1010.41 577.034 1010.63 576.811C1010.85 576.588 1011.11 576.411 1011.4 576.29C1011.69 576.169 1012 576.107 1012.31 576.107C1012.62 576.107 1012.93 576.169 1013.22 576.29C1013.51 576.411 1013.77 576.588 1013.99 576.811C1014.21 577.034 1014.39 577.298 1014.5 577.59C1014.62 577.881 1014.68 578.193 1014.68 578.508C1014.68 578.823 1014.62 579.134 1014.5 579.426C1014.39 579.717 1014.21 579.982 1013.99 580.205C1013.77 580.428 1013.51 580.604 1013.22 580.725C1012.93 580.846 1012.62 580.908 1012.31 580.908C1012 580.908 1011.69 580.846 1011.4 580.725C1011.11 580.604 1010.85 580.428 1010.63 580.205C1010.41 579.982 1010.24 579.717 1010.12 579.426C1010 579.134 1009.94 578.823 1009.94 578.508Z" fill="white"/>
</g>
<g id="path5737_2" filter="url(#filter27_f_22_383)">
<path d="M814.553 573.388C814.551 572.94 814.638 572.497 814.807 572.082C814.976 571.668 815.224 571.291 815.538 570.974C815.851 570.657 816.224 570.405 816.634 570.233C817.044 570.061 817.484 569.973 817.928 569.973C818.372 569.973 818.811 570.061 819.221 570.233C819.631 570.405 820.004 570.657 820.317 570.974C820.631 571.291 820.879 571.668 821.048 572.082C821.217 572.497 821.304 572.94 821.302 573.388C821.304 573.837 821.217 574.28 821.048 574.695C820.879 575.109 820.631 575.486 820.317 575.803C820.004 576.12 819.631 576.372 819.221 576.544C818.811 576.715 818.372 576.804 817.928 576.804C817.484 576.804 817.044 576.715 816.634 576.544C816.224 576.372 815.851 576.12 815.538 575.803C815.224 575.486 814.976 575.109 814.807 574.695C814.638 574.28 814.551 573.837 814.553 573.388Z" fill="white"/>
</g>
<g id="path5739_2" filter="url(#filter28_f_22_383)">
<path d="M809.395 565.858C809.394 565.449 809.473 565.044 809.627 564.666C809.782 564.288 810.008 563.944 810.294 563.654C810.581 563.365 810.921 563.135 811.295 562.978C811.669 562.821 812.07 562.74 812.476 562.74C812.881 562.74 813.282 562.821 813.656 562.978C814.031 563.135 814.371 563.365 814.657 563.654C814.943 563.944 815.17 564.288 815.324 564.666C815.479 565.044 815.557 565.449 815.556 565.858C815.557 566.267 815.479 566.672 815.324 567.051C815.17 567.429 814.943 567.773 814.657 568.062C814.371 568.352 814.031 568.582 813.656 568.738C813.282 568.895 812.881 568.976 812.476 568.976C812.07 568.976 811.669 568.895 811.295 568.738C810.921 568.582 810.581 568.352 810.294 568.062C810.008 567.773 809.782 567.429 809.627 567.051C809.473 566.672 809.394 566.267 809.395 565.858Z" fill="white"/>
</g>
<g id="path5741_2" filter="url(#filter29_f_22_383)">
<path d="M699.781 598.694C699.78 598.293 699.858 597.895 700.009 597.524C700.161 597.153 700.383 596.816 700.664 596.532C700.945 596.247 701.278 596.022 701.645 595.868C702.013 595.714 702.406 595.635 702.804 595.635C703.201 595.635 703.595 595.714 703.962 595.868C704.329 596.022 704.663 596.247 704.944 596.532C705.225 596.816 705.447 597.153 705.599 597.524C705.75 597.895 705.827 598.293 705.826 598.694C705.827 599.095 705.75 599.493 705.599 599.864C705.447 600.235 705.225 600.572 704.944 600.856C704.663 601.14 704.329 601.366 703.962 601.52C703.595 601.673 703.201 601.753 702.804 601.753C702.406 601.753 702.013 601.673 701.645 601.52C701.278 601.366 700.945 601.14 700.664 600.856C700.383 600.572 700.161 600.235 700.009 599.864C699.858 599.493 699.78 599.095 699.781 598.694Z" fill="white"/>
</g>
<g id="path5745_2" filter="url(#filter30_f_22_383)">
<path d="M693.947 660.714C693.946 660.322 694.022 659.933 694.171 659.569C694.319 659.206 694.536 658.876 694.811 658.598C695.086 658.32 695.413 658.099 695.772 657.949C696.131 657.798 696.517 657.72 696.906 657.72C697.295 657.72 697.68 657.798 698.04 657.949C698.399 658.099 698.726 658.32 699 658.598C699.275 658.876 699.493 659.206 699.641 659.569C699.789 659.933 699.865 660.322 699.864 660.714C699.865 661.107 699.789 661.496 699.641 661.859C699.493 662.223 699.275 662.553 699 662.831C698.726 663.109 698.399 663.33 698.04 663.48C697.68 663.631 697.295 663.708 696.906 663.708C696.517 663.708 696.131 663.631 695.772 663.48C695.413 663.33 695.086 663.109 694.811 662.831C694.536 662.553 694.319 662.223 694.171 661.859C694.022 661.496 693.946 661.107 693.947 660.714Z" fill="white"/>
</g>
<g id="path5747_2" filter="url(#filter31_f_22_383)">
<path d="M730.356 549.947C730.355 549.588 730.425 549.233 730.56 548.901C730.695 548.569 730.894 548.268 731.145 548.014C731.396 547.76 731.694 547.558 732.023 547.42C732.351 547.283 732.703 547.212 733.058 547.212C733.414 547.212 733.766 547.283 734.094 547.42C734.422 547.558 734.721 547.76 734.972 548.014C735.223 548.268 735.422 548.569 735.557 548.901C735.692 549.233 735.761 549.588 735.76 549.947C735.761 550.306 735.692 550.661 735.557 550.993C735.422 551.324 735.223 551.626 734.972 551.88C734.721 552.134 734.422 552.336 734.094 552.473C733.766 552.611 733.414 552.682 733.058 552.682C732.703 552.682 732.351 552.611 732.023 552.473C731.694 552.336 731.396 552.134 731.145 551.88C730.894 551.626 730.695 551.324 730.56 550.993C730.425 550.661 730.355 550.306 730.356 549.947Z" fill="white"/>
</g>
<g id="path5813_2" filter="url(#filter32_f_22_383)">
<path d="M1325.46 708.114C1325.46 707.682 1325.54 707.254 1325.71 706.854C1325.87 706.455 1326.11 706.091 1326.41 705.786C1326.71 705.48 1327.07 705.237 1327.47 705.071C1327.86 704.906 1328.29 704.82 1328.72 704.82C1329.14 704.82 1329.57 704.906 1329.96 705.071C1330.36 705.237 1330.72 705.48 1331.02 705.786C1331.32 706.091 1331.56 706.455 1331.73 706.854C1331.89 707.254 1331.97 707.682 1331.97 708.114C1331.97 708.546 1331.89 708.974 1331.73 709.374C1331.56 709.773 1331.32 710.136 1331.02 710.442C1330.72 710.748 1330.36 710.991 1329.96 711.157C1329.57 711.322 1329.14 711.408 1328.72 711.408C1328.29 711.408 1327.86 711.322 1327.47 711.157C1327.07 710.991 1326.71 710.748 1326.41 710.442C1326.11 710.136 1325.87 709.773 1325.71 709.374C1325.54 708.974 1325.46 708.546 1325.46 708.114Z" fill="white"/>
</g>
<path id="path10860_2" d="M823.398 476.452C840.265 463.683 941.884 425.804 979.834 424.953C1017.78 424.101 1071.76 436.87 1087.78 449.638C1103.8 462.406 1135.85 481.133 1148.5 480.282C1161.15 479.43 1120.67 440.275 1080.19 424.953C1039.71 409.631 884.539 428.783 868.516 433.89C852.493 438.997 835.205 459.427 823.398 476.452Z" fill="url(#paint33_linear_22_383)"/>
<path id="path10842_2" d="M501.673 441.977C564.078 498.656 616.364 522.843 697.322 522.843C766.149 522.843 789.178 502.893 810.853 489.213C822.856 481.637 832.253 467.939 845.746 451.766C834.375 455.592 779.139 491.03 702.382 493.05C605.365 495.604 522.756 454.745 501.673 441.977Z" fill="url(#paint34_radial_22_383)"/>
<path id="path10872_2" d="M1115.12 467.954C1141.36 486.613 1263.01 510.087 1339.93 492.03C1261.22 495.039 1190.78 488.978 1149.11 472.167C1140.93 472.479 1126.15 471.265 1115.12 467.954Z" fill="url(#paint35_linear_22_383)"/>
<path id="path5114_2" d="M1237.89 636.905C1226.08 640.31 1200.78 653.93 1196.57 654.781C1192.35 655.632 1174.64 646.269 1170.42 646.269C1168.31 646.269 1163.47 613.071 1156.82 602.006C1151.45 582.428 1151.45 566.254 1148.92 562.85C1146.39 559.445 1157.83 593.563 1189.82 598.175C1200.15 599.665 1238.73 633.501 1237.89 636.905Z" fill="url(#paint36_linear_22_383)"/>
<path id="path5116_2" d="M1295.85 686.56C1287.14 675.385 1266.78 650.366 1261.4 648.106C1256.03 645.845 1247.12 629.651 1245.91 622.274C1244.7 614.898 1256.75 638.779 1261.1 642.472C1265.46 646.165 1287.47 658.28 1287.87 660.739C1297.8 662.81 1297.37 665.979 1288.65 667.397C1289.25 670.138 1290.49 672.931 1293.23 674.368C1298.71 677.243 1299.3 688.511 1295.85 686.56Z" fill="url(#paint37_linear_22_383)"/>
<path id="path5136_2" d="M1159.26 511.974C1169.79 531.687 1169.65 541.391 1176.41 544.773C1183.17 548.154 1251.43 585.714 1259.73 595.389C1268.03 605.065 1286.63 618.62 1292.37 620.644C1298.11 622.668 1266.96 586.682 1268.27 577.144C1269.59 567.606 1243.24 557.822 1234.98 556.659C1226.71 555.496 1193.28 544.715 1189.05 540.473C1184.81 536.232 1159.26 511.974 1159.26 511.974Z" fill="url(#paint38_linear_22_383)"/>
<path id="path10959_2" d="M902.702 176.985C900.357 177.428 876.231 197.883 876.231 197.883C876.231 197.883 825.655 219.64 810.035 233.598C794.414 247.557 787.063 248.513 794.316 248.374C801.57 248.234 839.355 227.878 844.481 229.361C849.608 230.846 888.232 210.318 888.232 210.318C888.232 210.318 898.864 202.196 900.335 197.021C901.806 191.846 920.592 168.557 920.592 168.557L902.702 176.985Z" fill="url(#paint39_linear_22_383)"/>
<path id="path10961_2" d="M884.643 208.749C887.923 220.185 880.469 241.854 879.575 249.678C878.68 257.503 861.089 263.522 857.511 263.221C853.933 262.919 815.173 242.155 816.962 240.951C818.751 239.747 838.429 227.107 841.709 227.107C844.988 227.107 881.066 212.361 884.643 208.749Z" fill="url(#paint40_linear_22_383)"/>
<path id="path10963_2" d="M918.932 169.024C927.877 172.635 944.574 185.275 944.574 185.275C944.574 185.275 970.811 184.071 972.6 187.081C974.389 190.09 994.664 206.943 998.242 207.545C1001.82 208.147 934.436 249.678 923.106 247.873C911.776 246.067 877.19 271.347 872.419 270.745C867.649 270.143 887.327 215.37 884.346 211.157C881.364 206.943 894.483 199.119 896.868 196.711C899.254 194.304 918.932 169.024 918.932 169.024Z" fill="#352F9A"/>
<path id="path10965_2" d="M1281.19 18.5765C1281.19 18.5765 1295.8 8.31544 1262.41 3.50047C1245.29 7.05118 1239.06 9.59742 1224.54 12.8378C1211.7 22.0364 1197.21 56.7601 1173.35 59.1676C1180.7 67.8652 1181.33 71.059 1191.14 74.7434C1204.57 76.1947 1236.76 85.9095 1231.99 95.5399C1227.22 105.17 1281.19 18.5765 1281.19 18.5765Z" fill="url(#paint41_linear_22_383)"/>
<path id="path10967_2" d="M1195.27 56.7398C1204.85 56.4959 1196.44 58.1571 1212.52 67.0612C1188.03 150.323 1165.85 168.403 1144.52 177.776C1114.72 179.413 1080.85 167.76 1073.25 164.047C1087.49 148.63 1136.28 95.1028 1149.78 68.1729C1160.87 64.6981 1161.25 60.6951 1173.18 59.4914C1176.31 59.1752 1192.25 58.3379 1195.27 56.7398Z" fill="url(#paint42_linear_22_383)"/>
<path id="path10969_2" d="M1143.74 162.403C1115.12 160.597 1087.09 159.995 1073.97 163.004C1060.85 166.014 1016.73 187.081 1012.55 194.304C1008.38 201.526 905.813 232.825 901.042 241.854C896.272 250.882 847.97 261.717 833.659 264.124C819.347 266.532 998.242 303.849 1022.09 299.636C1045.95 295.423 1164.61 161.199 1143.74 162.403Z" fill="url(#paint43_linear_22_383)"/>
<path id="path10971_2" d="M978.99 251.76C962.124 250.909 938.511 252.612 931.765 254.314C925.018 256.017 886.225 270.487 881.166 273.041C876.106 275.594 919.958 286.66 925.861 286.66C931.765 286.66 978.99 251.76 978.99 251.76Z" fill="url(#paint44_linear_22_383)"/>
<path id="path10973_2" d="M1085.25 227.075C1043.93 227.075 989.953 238.992 972.243 250.058C954.534 261.124 910.681 282.404 915.741 286.66C920.801 290.917 1015.25 297.726 1026.22 293.47C1037.18 289.214 1085.25 227.075 1085.25 227.075Z" fill="url(#paint45_linear_22_383)"/>
<path id="path10975_2" d="M1395.03 68.749C1382.38 60.6625 1353.94 50.7042 1342.72 43.5947C1338.98 39.9406 1336.55 34.0086 1326.75 28.8481C1307.14 18.5271 1291.44 11.292 1281.74 7.46124C1274.99 7.46124 1273.31 -7.86029 1261.5 21.081C1249.69 50.0222 1244.74 67.5453 1234.23 73.3576C1226.88 70.8467 1208.58 60.0238 1198.36 59.0663C1188.13 58.1087 1179.42 67.0164 1171.41 65.7395C1162.13 85.3173 1158.62 136.846 1141.75 162.383C1131.63 162.383 1105.7 198.56 1083.46 225.586C1052.78 221.968 1048.56 254.314 997.543 292.619C1002.6 301.131 1395.03 257.719 1395.03 257.719L1395.03 68.749Z" fill="#35006F"/>
<path id="path10977_2" d="M1395.03 229.629C1260.1 202.39 1165.78 218.563 1111.8 249.207C1057.83 279.851 983.619 303.685 895.914 273.041C808.209 242.397 784.596 198.134 710.384 191.325C636.173 184.515 639.546 201.539 572.081 211.753C504.615 221.968 443.896 157.276 403.417 130.037C362.938 102.798 331.078 126.792 269.541 89.9878C259.632 98.0743 240.436 101.224 237.685 110.544C181.805 125.398 5.75835 195.297 -76.6637 181.11C-76.6637 198.219 -76.6637 358.999 -76.6637 358.999L1395.03 358.999L1395.03 229.629Z" fill="#2B0054"/>
<g id="path10989_2" filter="url(#filter33_f_22_383)">
<path d="M1104.98 25.3157C1104.98 25.7561 1105.07 26.1923 1105.23 26.5995C1105.4 27.0068 1105.64 27.377 1105.95 27.6888C1106.26 28.0007 1106.62 28.248 1107.03 28.4169C1107.43 28.5857 1107.86 28.6728 1108.3 28.6728C1108.74 28.6728 1109.17 28.5857 1109.57 28.4169C1109.97 28.248 1110.34 28.0007 1110.65 27.6888C1110.96 27.377 1111.2 27.0068 1111.37 26.5995C1111.53 26.1923 1111.62 25.7561 1111.62 25.3157C1111.62 24.8752 1111.53 24.439 1111.37 24.0318C1111.2 23.6245 1110.96 23.2543 1110.65 22.9425C1110.34 22.6306 1109.97 22.3833 1109.57 22.2144C1109.17 22.0456 1108.74 21.9585 1108.3 21.9585C1107.86 21.9585 1107.43 22.0456 1107.03 22.2144C1106.62 22.3833 1106.26 22.6306 1105.95 22.9425C1105.64 23.2543 1105.4 23.6245 1105.23 24.0318C1105.07 24.439 1104.98 24.8752 1104.98 25.3157Z" fill="white"/>
</g>
<g id="path10991_2" filter="url(#filter34_f_22_383)">
<path d="M1068.07 88.0349C1068.07 88.4251 1068.15 88.8116 1068.29 89.1725C1068.44 89.5334 1068.66 89.8614 1068.93 90.1377C1069.2 90.4141 1069.53 90.6333 1069.88 90.7829C1070.24 90.9325 1070.62 91.0097 1071.01 91.0097C1071.4 91.0097 1071.78 90.9325 1072.14 90.7829C1072.49 90.6333 1072.82 90.4141 1073.09 90.1377C1073.36 89.8614 1073.58 89.5334 1073.73 89.1725C1073.88 88.8116 1073.95 88.4251 1073.95 88.0349C1073.95 87.6446 1073.88 87.2581 1073.73 86.8972C1073.58 86.5363 1073.36 86.2083 1073.09 85.932C1072.82 85.6556 1072.49 85.4364 1072.14 85.2868C1071.78 85.1372 1071.4 85.0601 1071.01 85.0601C1070.62 85.0601 1070.24 85.1372 1069.88 85.2868C1069.53 85.4364 1069.2 85.6556 1068.93 85.932C1068.66 86.2083 1068.44 86.5363 1068.29 86.8972C1068.15 87.2581 1068.07 87.6446 1068.07 88.0349Z" fill="white"/>
</g>
<g id="path10993_2" filter="url(#filter35_f_22_383)">
<path d="M1008.58 11.2018C1008.58 11.6745 1008.67 12.1427 1008.85 12.5798C1009.03 13.0169 1009.29 13.4143 1009.62 13.749C1009.95 14.0837 1010.35 14.3493 1010.78 14.5305C1011.21 14.7117 1011.68 14.8051 1012.14 14.8051C1012.61 14.8051 1013.08 14.7117 1013.51 14.5305C1013.94 14.3493 1014.33 14.0837 1014.67 13.749C1015 13.4143 1015.26 13.0169 1015.44 12.5798C1015.62 12.1427 1015.71 11.6745 1015.71 11.2018C1015.71 10.729 1015.62 10.2609 1015.44 9.82375C1015.26 9.38662 1015 8.98929 1014.67 8.65455C1014.33 8.31982 1013.94 8.0543 1013.51 7.87309C1013.08 7.69189 1012.61 7.59842 1012.14 7.59842C1011.68 7.59842 1011.21 7.69189 1010.78 7.87309C1010.35 8.0543 1009.95 8.31982 1009.62 8.65455C1009.29 8.98929 1009.03 9.38663 1008.85 9.82375C1008.67 10.2609 1008.58 10.729 1008.58 11.2018Z" fill="white"/>
</g>
<g id="path10995_2" filter="url(#filter36_f_22_383)">
<path d="M984.062 184.176C984.061 184.514 984.127 184.849 984.254 185.162C984.382 185.474 984.569 185.759 984.806 185.998C985.043 186.238 985.324 186.428 985.633 186.557C985.943 186.687 986.274 186.754 986.609 186.754C986.944 186.754 987.276 186.687 987.585 186.557C987.895 186.428 988.176 186.238 988.413 185.998C988.649 185.759 988.837 185.474 988.964 185.162C989.092 184.849 989.157 184.514 989.156 184.176C989.157 183.838 989.092 183.503 988.964 183.19C988.837 182.878 988.649 182.593 988.413 182.354C988.176 182.114 987.895 181.924 987.585 181.795C987.276 181.665 986.944 181.598 986.609 181.598C986.274 181.598 985.943 181.665 985.633 181.795C985.324 181.924 985.043 182.114 984.806 182.354C984.569 182.593 984.382 182.878 984.254 183.19C984.127 183.503 984.061 183.838 984.062 184.176Z" fill="white"/>
</g>
<g id="path10997_2" filter="url(#filter37_f_22_383)">
<path d="M1009.94 133.105C1009.94 133.42 1010 133.732 1010.12 134.023C1010.24 134.315 1010.41 134.579 1010.63 134.802C1010.85 135.025 1011.11 135.202 1011.4 135.323C1011.69 135.444 1012 135.506 1012.31 135.506C1012.62 135.506 1012.93 135.444 1013.22 135.323C1013.51 135.202 1013.77 135.025 1013.99 134.802C1014.21 134.579 1014.39 134.315 1014.5 134.023C1014.62 133.732 1014.68 133.42 1014.68 133.105C1014.68 132.79 1014.62 132.479 1014.5 132.187C1014.39 131.896 1014.21 131.631 1013.99 131.408C1013.77 131.185 1013.51 131.008 1013.22 130.888C1012.93 130.767 1012.62 130.705 1012.31 130.705C1012 130.705 1011.69 130.767 1011.4 130.888C1011.11 131.008 1010.85 131.185 1010.63 131.408C1010.41 131.631 1010.24 131.896 1010.12 132.187C1010 132.479 1009.94 132.79 1009.94 133.105Z" fill="white"/>
</g>
<g id="path10999_2" filter="url(#filter38_f_22_383)">
<path d="M814.553 138.225C814.551 138.673 814.638 139.117 814.807 139.531C814.976 139.945 815.224 140.322 815.538 140.639C815.851 140.957 816.224 141.208 816.634 141.38C817.044 141.552 817.484 141.64 817.928 141.64C818.372 141.64 818.811 141.552 819.221 141.38C819.631 141.208 820.004 140.957 820.317 140.639C820.631 140.322 820.879 139.945 821.048 139.531C821.217 139.117 821.304 138.673 821.302 138.225C821.304 137.777 821.217 137.333 821.048 136.919C820.879 136.504 820.631 136.128 820.317 135.81C820.004 135.493 819.631 135.241 819.221 135.07C818.811 134.898 818.372 134.809 817.928 134.809C817.484 134.809 817.044 134.898 816.634 135.07C816.224 135.241 815.851 135.493 815.538 135.81C815.224 136.128 814.976 136.504 814.807 136.919C814.638 137.333 814.551 137.777 814.553 138.225Z" fill="white"/>
</g>
<g id="path11001_2" filter="url(#filter39_f_22_383)">
<path d="M809.395 145.755C809.394 146.164 809.473 146.569 809.627 146.947C809.782 147.326 810.008 147.669 810.294 147.959C810.581 148.249 810.921 148.478 811.295 148.635C811.669 148.792 812.07 148.873 812.476 148.873C812.881 148.873 813.282 148.792 813.656 148.635C814.031 148.478 814.371 148.249 814.657 147.959C814.943 147.669 815.17 147.326 815.324 146.947C815.479 146.569 815.557 146.164 815.556 145.755C815.557 145.346 815.479 144.941 815.324 144.563C815.17 144.184 814.943 143.841 814.657 143.551C814.371 143.261 814.031 143.032 813.656 142.875C813.282 142.718 812.881 142.637 812.476 142.637C812.07 142.637 811.669 142.718 811.295 142.875C810.921 143.032 810.581 143.261 810.294 143.551C810.008 143.841 809.782 144.184 809.627 144.563C809.473 144.941 809.394 145.346 809.395 145.755Z" fill="white"/>
</g>
<g id="path11003_2" filter="url(#filter40_f_22_383)">
<path d="M699.781 112.919C699.78 113.32 699.858 113.718 700.009 114.089C700.161 114.46 700.383 114.797 700.664 115.081C700.945 115.366 701.278 115.591 701.645 115.745C702.013 115.899 702.406 115.978 702.804 115.978C703.201 115.978 703.595 115.899 703.962 115.745C704.329 115.591 704.663 115.366 704.944 115.081C705.225 114.797 705.447 114.46 705.599 114.089C705.75 113.718 705.827 113.32 705.826 112.919C705.827 112.518 705.75 112.12 705.599 111.749C705.447 111.378 705.225 111.041 704.944 110.757C704.663 110.473 704.329 110.247 703.962 110.093C703.595 109.94 703.201 109.86 702.804 109.86C702.406 109.86 702.013 109.94 701.645 110.093C701.278 110.247 700.945 110.473 700.664 110.757C700.383 111.041 700.161 111.378 700.009 111.749C699.858 112.12 699.78 112.518 699.781 112.919Z" fill="white"/>
</g>
<g id="path11007_2" filter="url(#filter41_f_22_383)">
<path d="M693.947 50.8986C693.946 51.2914 694.022 51.6804 694.171 52.0436C694.319 52.4069 694.536 52.737 694.811 53.0151C695.086 53.2933 695.413 53.5139 695.772 53.6645C696.131 53.815 696.517 53.8927 696.906 53.8927C697.295 53.8927 697.68 53.815 698.04 53.6645C698.399 53.5139 698.726 53.2933 699 53.0151C699.275 52.737 699.493 52.4069 699.641 52.0436C699.789 51.6804 699.865 51.2914 699.864 50.8986C699.865 50.5058 699.789 50.1168 699.641 49.7536C699.493 49.3904 699.275 49.0603 699 48.7821C698.726 48.504 698.399 48.2834 698.04 48.1328C697.68 47.9823 697.295 47.9046 696.906 47.9046C696.517 47.9046 696.131 47.9823 695.772 48.1328C695.413 48.2834 695.086 48.504 694.811 48.7821C694.536 49.0603 694.319 49.3904 694.171 49.7536C694.022 50.1168 693.946 50.5058 693.947 50.8986Z" fill="white"/>
</g>
<g id="path11009_2" filter="url(#filter42_f_22_383)">
<path d="M730.356 161.666C730.355 162.025 730.425 162.38 730.56 162.712C730.695 163.044 730.894 163.346 731.145 163.6C731.396 163.854 731.694 164.055 732.023 164.193C732.351 164.33 732.703 164.401 733.058 164.401C733.414 164.401 733.766 164.33 734.094 164.193C734.422 164.055 734.721 163.854 734.972 163.6C735.223 163.346 735.422 163.044 735.557 162.712C735.692 162.38 735.761 162.025 735.76 161.666C735.761 161.308 735.692 160.952 735.557 160.621C735.422 160.289 735.223 159.987 734.972 159.733C734.721 159.479 734.422 159.278 734.094 159.14C733.766 159.003 733.414 158.932 733.058 158.932C732.703 158.932 732.351 159.003 732.023 159.14C731.694 159.278 731.396 159.479 731.145 159.733C730.894 159.987 730.695 160.289 730.56 160.621C730.425 160.952 730.355 161.308 730.356 161.666Z" fill="white"/>
</g>
<g id="path11047_2" filter="url(#filter43_f_22_383)">
<path d="M1325.46 3.49912C1325.46 3.93125 1325.54 4.35919 1325.71 4.75877C1325.87 5.15834 1326.11 5.52154 1326.41 5.82752C1326.71 6.1335 1327.07 6.3762 1327.47 6.54184C1327.86 6.70748 1328.29 6.79292 1328.72 6.79292C1329.14 6.79292 1329.57 6.70748 1329.96 6.54184C1330.36 6.3762 1330.72 6.1335 1331.02 5.82752C1331.32 5.52154 1331.56 5.15834 1331.73 4.75877C1331.89 4.35919 1331.97 3.93125 1331.97 3.49912C1331.97 3.06699 1331.89 2.63905 1331.73 2.23948C1331.56 1.83991 1331.32 1.4767 1331.02 1.17073C1330.72 0.864749 1330.36 0.62204 1329.96 0.4564C1329.57 0.29076 1329.14 0.205323 1328.72 0.205323C1328.29 0.205323 1327.86 0.29076 1327.47 0.4564C1327.07 0.622041 1326.71 0.864749 1326.41 1.17073C1326.11 1.4767 1325.87 1.83991 1325.71 2.23948C1325.54 2.63905 1325.46 3.06699 1325.46 3.49912Z" fill="white"/>
</g>
<path id="path11055_2" d="M823.398 235.161C840.265 247.93 941.884 285.809 979.834 286.66C1017.78 287.512 1071.76 274.744 1087.78 261.975C1103.8 249.207 1135.85 230.48 1148.5 231.331C1161.15 232.183 1120.67 271.338 1080.19 286.66C1039.71 301.982 884.539 282.83 868.516 277.723C852.493 272.616 835.205 252.186 823.398 235.161Z" fill="url(#paint46_linear_22_383)"/>
<path id="path11057_2" d="M501.673 269.636C564.078 212.957 616.364 188.771 697.322 188.77C766.149 188.77 789.178 208.72 810.853 222.4C822.856 229.976 832.253 243.674 845.746 259.847C834.375 256.021 779.139 220.583 702.382 218.563C605.365 216.009 522.756 256.868 501.673 269.636Z" fill="url(#paint47_radial_22_383)"/>
<path id="path11059_2" d="M1115.12 243.659C1141.36 225 1263.01 201.526 1339.93 219.583C1261.22 216.573 1190.78 222.635 1149.11 239.445C1140.93 239.134 1126.15 240.348 1115.12 243.659Z" fill="url(#paint48_linear_22_383)"/>
<path id="path11061_2" d="M1237.89 74.7078C1226.08 71.303 1200.78 57.6834 1196.57 56.8319C1192.35 55.981 1174.64 65.3444 1170.42 65.3444C1168.31 65.3444 1163.47 98.5419 1156.82 109.608C1151.45 129.186 1151.45 145.359 1148.92 148.764C1146.39 152.169 1157.83 118.051 1189.82 113.438C1200.15 111.948 1238.73 78.1126 1237.89 74.7078Z" fill="url(#paint49_linear_22_383)"/>
<path id="path11063_2" d="M1295.85 25.053C1287.14 36.2286 1266.78 61.2474 1261.4 63.5072C1256.03 65.7679 1247.12 81.9625 1245.91 89.339C1244.7 96.7155 1256.75 72.8345 1261.1 69.141C1265.46 65.4485 1287.47 53.3334 1287.87 50.8744C1297.8 48.8029 1297.37 45.6339 1288.65 44.2156C1289.25 41.4753 1290.49 38.6826 1293.23 37.2449C1298.71 34.3699 1299.3 23.1021 1295.85 25.053Z" fill="url(#paint50_linear_22_383)"/>
<path id="path11069_2" d="M1159.26 199.639C1169.79 179.927 1169.65 170.222 1176.41 166.841C1183.17 163.459 1251.43 125.899 1259.73 116.224C1268.03 106.548 1286.63 92.9928 1292.37 90.9693C1298.11 88.9457 1266.96 124.931 1268.27 134.469C1269.59 144.007 1243.24 153.791 1234.98 154.954C1226.71 156.118 1193.28 166.898 1189.05 171.14C1184.81 175.381 1159.26 199.639 1159.26 199.639Z" fill="url(#paint51_linear_22_383)"/>
</g>
</g>
</g>
</g>
<defs>
<filter id="filter0_f_22_383" x="283.934" y="21.5862" width="7.17078" height="7.23193" filterUnits="userSpaceOnUse" color-interpolation-filters="sRGB">
<feFlood flood-opacity="0" result="BackgroundImageFix"/>
<feBlend mode="normal" in="SourceGraphic" in2="BackgroundImageFix" result="shape"/>
<feGaussianBlur stdDeviation="0.129425" result="effect1_foregroundBlur_22_383"/>
</filter>
<filter id="filter1_f_22_383" x="321.737" y="84.7178" width="6.35413" height="6.40833" filterUnits="userSpaceOnUse" color-interpolation-filters="sRGB">
<feFlood flood-opacity="0" result="BackgroundImageFix"/>
<feBlend mode="normal" in="SourceGraphic" in2="BackgroundImageFix" result="shape"/>
<feGaussianBlur stdDeviation="0.114686" result="effect1_foregroundBlur_22_383"/>
</filter>
<filter id="filter2_f_22_383" x="380.099" y="7.20794" width="7.69679" height="7.7624" filterUnits="userSpaceOnUse" color-interpolation-filters="sRGB">
<feFlood flood-opacity="0" result="BackgroundImageFix"/>
<feBlend mode="normal" in="SourceGraphic" in2="BackgroundImageFix" result="shape"/>
<feGaussianBlur stdDeviation="0.138918" result="effect1_foregroundBlur_22_383"/>
</filter>
<filter id="filter3_f_22_383" x="406.803" y="181.286" width="5.5059" height="5.55284" filterUnits="userSpaceOnUse" color-interpolation-filters="sRGB">
<feFlood flood-opacity="0" result="BackgroundImageFix"/>
<feBlend mode="normal" in="SourceGraphic" in2="BackgroundImageFix" result="shape"/>
<feGaussianBlur stdDeviation="0.0993757" result="effect1_foregroundBlur_22_383"/>
</filter>
<filter id="filter4_f_22_383" x="381.217" y="130.407" width="5.12777" height="5.17147" filterUnits="userSpaceOnUse" color-interpolation-filters="sRGB">
<feFlood flood-opacity="0" result="BackgroundImageFix"/>
<feBlend mode="normal" in="SourceGraphic" in2="BackgroundImageFix" result="shape"/>
<feGaussianBlur stdDeviation="0.0925499" result="effect1_foregroundBlur_22_383"/>
</filter>
<filter id="filter5_f_22_383" x="575.071" y="134.433" width="7.29589" height="7.35809" filterUnits="userSpaceOnUse" color-interpolation-filters="sRGB">
<feFlood flood-opacity="0" result="BackgroundImageFix"/>
<feBlend mode="normal" in="SourceGraphic" in2="BackgroundImageFix" result="shape"/>
<feGaussianBlur stdDeviation="0.131682" result="effect1_foregroundBlur_22_383"/>
</filter>
<filter id="filter6_f_22_383" x="580.856" y="142.284" width="6.65976" height="6.71659" filterUnits="userSpaceOnUse" color-interpolation-filters="sRGB">
<feFlood flood-opacity="0" result="BackgroundImageFix"/>
<feBlend mode="normal" in="SourceGraphic" in2="BackgroundImageFix" result="shape"/>
<feGaussianBlur stdDeviation="0.120202" result="effect1_foregroundBlur_22_383"/>
</filter>
<filter id="filter7_f_22_383" x="690.904" y="109.511" width="6.53372" height="6.58944" filterUnits="userSpaceOnUse" color-interpolation-filters="sRGB">
<feFlood flood-opacity="0" result="BackgroundImageFix"/>
<feBlend mode="normal" in="SourceGraphic" in2="BackgroundImageFix" result="shape"/>
<feGaussianBlur stdDeviation="0.117927" result="effect1_foregroundBlur_22_383"/>
</filter>
<filter id="filter8_f_22_383" x="696.888" y="47.5609" width="6.3953" height="6.44981" filterUnits="userSpaceOnUse" color-interpolation-filters="sRGB">
<feFlood flood-opacity="0" result="BackgroundImageFix"/>
<feBlend mode="normal" in="SourceGraphic" in2="BackgroundImageFix" result="shape"/>
<feGaussianBlur stdDeviation="0.115427" result="effect1_foregroundBlur_22_383"/>
</filter>
<filter id="filter9_f_22_383" x="660.909" y="158.608" width="5.84153" height="5.89134" filterUnits="userSpaceOnUse" color-interpolation-filters="sRGB">
<feFlood flood-opacity="0" result="BackgroundImageFix"/>
<feBlend mode="normal" in="SourceGraphic" in2="BackgroundImageFix" result="shape"/>
<feGaussianBlur stdDeviation="0.105433" result="effect1_foregroundBlur_22_383"/>
</filter>
<filter id="filter10_f_22_383" x="62.9547" y="-0.161622" width="7.03552" height="7.09552" filterUnits="userSpaceOnUse" color-interpolation-filters="sRGB">
<feFlood flood-opacity="0" result="BackgroundImageFix"/>
<feBlend mode="normal" in="SourceGraphic" in2="BackgroundImageFix" result="shape"/>
<feGaussianBlur stdDeviation="0.126984" result="effect1_foregroundBlur_22_383"/>
</filter>
<filter id="filter11_f_22_383" x="283.934" y="682.568" width="7.17078" height="7.23193" filterUnits="userSpaceOnUse" color-interpolation-filters="sRGB">
<feFlood flood-opacity="0" result="BackgroundImageFix"/>
<feBlend mode="normal" in="SourceGraphic" in2="BackgroundImageFix" result="shape"/>
<feGaussianBlur stdDeviation="0.129425" result="effect1_foregroundBlur_22_383"/>
</filter>
<filter id="filter12_f_22_383" x="321.737" y="620.261" width="6.35413" height="6.40833" filterUnits="userSpaceOnUse" color-interpolation-filters="sRGB">
<feFlood flood-opacity="0" result="BackgroundImageFix"/>
<feBlend mode="normal" in="SourceGraphic" in2="BackgroundImageFix" result="shape"/>
<feGaussianBlur stdDeviation="0.114686" result="effect1_foregroundBlur_22_383"/>
</filter>
<filter id="filter13_f_22_383" x="380.099" y="696.417" width="7.69679" height="7.76234" filterUnits="userSpaceOnUse" color-interpolation-filters="sRGB">
<feFlood flood-opacity="0" result="BackgroundImageFix"/>
<feBlend mode="normal" in="SourceGraphic" in2="BackgroundImageFix" result="shape"/>
<feGaussianBlur stdDeviation="0.138918" result="effect1_foregroundBlur_22_383"/>
</filter>
<filter id="filter14_f_22_383" x="406.803" y="524.548" width="5.5059" height="5.55284" filterUnits="userSpaceOnUse" color-interpolation-filters="sRGB">
<feFlood flood-opacity="0" result="BackgroundImageFix"/>
<feBlend mode="normal" in="SourceGraphic" in2="BackgroundImageFix" result="shape"/>
<feGaussianBlur stdDeviation="0.0993757" result="effect1_foregroundBlur_22_383"/>
</filter>
<filter id="filter15_f_22_383" x="381.217" y="575.809" width="5.12777" height="5.17147" filterUnits="userSpaceOnUse" color-interpolation-filters="sRGB">
<feFlood flood-opacity="0" result="BackgroundImageFix"/>
<feBlend mode="normal" in="SourceGraphic" in2="BackgroundImageFix" result="shape"/>
<feGaussianBlur stdDeviation="0.0925499" result="effect1_foregroundBlur_22_383"/>
</filter>
<filter id="filter16_f_22_383" x="575.071" y="569.596" width="7.29589" height="7.35803" filterUnits="userSpaceOnUse" color-interpolation-filters="sRGB">
<feFlood flood-opacity="0" result="BackgroundImageFix"/>
<feBlend mode="normal" in="SourceGraphic" in2="BackgroundImageFix" result="shape"/>
<feGaussianBlur stdDeviation="0.131682" result="effect1_foregroundBlur_22_383"/>
</filter>
<filter id="filter17_f_22_383" x="580.856" y="562.387" width="6.65976" height="6.71659" filterUnits="userSpaceOnUse" color-interpolation-filters="sRGB">
<feFlood flood-opacity="0" result="BackgroundImageFix"/>
<feBlend mode="normal" in="SourceGraphic" in2="BackgroundImageFix" result="shape"/>
<feGaussianBlur stdDeviation="0.120202" result="effect1_foregroundBlur_22_383"/>
</filter>
<filter id="filter18_f_22_383" x="690.904" y="595.286" width="6.53372" height="6.58951" filterUnits="userSpaceOnUse" color-interpolation-filters="sRGB">
<feFlood flood-opacity="0" result="BackgroundImageFix"/>
<feBlend mode="normal" in="SourceGraphic" in2="BackgroundImageFix" result="shape"/>
<feGaussianBlur stdDeviation="0.117927" result="effect1_foregroundBlur_22_383"/>
</filter>
<filter id="filter19_f_22_383" x="696.888" y="657.377" width="6.3953" height="6.44975" filterUnits="userSpaceOnUse" color-interpolation-filters="sRGB">
<feFlood flood-opacity="0" result="BackgroundImageFix"/>
<feBlend mode="normal" in="SourceGraphic" in2="BackgroundImageFix" result="shape"/>
<feGaussianBlur stdDeviation="0.115427" result="effect1_foregroundBlur_22_383"/>
</filter>
<filter id="filter20_f_22_383" x="660.909" y="546.888" width="5.84153" height="5.89134" filterUnits="userSpaceOnUse" color-interpolation-filters="sRGB">
<feFlood flood-opacity="0" result="BackgroundImageFix"/>
<feBlend mode="normal" in="SourceGraphic" in2="BackgroundImageFix" result="shape"/>
<feGaussianBlur stdDeviation="0.105433" result="effect1_foregroundBlur_22_383"/>
</filter>
<filter id="filter21_f_22_383" x="62.9547" y="704.453" width="7.03552" height="7.09558" filterUnits="userSpaceOnUse" color-interpolation-filters="sRGB">
<feFlood flood-opacity="0" result="BackgroundImageFix"/>
<feBlend mode="normal" in="SourceGraphic" in2="BackgroundImageFix" result="shape"/>
<feGaussianBlur stdDeviation="0.126984" result="effect1_foregroundBlur_22_383"/>
</filter>
<filter id="filter22_f_22_383" x="1104.72" y="682.682" width="7.15186" height="7.23193" filterUnits="userSpaceOnUse" color-interpolation-filters="sRGB">
<feFlood flood-opacity="0" result="BackgroundImageFix"/>
<feBlend mode="normal" in="SourceGraphic" in2="BackgroundImageFix" result="shape"/>
<feGaussianBlur stdDeviation="0.129425" result="effect1_foregroundBlur_22_383"/>
</filter>
<filter id="filter23_f_22_383" x="1067.84" y="620.374" width="6.3374" height="6.40833" filterUnits="userSpaceOnUse" color-interpolation-filters="sRGB">
<feFlood flood-opacity="0" result="BackgroundImageFix"/>
<feBlend mode="normal" in="SourceGraphic" in2="BackgroundImageFix" result="shape"/>
<feGaussianBlur stdDeviation="0.114686" result="effect1_foregroundBlur_22_383"/>
</filter>
<filter id="filter24_f_22_383" x="1008.31" y="696.53" width="7.6764" height="7.76234" filterUnits="userSpaceOnUse" color-interpolation-filters="sRGB">
<feFlood flood-opacity="0" result="BackgroundImageFix"/>
<feBlend mode="normal" in="SourceGraphic" in2="BackgroundImageFix" result="shape"/>
<feGaussianBlur stdDeviation="0.138918" result="effect1_foregroundBlur_22_383"/>
</filter>
<filter id="filter25_f_22_383" x="983.864" y="524.661" width="5.49137" height="5.55284" filterUnits="userSpaceOnUse" color-interpolation-filters="sRGB">
<feFlood flood-opacity="0" result="BackgroundImageFix"/>
<feBlend mode="normal" in="SourceGraphic" in2="BackgroundImageFix" result="shape"/>
<feGaussianBlur stdDeviation="0.0993757" result="effect1_foregroundBlur_22_383"/>
</filter>
<filter id="filter26_f_22_383" x="1009.75" y="575.922" width="5.11422" height="5.17147" filterUnits="userSpaceOnUse" color-interpolation-filters="sRGB">
<feFlood flood-opacity="0" result="BackgroundImageFix"/>
<feBlend mode="normal" in="SourceGraphic" in2="BackgroundImageFix" result="shape"/>
<feGaussianBlur stdDeviation="0.0925499" result="effect1_foregroundBlur_22_383"/>
</filter>
<filter id="filter27_f_22_383" x="814.289" y="569.709" width="7.27661" height="7.35803" filterUnits="userSpaceOnUse" color-interpolation-filters="sRGB">
<feFlood flood-opacity="0" result="BackgroundImageFix"/>
<feBlend mode="normal" in="SourceGraphic" in2="BackgroundImageFix" result="shape"/>
<feGaussianBlur stdDeviation="0.131682" result="effect1_foregroundBlur_22_383"/>
</filter>
<filter id="filter28_f_22_383" x="809.155" y="562.5" width="6.64218" height="6.71659" filterUnits="userSpaceOnUse" color-interpolation-filters="sRGB">
<feFlood flood-opacity="0" result="BackgroundImageFix"/>
<feBlend mode="normal" in="SourceGraphic" in2="BackgroundImageFix" result="shape"/>
<feGaussianBlur stdDeviation="0.120202" result="effect1_foregroundBlur_22_383"/>
</filter>
<filter id="filter29_f_22_383" x="699.546" y="595.399" width="6.51651" height="6.58951" filterUnits="userSpaceOnUse" color-interpolation-filters="sRGB">
<feFlood flood-opacity="0" result="BackgroundImageFix"/>
<feBlend mode="normal" in="SourceGraphic" in2="BackgroundImageFix" result="shape"/>
<feGaussianBlur stdDeviation="0.117927" result="effect1_foregroundBlur_22_383"/>
</filter>
<filter id="filter30_f_22_383" x="693.717" y="657.489" width="6.37834" height="6.44975" filterUnits="userSpaceOnUse" color-interpolation-filters="sRGB">
<feFlood flood-opacity="0" result="BackgroundImageFix"/>
<feBlend mode="normal" in="SourceGraphic" in2="BackgroundImageFix" result="shape"/>
<feGaussianBlur stdDeviation="0.115427" result="effect1_foregroundBlur_22_383"/>
</filter>
<filter id="filter31_f_22_383" x="730.145" y="547.001" width="5.82603" height="5.89134" filterUnits="userSpaceOnUse" color-interpolation-filters="sRGB">
<feFlood flood-opacity="0" result="BackgroundImageFix"/>
<feBlend mode="normal" in="SourceGraphic" in2="BackgroundImageFix" result="shape"/>
<feGaussianBlur stdDeviation="0.105433" result="effect1_foregroundBlur_22_383"/>
</filter>
<filter id="filter32_f_22_383" x="1325.21" y="704.566" width="7.01697" height="7.09558" filterUnits="userSpaceOnUse" color-interpolation-filters="sRGB">
<feFlood flood-opacity="0" result="BackgroundImageFix"/>
<feBlend mode="normal" in="SourceGraphic" in2="BackgroundImageFix" result="shape"/>
<feGaussianBlur stdDeviation="0.126984" result="effect1_foregroundBlur_22_383"/>
</filter>
<filter id="filter33_f_22_383" x="1104.72" y="21.6997" width="7.15186" height="7.23193" filterUnits="userSpaceOnUse" color-interpolation-filters="sRGB">
<feFlood flood-opacity="0" result="BackgroundImageFix"/>
<feBlend mode="normal" in="SourceGraphic" in2="BackgroundImageFix" result="shape"/>
<feGaussianBlur stdDeviation="0.129425" result="effect1_foregroundBlur_22_383"/>
</filter>
<filter id="filter34_f_22_383" x="1067.84" y="84.8307" width="6.3374" height="6.40833" filterUnits="userSpaceOnUse" color-interpolation-filters="sRGB">
<feFlood flood-opacity="0" result="BackgroundImageFix"/>
<feBlend mode="normal" in="SourceGraphic" in2="BackgroundImageFix" result="shape"/>
<feGaussianBlur stdDeviation="0.114686" result="effect1_foregroundBlur_22_383"/>
</filter>
<filter id="filter35_f_22_383" x="1008.31" y="7.32058" width="7.6764" height="7.7624" filterUnits="userSpaceOnUse" color-interpolation-filters="sRGB">
<feFlood flood-opacity="0" result="BackgroundImageFix"/>
<feBlend mode="normal" in="SourceGraphic" in2="BackgroundImageFix" result="shape"/>
<feGaussianBlur stdDeviation="0.138918" result="effect1_foregroundBlur_22_383"/>
</filter>
<filter id="filter36_f_22_383" x="983.864" y="181.4" width="5.49137" height="5.55284" filterUnits="userSpaceOnUse" color-interpolation-filters="sRGB">
<feFlood flood-opacity="0" result="BackgroundImageFix"/>
<feBlend mode="normal" in="SourceGraphic" in2="BackgroundImageFix" result="shape"/>
<feGaussianBlur stdDeviation="0.0993757" result="effect1_foregroundBlur_22_383"/>
</filter>
<filter id="filter37_f_22_383" x="1009.75" y="130.52" width="5.11422" height="5.17147" filterUnits="userSpaceOnUse" color-interpolation-filters="sRGB">
<feFlood flood-opacity="0" result="BackgroundImageFix"/>
<feBlend mode="normal" in="SourceGraphic" in2="BackgroundImageFix" result="shape"/>
<feGaussianBlur stdDeviation="0.0925499" result="effect1_foregroundBlur_22_383"/>
</filter>
<filter id="filter38_f_22_383" x="814.289" y="134.546" width="7.27661" height="7.35809" filterUnits="userSpaceOnUse" color-interpolation-filters="sRGB">
<feFlood flood-opacity="0" result="BackgroundImageFix"/>
<feBlend mode="normal" in="SourceGraphic" in2="BackgroundImageFix" result="shape"/>
<feGaussianBlur stdDeviation="0.131682" result="effect1_foregroundBlur_22_383"/>
</filter>
<filter id="filter39_f_22_383" x="809.155" y="142.397" width="6.64218" height="6.71659" filterUnits="userSpaceOnUse" color-interpolation-filters="sRGB">
<feFlood flood-opacity="0" result="BackgroundImageFix"/>
<feBlend mode="normal" in="SourceGraphic" in2="BackgroundImageFix" result="shape"/>
<feGaussianBlur stdDeviation="0.120202" result="effect1_foregroundBlur_22_383"/>
</filter>
<filter id="filter40_f_22_383" x="699.546" y="109.624" width="6.51651" height="6.58944" filterUnits="userSpaceOnUse" color-interpolation-filters="sRGB">
<feFlood flood-opacity="0" result="BackgroundImageFix"/>
<feBlend mode="normal" in="SourceGraphic" in2="BackgroundImageFix" result="shape"/>
<feGaussianBlur stdDeviation="0.117927" result="effect1_foregroundBlur_22_383"/>
</filter>
<filter id="filter41_f_22_383" x="693.717" y="47.6737" width="6.37834" height="6.44981" filterUnits="userSpaceOnUse" color-interpolation-filters="sRGB">
<feFlood flood-opacity="0" result="BackgroundImageFix"/>
<feBlend mode="normal" in="SourceGraphic" in2="BackgroundImageFix" result="shape"/>
<feGaussianBlur stdDeviation="0.115427" result="effect1_foregroundBlur_22_383"/>
</filter>
<filter id="filter42_f_22_383" x="730.145" y="158.721" width="5.82603" height="5.89134" filterUnits="userSpaceOnUse" color-interpolation-filters="sRGB">
<feFlood flood-opacity="0" result="BackgroundImageFix"/>
<feBlend mode="normal" in="SourceGraphic" in2="BackgroundImageFix" result="shape"/>
<feGaussianBlur stdDeviation="0.105433" result="effect1_foregroundBlur_22_383"/>
</filter>
<filter id="filter43_f_22_383" x="1325.21" y="-0.0486457" width="7.01697" height="7.09552" filterUnits="userSpaceOnUse" color-interpolation-filters="sRGB">
<feFlood flood-opacity="0" result="BackgroundImageFix"/>
<feBlend mode="normal" in="SourceGraphic" in2="BackgroundImageFix" result="shape"/>
<feGaussianBlur stdDeviation="0.126984" result="effect1_foregroundBlur_22_383"/>
</filter>
<linearGradient id="paint0_linear_22_383" x1="519.417" y1="178.697" x2="452.255" y2="250.491" gradientUnits="userSpaceOnUse">
<stop stop-color="#616CC0"/>
<stop offset="1" stop-color="#2C008B"/>
</linearGradient>
<linearGradient id="paint1_linear_22_383" x1="551.647" y1="201.87" x2="479.519" y2="258.897" gradientUnits="userSpaceOnUse">
<stop stop-color="#616CC0"/>
<stop offset="1" stop-color="#2C008B"/>
</linearGradient>
<linearGradient id="paint2_linear_22_383" x1="201.796" y1="4.26468" x2="167.877" y2="210.664" gradientUnits="userSpaceOnUse">
<stop stop-color="#7B6C9F"/>
<stop offset="1" stop-color="#2C0064"/>
</linearGradient>
<linearGradient id="paint3_linear_22_383" x1="372.438" y1="148.647" x2="288.464" y2="295.44" gradientUnits="userSpaceOnUse">
<stop stop-color="#7B6C9F"/>
<stop offset="1" stop-color="#2C0064"/>
</linearGradient>
<linearGradient id="paint4_linear_22_383" x1="385.268" y1="179.137" x2="329.363" y2="288.39" gradientUnits="userSpaceOnUse">
<stop stop-color="#7B6C9F"/>
<stop offset="1" stop-color="#2C0064"/>
</linearGradient>
<linearGradient id="paint5_linear_22_383" x1="484.854" y1="255.365" x2="431.535" y2="327.388" gradientUnits="userSpaceOnUse">
<stop stop-color="#7B6C9F"/>
<stop offset="1" stop-color="#2C0064"/>
</linearGradient>
<linearGradient id="paint6_linear_22_383" x1="396.054" y1="228.487" x2="357.157" y2="304.893" gradientUnits="userSpaceOnUse">
<stop stop-color="#7B6C9F"/>
<stop offset="1" stop-color="#2C0064"/>
</linearGradient>
<linearGradient id="paint7_linear_22_383" x1="433.94" y1="246.753" x2="454.234" y2="334.505" gradientUnits="userSpaceOnUse">
<stop stop-color="#7B6C9F"/>
<stop offset="1" stop-color="#2C0064"/>
</linearGradient>
<radialGradient id="paint8_radial_22_383" cx="0" cy="0" r="1" gradientUnits="userSpaceOnUse" gradientTransform="translate(710.423 286.83) rotate(1.34179) scale(186.885 85.6082)">
<stop stop-color="#2C0064"/>
<stop offset="0.813725" stop-color="#533681"/>
<stop offset="1" stop-color="#7B6C9F"/>
</radialGradient>
<linearGradient id="paint9_linear_22_383" x1="148.517" y1="202.781" x2="132.778" y2="267.137" gradientUnits="userSpaceOnUse">
<stop stop-color="#7B6C9F"/>
<stop offset="1" stop-color="#2C0064"/>
</linearGradient>
<linearGradient id="paint10_linear_22_383" x1="135.551" y1="121.579" x2="232.443" y2="70.1761" gradientUnits="userSpaceOnUse">
<stop stop-color="#2C0064"/>
<stop offset="0.813725" stop-color="#533681"/>
<stop offset="1" stop-color="#7B6C9F"/>
</linearGradient>
<linearGradient id="paint11_linear_22_383" x1="85.4238" y1="83.4891" x2="125.848" y2="43.1941" gradientUnits="userSpaceOnUse">
<stop stop-color="#2C0064"/>
<stop offset="0.813725" stop-color="#533681"/>
<stop offset="1" stop-color="#7B6C9F"/>
</linearGradient>
<linearGradient id="paint12_linear_22_383" x1="176.781" y1="119.432" x2="118.439" y2="168.045" gradientUnits="userSpaceOnUse">
<stop stop-color="#7B6C9F"/>
<stop offset="1" stop-color="#2C0064"/>
</linearGradient>
<linearGradient id="paint13_linear_22_383" x1="519.417" y1="532.69" x2="452.255" y2="460.896" gradientUnits="userSpaceOnUse">
<stop stop-color="#616CC0"/>
<stop offset="1" stop-color="#2C008B"/>
</linearGradient>
<linearGradient id="paint14_linear_22_383" x1="551.647" y1="509.517" x2="479.519" y2="452.49" gradientUnits="userSpaceOnUse">
<stop stop-color="#616CC0"/>
<stop offset="1" stop-color="#2C008B"/>
</linearGradient>
<linearGradient id="paint15_linear_22_383" x1="201.796" y1="707.123" x2="167.877" y2="500.723" gradientUnits="userSpaceOnUse">
<stop stop-color="#7B6C9F"/>
<stop offset="1" stop-color="#2C0064"/>
</linearGradient>
<linearGradient id="paint16_linear_22_383" x1="372.438" y1="562.74" x2="288.464" y2="415.947" gradientUnits="userSpaceOnUse">
<stop stop-color="#7B6C9F"/>
<stop offset="1" stop-color="#2C0064"/>
</linearGradient>
<linearGradient id="paint17_linear_22_383" x1="385.268" y1="532.249" x2="329.363" y2="422.997" gradientUnits="userSpaceOnUse">
<stop stop-color="#7B6C9F"/>
<stop offset="1" stop-color="#2C0064"/>
</linearGradient>
<linearGradient id="paint18_linear_22_383" x1="484.854" y1="456.022" x2="431.535" y2="383.999" gradientUnits="userSpaceOnUse">
<stop stop-color="#7B6C9F"/>
<stop offset="1" stop-color="#2C0064"/>
</linearGradient>
<linearGradient id="paint19_linear_22_383" x1="396.054" y1="482.9" x2="357.157" y2="406.494" gradientUnits="userSpaceOnUse">
<stop stop-color="#7B6C9F"/>
<stop offset="1" stop-color="#2C0064"/>
</linearGradient>
<linearGradient id="paint20_linear_22_383" x1="433.94" y1="464.634" x2="454.234" y2="376.882" gradientUnits="userSpaceOnUse">
<stop stop-color="#7B6C9F"/>
<stop offset="1" stop-color="#2C0064"/>
</linearGradient>
<radialGradient id="paint21_radial_22_383" cx="0" cy="0" r="1" gradientUnits="userSpaceOnUse" gradientTransform="translate(710.423 424.557) rotate(-1.34179) scale(186.885 85.6082)">
<stop stop-color="#2C0064"/>
<stop offset="0.813725" stop-color="#533681"/>
<stop offset="1" stop-color="#7B6C9F"/>
</radialGradient>
<linearGradient id="paint22_linear_22_383" x1="148.517" y1="508.606" x2="132.778" y2="444.25" gradientUnits="userSpaceOnUse">
<stop stop-color="#7B6C9F"/>
<stop offset="1" stop-color="#2C0064"/>
</linearGradient>
<linearGradient id="paint23_linear_22_383" x1="135.551" y1="589.807" x2="232.443" y2="641.21" gradientUnits="userSpaceOnUse">
<stop stop-color="#2C0064"/>
<stop offset="0.813725" stop-color="#533681"/>
<stop offset="1" stop-color="#7B6C9F"/>
</linearGradient>
<linearGradient id="paint24_linear_22_383" x1="85.4238" y1="627.898" x2="125.848" y2="668.193" gradientUnits="userSpaceOnUse">
<stop stop-color="#2C0064"/>
<stop offset="0.813725" stop-color="#533681"/>
<stop offset="1" stop-color="#7B6C9F"/>
</linearGradient>
<linearGradient id="paint25_linear_22_383" x1="176.781" y1="591.954" x2="118.439" y2="543.342" gradientUnits="userSpaceOnUse">
<stop stop-color="#7B6C9F"/>
<stop offset="1" stop-color="#2C0064"/>
</linearGradient>
<linearGradient id="paint26_linear_22_383" x1="877.061" y1="532.803" x2="944.235" y2="461.2" gradientUnits="userSpaceOnUse">
<stop stop-color="#616CC0"/>
<stop offset="1" stop-color="#2C008B"/>
</linearGradient>
<linearGradient id="paint27_linear_22_383" x1="844.922" y1="509.63" x2="917.002" y2="452.803" gradientUnits="userSpaceOnUse">
<stop stop-color="#616CC0"/>
<stop offset="1" stop-color="#2C008B"/>
</linearGradient>
<linearGradient id="paint28_linear_22_383" x1="1193.78" y1="707.235" x2="1227.79" y2="500.867" gradientUnits="userSpaceOnUse">
<stop stop-color="#7B6C9F"/>
<stop offset="1" stop-color="#2C0064"/>
</linearGradient>
<linearGradient id="paint29_linear_22_383" x1="1023.62" y1="562.853" x2="1107.72" y2="416.267" gradientUnits="userSpaceOnUse">
<stop stop-color="#7B6C9F"/>
<stop offset="1" stop-color="#2C0064"/>
</linearGradient>
<linearGradient id="paint30_linear_22_383" x1="1010.83" y1="532.363" x2="1066.83" y2="423.239" gradientUnits="userSpaceOnUse">
<stop stop-color="#7B6C9F"/>
<stop offset="1" stop-color="#2C0064"/>
</linearGradient>
<linearGradient id="paint31_linear_22_383" x1="911.525" y1="456.135" x2="964.888" y2="384.257" gradientUnits="userSpaceOnUse">
<stop stop-color="#7B6C9F"/>
<stop offset="1" stop-color="#2C0064"/>
</linearGradient>
<linearGradient id="paint32_linear_22_383" x1="1000.07" y1="483.013" x2="1039.03" y2="406.697" gradientUnits="userSpaceOnUse">
<stop stop-color="#7B6C9F"/>
<stop offset="1" stop-color="#2C0064"/>
</linearGradient>
<linearGradient id="paint33_linear_22_383" x1="962.295" y1="464.747" x2="941.949" y2="377.021" gradientUnits="userSpaceOnUse">
<stop stop-color="#7B6C9F"/>
<stop offset="1" stop-color="#2C0064"/>
</linearGradient>
<radialGradient id="paint34_radial_22_383" cx="0" cy="0" r="1" gradientUnits="userSpaceOnUse" gradientTransform="translate(686.598 424.67) rotate(-178.654) scale(186.354 85.6081)">
<stop stop-color="#2C0064"/>
<stop offset="0.813725" stop-color="#533681"/>
<stop offset="1" stop-color="#7B6C9F"/>
</radialGradient>
<linearGradient id="paint35_linear_22_383" x1="1246.91" y1="508.719" x2="1262.68" y2="444.384" gradientUnits="userSpaceOnUse">
<stop stop-color="#7B6C9F"/>
<stop offset="1" stop-color="#2C0064"/>
</linearGradient>
<linearGradient id="paint36_linear_22_383" x1="1259.83" y1="589.921" x2="1163.1" y2="641.096" gradientUnits="userSpaceOnUse">
<stop stop-color="#2C0064"/>
<stop offset="0.813725" stop-color="#533681"/>
<stop offset="1" stop-color="#7B6C9F"/>
</linearGradient>
<linearGradient id="paint37_linear_22_383" x1="1309.82" y1="628.011" x2="1269.4" y2="668.191" gradientUnits="userSpaceOnUse">
<stop stop-color="#2C0064"/>
<stop offset="0.813725" stop-color="#533681"/>
<stop offset="1" stop-color="#7B6C9F"/>
</linearGradient>
<linearGradient id="paint38_linear_22_383" x1="1218.72" y1="592.068" x2="1277.03" y2="543.619" gradientUnits="userSpaceOnUse">
<stop stop-color="#7B6C9F"/>
<stop offset="1" stop-color="#2C0064"/>
</linearGradient>
<linearGradient id="paint39_linear_22_383" x1="877.061" y1="178.81" x2="944.235" y2="250.413" gradientUnits="userSpaceOnUse">
<stop stop-color="#616CC0"/>
<stop offset="1" stop-color="#2C008B"/>
</linearGradient>
<linearGradient id="paint40_linear_22_383" x1="844.922" y1="201.984" x2="917.002" y2="258.81" gradientUnits="userSpaceOnUse">
<stop stop-color="#616CC0"/>
<stop offset="1" stop-color="#2C008B"/>
</linearGradient>
<linearGradient id="paint41_linear_22_383" x1="1193.78" y1="4.37715" x2="1227.79" y2="210.746" gradientUnits="userSpaceOnUse">
<stop stop-color="#7B6C9F"/>
<stop offset="1" stop-color="#2C0064"/>
</linearGradient>
<linearGradient id="paint42_linear_22_383" x1="1023.62" y1="148.76" x2="1107.72" y2="295.347" gradientUnits="userSpaceOnUse">
<stop stop-color="#7B6C9F"/>
<stop offset="1" stop-color="#2C0064"/>
</linearGradient>
<linearGradient id="paint43_linear_22_383" x1="1010.83" y1="179.251" x2="1066.83" y2="288.374" gradientUnits="userSpaceOnUse">
<stop stop-color="#7B6C9F"/>
<stop offset="1" stop-color="#2C0064"/>
</linearGradient>
<linearGradient id="paint44_linear_22_383" x1="911.525" y1="255.478" x2="964.888" y2="327.356" gradientUnits="userSpaceOnUse">
<stop stop-color="#7B6C9F"/>
<stop offset="1" stop-color="#2C0064"/>
</linearGradient>
<linearGradient id="paint45_linear_22_383" x1="1000.07" y1="228.6" x2="1039.03" y2="304.917" gradientUnits="userSpaceOnUse">
<stop stop-color="#7B6C9F"/>
<stop offset="1" stop-color="#2C0064"/>
</linearGradient>
<linearGradient id="paint46_linear_22_383" x1="962.295" y1="246.866" x2="941.949" y2="334.592" gradientUnits="userSpaceOnUse">
<stop stop-color="#7B6C9F"/>
<stop offset="1" stop-color="#2C0064"/>
</linearGradient>
<radialGradient id="paint47_radial_22_383" cx="0" cy="0" r="1" gradientUnits="userSpaceOnUse" gradientTransform="translate(686.598 286.943) rotate(178.654) scale(186.354 85.6081)">
<stop stop-color="#2C0064"/>
<stop offset="0.813725" stop-color="#533681"/>
<stop offset="1" stop-color="#7B6C9F"/>
</radialGradient>
<linearGradient id="paint48_linear_22_383" x1="1246.91" y1="202.894" x2="1262.68" y2="267.229" gradientUnits="userSpaceOnUse">
<stop stop-color="#7B6C9F"/>
<stop offset="1" stop-color="#2C0064"/>
</linearGradient>
<linearGradient id="paint49_linear_22_383" x1="1259.83" y1="121.692" x2="1163.1" y2="70.5177" gradientUnits="userSpaceOnUse">
<stop stop-color="#2C0064"/>
<stop offset="0.813725" stop-color="#533681"/>
<stop offset="1" stop-color="#7B6C9F"/>
</linearGradient>
<linearGradient id="paint50_linear_22_383" x1="1309.82" y1="83.6021" x2="1269.39" y2="43.4223" gradientUnits="userSpaceOnUse">
<stop stop-color="#2C0064"/>
<stop offset="0.813725" stop-color="#533681"/>
<stop offset="1" stop-color="#7B6C9F"/>
</linearGradient>
<linearGradient id="paint51_linear_22_383" x1="1218.72" y1="119.546" x2="1277.03" y2="167.994" gradientUnits="userSpaceOnUse">
<stop stop-color="#7B6C9F"/>
<stop offset="1" stop-color="#2C0064"/>
</linearGradient>
<clipPath id="clip0_22_383">
<rect width="1395" height="718" fill="white"/>
</clipPath>
<clipPath id="clip1_22_383">
<rect width="703" height="929" fill="white" transform="translate(0 -70.5)"/>
</clipPath>
<clipPath id="clip2_22_383">
<rect width="701" height="929" fill="white" transform="translate(1395 782) rotate(180)"/>
</clipPath>
</defs>
</svg>
