<svg width="1115" height="703" viewBox="0 0 1115 703" fill="none" xmlns="http://www.w3.org/2000/svg">
<g clip-path="url(#clip0_17_893)">
<path d="M372.91 187.193C374.687 187.528 392.962 203.007 392.962 203.007C392.962 203.007 431.272 219.471 443.105 230.034C454.937 240.597 460.506 241.321 455.011 241.215C449.517 241.109 420.895 225.705 417.012 226.827C413.129 227.951 383.871 212.417 383.871 212.417C383.871 212.417 375.817 206.271 374.703 202.355C373.589 198.439 359.359 180.815 359.359 180.815L372.91 187.193Z" fill="url(#paint0_linear_17_893)"/>
<path d="M386.59 211.23C384.105 219.884 389.752 236.281 390.429 242.202C391.107 248.123 404.432 252.678 407.142 252.45C409.852 252.221 439.213 236.509 437.858 235.598C436.503 234.687 421.597 225.122 419.112 225.122C416.628 225.122 389.3 213.963 386.59 211.23Z" fill="url(#paint1_linear_17_893)"/>
<path d="M360.616 181.169C353.841 183.902 341.193 193.466 341.193 193.466C341.193 193.466 321.318 192.555 319.963 194.833C318.608 197.11 303.25 209.863 300.54 210.319C297.83 210.774 348.872 242.202 357.454 240.836C366.037 239.469 392.236 258.599 395.849 258.144C399.463 257.688 384.557 216.24 386.815 213.052C389.074 209.863 379.136 203.942 377.329 202.12C375.523 200.298 360.616 181.169 360.616 181.169Z" fill="#352F9A"/>
<path d="M86.2099 67.3214C86.2099 67.3214 75.1411 59.5566 100.436 55.913C113.403 58.5999 118.121 60.5267 129.124 62.9788C138.849 69.9396 149.827 96.2159 167.895 98.0378C162.333 104.619 161.853 107.036 154.421 109.824C144.252 110.923 119.866 118.274 123.48 125.562C127.093 132.849 86.2099 67.3214 86.2099 67.3214Z" fill="url(#paint2_linear_17_893)"/>
<path d="M151.297 96.2003C144.04 96.0157 150.408 97.2728 138.223 104.011C156.779 167.018 173.58 180.699 189.732 187.792C212.309 189.031 237.968 180.213 243.724 177.403C232.937 165.736 195.98 125.231 185.753 104.852C177.352 102.222 177.064 99.1934 168.03 98.2825C165.657 98.0432 153.583 97.4096 151.297 96.2003Z" fill="url(#paint3_linear_17_893)"/>
<path d="M190.325 176.158C212.007 174.792 233.237 174.337 243.174 176.614C253.112 178.891 286.538 194.833 289.699 200.298C292.861 205.764 370.554 229.449 374.168 236.281C377.781 243.113 414.369 251.312 425.21 253.134C436.051 254.955 300.54 283.195 282.472 280.006C264.404 276.818 174.515 175.247 190.325 176.158Z" fill="url(#paint4_linear_17_893)"/>
<path d="M315.123 243.778C327.899 243.134 345.785 244.422 350.896 245.71C356.006 246.999 385.391 257.949 389.224 259.881C393.057 261.814 359.839 270.187 355.367 270.187C350.896 270.187 315.123 243.778 315.123 243.778Z" fill="url(#paint5_linear_17_893)"/>
<path d="M234.634 225.098C265.935 225.098 306.819 234.116 320.234 242.489C333.648 250.863 366.866 266.967 363.033 270.187C359.201 273.408 287.655 278.561 279.35 275.34C271.046 272.12 234.634 225.098 234.634 225.098Z" fill="url(#paint6_linear_17_893)"/>
<path d="M-0.0231323 105.288C9.55891 99.1687 31.102 91.633 39.604 86.253C42.4349 83.4878 44.2749 78.9989 51.7001 75.0939C66.5505 67.2837 78.4465 61.8087 85.7927 58.9099C90.9031 58.9099 92.1808 47.3155 101.124 69.2162C110.067 91.1168 113.823 104.377 121.785 108.775C127.347 106.875 141.209 98.6854 148.954 97.9608C156.7 97.2361 163.298 103.977 169.366 103.011C176.393 117.826 179.058 156.819 191.834 176.143C199.5 176.143 219.143 203.519 235.991 223.971C259.228 221.233 262.422 245.71 301.069 274.697C297.237 281.138 -0.0231323 248.287 -0.0231323 248.287V105.288Z" fill="#35006F"/>
<path d="M-0.0231323 227.03C102.185 206.418 173.635 218.657 214.519 241.846C255.402 265.034 311.617 283.07 378.052 259.881C444.488 236.693 462.374 203.197 518.589 198.044C574.804 192.891 572.248 205.774 623.353 213.503C674.457 221.233 720.451 172.278 751.113 151.666C781.776 131.054 805.91 149.211 852.523 121.36C860.029 127.479 874.57 129.863 876.654 136.916C918.982 148.156 1052.34 201.051 1114.77 190.314C1114.77 203.262 1114.77 324.928 1114.77 324.928H-0.0231323V227.03Z" fill="#2B0054"/>
<path d="M780.815 150.75C779.008 154.394 741.065 198.119 726.611 208.14C713.822 207.396 708.095 200.656 680.692 199.831C713.215 181.611 751.003 142.551 762.747 138.908C769.856 137.871 784.123 144.32 780.815 150.75Z" fill="url(#paint7_linear_17_893)"/>
<g filter="url(#filter0_f_17_893)">
<path d="M296.888 0.377947C296.889 0.655848 296.835 0.931059 296.73 1.18802C296.625 1.44499 296.471 1.67856 296.276 1.87534C296.082 2.07211 295.85 2.2282 295.596 2.33472C295.341 2.44124 295.068 2.49619 294.793 2.49619C294.517 2.49619 294.244 2.44124 293.99 2.33472C293.735 2.2282 293.504 2.07211 293.309 1.87534C293.115 1.67856 292.961 1.44499 292.856 1.18802C292.751 0.931059 292.697 0.655848 292.698 0.377947C292.697 0.100045 292.751 -0.175166 292.856 -0.43213C292.961 -0.689095 293.115 -0.922671 293.309 -1.11944C293.504 -1.31622 293.735 -1.4723 293.99 -1.57883C294.244 -1.68535 294.517 -1.7403 294.793 -1.7403C295.068 -1.7403 295.341 -1.68535 295.596 -1.57883C295.85 -1.4723 296.082 -1.31622 296.276 -1.11944C296.471 -0.922671 296.625 -0.689095 296.73 -0.43213C296.835 -0.175166 296.889 0.100045 296.888 0.377947Z" fill="white"/>
</g>
<g filter="url(#filter1_f_17_893)">
<path d="M236.516 0.868819C236.516 1.1477 236.462 1.42388 236.357 1.68175C236.252 1.93963 236.097 2.17403 235.902 2.37149C235.707 2.56896 235.475 2.7256 235.219 2.8325C234.964 2.9394 234.69 2.99453 234.413 2.99453C234.137 2.99453 233.863 2.9394 233.607 2.8325C233.352 2.7256 233.12 2.56896 232.925 2.37149C232.729 2.17403 232.574 1.93963 232.469 1.68175C232.364 1.42388 232.31 1.1477 232.311 0.868819C232.31 0.589937 232.364 0.313755 232.469 0.0558835C232.574 -0.201988 232.729 -0.436388 232.925 -0.633856C233.12 -0.831324 233.352 -0.98796 233.607 -1.09486C233.863 -1.20176 234.137 -1.2569 234.413 -1.2569C234.69 -1.2569 234.964 -1.20176 235.219 -1.09486C235.475 -0.98796 235.707 -0.831324 235.902 -0.633856C236.097 -0.436388 236.252 -0.201988 236.357 0.0558835C236.462 0.313755 236.516 0.589937 236.516 0.868819Z" fill="white"/>
</g>
<g filter="url(#filter2_f_17_893)">
<path d="M289.875 25.5236C289.876 25.7912 289.824 26.0561 289.723 26.3034C289.622 26.5508 289.474 26.7756 289.287 26.9651C289.099 27.1545 288.877 27.3047 288.632 27.4073C288.387 27.5098 288.124 27.5627 287.859 27.5627C287.593 27.5627 287.331 27.5098 287.086 27.4073C286.841 27.3047 286.618 27.1545 286.431 26.9651C286.243 26.7756 286.095 26.5508 285.994 26.3034C285.893 26.0561 285.841 25.7912 285.842 25.5236C285.841 25.2561 285.893 24.9912 285.994 24.7438C286.095 24.4965 286.243 24.2716 286.431 24.0822C286.618 23.8928 286.841 23.7425 287.086 23.64C287.331 23.5374 287.593 23.4846 287.859 23.4846C288.124 23.4846 288.387 23.5374 288.632 23.64C288.877 23.7425 289.099 23.8928 289.287 24.0822C289.474 24.2716 289.622 24.4965 289.723 24.7438C289.824 24.9912 289.876 25.2561 289.875 25.5236Z" fill="white"/>
</g>
<g filter="url(#filter3_f_17_893)">
<path d="M219.686 72.4205C219.686 72.7538 219.622 73.0838 219.496 73.392C219.37 73.7002 219.185 73.9803 218.952 74.2163C218.719 74.4523 218.441 74.6395 218.136 74.7673C217.831 74.895 217.503 74.9609 217.173 74.9609C216.842 74.9609 216.515 74.895 216.21 74.7673C215.905 74.6395 215.627 74.4523 215.394 74.2163C215.16 73.9803 214.975 73.7002 214.85 73.392C214.724 73.0838 214.659 72.7538 214.66 72.4205C214.659 72.0872 214.724 71.7571 214.85 71.449C214.975 71.1408 215.16 70.8607 215.394 70.6247C215.627 70.3887 215.905 70.2015 216.21 70.0737C216.515 69.946 216.842 69.8801 217.173 69.8801C217.503 69.8801 217.831 69.946 218.136 70.0737C218.441 70.2015 218.719 70.3887 218.952 70.6247C219.185 70.8607 219.37 71.1408 219.496 71.449C219.622 71.7571 219.686 72.0872 219.686 72.4205Z" fill="white"/>
</g>
<g filter="url(#filter4_f_17_893)">
<path d="M247.645 119.882C247.646 120.178 247.589 120.47 247.477 120.743C247.366 121.016 247.202 121.264 246.995 121.474C246.788 121.683 246.543 121.849 246.272 121.962C246.001 122.075 245.712 122.133 245.419 122.133C245.126 122.133 244.836 122.075 244.565 121.962C244.295 121.849 244.049 121.683 243.842 121.474C243.635 121.264 243.471 121.016 243.36 120.743C243.248 120.47 243.191 120.178 243.192 119.882C243.191 119.587 243.248 119.294 243.36 119.021C243.471 118.748 243.635 118.5 243.842 118.291C244.049 118.082 244.295 117.916 244.565 117.803C244.836 117.689 245.126 117.631 245.419 117.631C245.712 117.631 246.001 117.689 246.272 117.803C246.543 117.916 246.788 118.082 246.995 118.291C247.202 118.5 247.366 118.748 247.477 119.021C247.589 119.294 247.646 119.587 247.645 119.882Z" fill="white"/>
</g>
<g filter="url(#filter5_f_17_893)">
<path d="M292.706 61.7408C292.707 62.0985 292.637 62.4528 292.502 62.7836C292.367 63.1144 292.169 63.4151 291.918 63.6684C291.668 63.9217 291.37 64.1226 291.042 64.2597C290.715 64.3968 290.363 64.4676 290.009 64.4676C289.654 64.4676 289.303 64.3968 288.975 64.2597C288.647 64.1226 288.35 63.9217 288.099 63.6684C287.849 63.4151 287.65 63.1144 287.515 62.7836C287.38 62.4528 287.311 62.0985 287.312 61.7408C287.311 61.3831 287.38 61.0288 287.515 60.698C287.65 60.3672 287.849 60.0665 288.099 59.8132C288.35 59.5599 288.647 59.359 288.975 59.2219C289.303 59.0848 289.654 59.014 290.009 59.014C290.363 59.014 290.715 59.0848 291.042 59.2219C291.37 59.359 291.668 59.5599 291.918 59.8132C292.169 60.0665 292.367 60.3672 292.502 60.698C292.637 61.0288 292.707 61.3831 292.706 61.7408Z" fill="white"/>
</g>
<g filter="url(#filter6_f_17_893)">
<path d="M311.281 192.635C311.281 192.891 311.232 193.144 311.135 193.381C311.039 193.617 310.897 193.832 310.718 194.014C310.538 194.195 310.325 194.338 310.091 194.437C309.857 194.535 309.605 194.585 309.352 194.585C309.098 194.585 308.846 194.535 308.612 194.437C308.378 194.338 308.165 194.195 307.985 194.014C307.806 193.832 307.664 193.617 307.568 193.381C307.471 193.144 307.422 192.891 307.422 192.635C307.422 192.379 307.471 192.125 307.568 191.889C307.664 191.652 307.806 191.437 307.985 191.256C308.165 191.075 308.378 190.931 308.612 190.833C308.846 190.735 309.098 190.684 309.352 190.684C309.605 190.684 309.857 190.735 310.091 190.833C310.325 190.931 310.538 191.075 310.718 191.256C310.897 191.437 311.039 191.652 311.135 191.889C311.232 192.125 311.281 192.379 311.281 192.635Z" fill="white"/>
</g>
<g filter="url(#filter7_f_17_893)">
<path d="M291.68 153.988C291.68 154.227 291.634 154.463 291.544 154.683C291.454 154.903 291.322 155.104 291.155 155.272C290.988 155.441 290.79 155.575 290.571 155.666C290.353 155.758 290.119 155.805 289.883 155.805C289.646 155.805 289.412 155.758 289.194 155.666C288.976 155.575 288.778 155.441 288.611 155.272C288.444 155.104 288.311 154.903 288.221 154.683C288.131 154.463 288.085 154.227 288.086 153.988C288.085 153.75 288.131 153.514 288.221 153.294C288.311 153.073 288.444 152.873 288.611 152.704C288.778 152.535 288.976 152.402 289.194 152.31C289.412 152.219 289.646 152.172 289.883 152.172C290.119 152.172 290.353 152.219 290.571 152.31C290.79 152.402 290.988 152.535 291.155 152.704C291.322 152.873 291.454 153.073 291.544 153.294C291.634 153.514 291.68 153.75 291.68 153.988Z" fill="white"/>
</g>
<g filter="url(#filter8_f_17_893)">
<path d="M439.683 157.862C439.684 158.201 439.618 158.537 439.49 158.851C439.362 159.164 439.174 159.449 438.936 159.689C438.699 159.929 438.417 160.12 438.106 160.25C437.795 160.38 437.462 160.447 437.126 160.447C436.79 160.447 436.457 160.38 436.146 160.25C435.836 160.12 435.554 159.929 435.316 159.689C435.079 159.449 434.89 159.164 434.762 158.851C434.634 158.537 434.569 158.201 434.57 157.862C434.569 157.523 434.634 157.187 434.762 156.874C434.89 156.56 435.079 156.275 435.316 156.035C435.554 155.795 435.836 155.604 436.146 155.474C436.457 155.345 436.79 155.277 437.126 155.277C437.462 155.277 437.795 155.345 438.106 155.474C438.417 155.604 438.699 155.795 438.936 156.035C439.174 156.275 439.362 156.56 439.49 156.874C439.618 157.187 439.684 157.523 439.683 157.862Z" fill="white"/>
</g>
<g filter="url(#filter9_f_17_893)">
<path d="M443.589 163.56C443.59 163.87 443.53 164.177 443.413 164.463C443.297 164.749 443.125 165.009 442.908 165.228C442.691 165.448 442.434 165.621 442.15 165.74C441.867 165.859 441.563 165.92 441.256 165.92C440.949 165.92 440.645 165.859 440.361 165.74C440.078 165.621 439.82 165.448 439.604 165.228C439.387 165.009 439.215 164.749 439.098 164.463C438.981 164.177 438.921 163.87 438.922 163.56C438.921 163.251 438.981 162.944 439.098 162.658C439.215 162.372 439.387 162.112 439.604 161.893C439.82 161.673 440.078 161.5 440.361 161.381C440.645 161.262 440.949 161.201 441.256 161.201C441.563 161.201 441.867 161.262 442.15 161.381C442.434 161.5 442.691 161.673 442.908 161.893C443.125 162.112 443.297 162.372 443.413 162.658C443.53 162.944 443.59 163.251 443.589 163.56Z" fill="white"/>
</g>
<g filter="url(#filter10_f_17_893)">
<path d="M526.621 138.713C526.621 139.016 526.563 139.317 526.448 139.598C526.333 139.879 526.165 140.134 525.952 140.349C525.74 140.564 525.487 140.735 525.209 140.851C524.93 140.967 524.632 141.028 524.331 141.028C524.03 141.028 523.732 140.967 523.454 140.851C523.176 140.735 522.923 140.564 522.71 140.349C522.497 140.134 522.329 139.879 522.214 139.598C522.1 139.317 522.041 139.016 522.042 138.713C522.041 138.409 522.1 138.108 522.214 137.828C522.329 137.547 522.497 137.292 522.71 137.077C522.923 136.861 523.176 136.691 523.454 136.575C523.732 136.458 524.03 136.398 524.331 136.398C524.632 136.398 524.93 136.458 525.209 136.575C525.487 136.691 525.74 136.861 525.952 137.077C526.165 137.292 526.333 137.547 526.448 137.828C526.563 138.108 526.621 138.409 526.621 138.713Z" fill="white"/>
</g>
<g filter="url(#filter11_f_17_893)">
<path d="M555.452 152.402C555.453 152.707 555.394 153.009 555.279 153.292C555.164 153.574 554.994 153.83 554.781 154.047C554.567 154.263 554.313 154.434 554.033 154.551C553.754 154.668 553.454 154.729 553.151 154.729C552.848 154.729 552.549 154.668 552.269 154.551C551.99 154.434 551.735 154.263 551.522 154.047C551.308 153.83 551.138 153.574 551.023 153.292C550.908 153.009 550.849 152.707 550.85 152.402C550.849 152.097 550.908 151.794 551.023 151.512C551.138 151.23 551.308 150.973 551.522 150.757C551.735 150.541 551.99 150.369 552.269 150.252C552.549 150.135 552.848 150.075 553.151 150.075C553.454 150.075 553.754 150.135 554.033 150.252C554.313 150.369 554.567 150.541 554.781 150.757C554.994 150.973 555.164 151.23 555.279 151.512C555.394 151.794 555.453 152.097 555.452 152.402Z" fill="white"/>
</g>
<g filter="url(#filter12_f_17_893)">
<path d="M531.04 91.7803C531.04 92.0776 530.983 92.3719 530.871 92.6468C530.758 92.9216 530.594 93.1715 530.385 93.3819C530.177 93.5924 529.93 93.7593 529.658 93.8733C529.385 93.9872 529.094 94.046 528.799 94.046C528.504 94.046 528.212 93.9872 527.94 93.8733C527.668 93.7593 527.42 93.5924 527.212 93.3819C527.004 93.1715 526.839 92.9216 526.727 92.6468C526.614 92.3719 526.557 92.0776 526.558 91.7803C526.557 91.4831 526.614 91.1887 526.727 90.9139C526.839 90.639 527.004 90.3892 527.212 90.1787C527.42 89.9682 527.668 89.8013 527.94 89.6874C528.212 89.5734 528.504 89.5146 528.799 89.5146C529.094 89.5146 529.385 89.5734 529.658 89.6874C529.93 89.8013 530.177 89.9682 530.385 90.1787C530.594 90.3892 530.758 90.639 530.871 90.9139C530.983 91.1887 531.04 91.4831 531.04 91.7803Z" fill="white"/>
</g>
<g filter="url(#filter13_f_17_893)">
<path d="M503.46 175.601C503.461 175.873 503.409 176.141 503.306 176.393C503.204 176.644 503.053 176.872 502.863 177.064C502.673 177.256 502.447 177.409 502.198 177.513C501.949 177.617 501.683 177.671 501.414 177.671C501.144 177.671 500.878 177.617 500.629 177.513C500.38 177.409 500.154 177.256 499.964 177.064C499.774 176.872 499.623 176.644 499.521 176.393C499.418 176.141 499.366 175.873 499.367 175.601C499.366 175.33 499.418 175.061 499.521 174.81C499.623 174.559 499.774 174.33 499.964 174.138C500.154 173.946 500.38 173.793 500.629 173.689C500.878 173.585 501.144 173.532 501.414 173.532C501.683 173.532 501.949 173.585 502.198 173.689C502.447 173.793 502.673 173.946 502.863 174.138C503.053 174.33 503.204 174.559 503.306 174.81C503.409 175.061 503.461 175.33 503.46 175.601Z" fill="white"/>
</g>
<g filter="url(#filter14_f_17_893)">
<path d="M666.918 130.422C666.919 130.76 666.854 131.093 666.726 131.405C666.599 131.717 666.412 132 666.176 132.239C665.94 132.478 665.659 132.667 665.35 132.796C665.042 132.926 664.711 132.992 664.376 132.992C664.042 132.992 663.711 132.926 663.402 132.796C663.093 132.667 662.813 132.478 662.577 132.239C662.34 132 662.153 131.717 662.026 131.405C661.899 131.093 661.834 130.76 661.834 130.422C661.834 130.085 661.899 129.751 662.026 129.44C662.153 129.128 662.34 128.845 662.577 128.606C662.813 128.367 663.093 128.178 663.402 128.048C663.711 127.919 664.042 127.853 664.376 127.853C664.711 127.853 665.042 127.919 665.35 128.048C665.659 128.178 665.94 128.367 666.176 128.606C666.412 128.845 666.599 129.128 666.726 129.44C666.854 129.751 666.919 130.085 666.918 130.422Z" fill="white"/>
</g>
<g filter="url(#filter15_f_17_893)">
<path d="M865.773 40.0574C865.774 40.3502 865.717 40.6401 865.606 40.9109C865.496 41.1816 865.334 41.4277 865.128 41.6351C864.923 41.8424 864.68 42.0068 864.412 42.1191C864.143 42.2313 863.856 42.2892 863.565 42.2892C863.275 42.2892 862.988 42.2313 862.719 42.1191C862.451 42.0068 862.208 41.8424 862.002 41.6351C861.797 41.4277 861.635 41.1816 861.524 40.9109C861.414 40.6401 861.357 40.3502 861.358 40.0574C861.357 39.7645 861.414 39.4746 861.524 39.2038C861.635 38.9331 861.797 38.687 862.002 38.4796C862.208 38.2723 862.451 38.1079 862.719 37.9956C862.988 37.8834 863.275 37.8255 863.565 37.8255C863.856 37.8255 864.143 37.8834 864.412 37.9956C864.68 38.1079 864.923 38.2723 865.128 38.4796C865.334 38.687 865.496 38.9331 865.606 39.2038C865.717 39.4746 865.774 39.7645 865.773 40.0574Z" fill="white"/>
</g>
<g filter="url(#filter16_f_17_893)">
<path d="M1003.56 101.707C1003.56 102.015 1003.5 102.32 1003.38 102.605C1003.27 102.89 1003.09 103.149 1002.88 103.368C1002.66 103.586 1002.41 103.759 1002.12 103.877C1001.84 103.995 1001.54 104.056 1001.23 104.056C1000.93 104.056 1000.63 103.995 1000.34 103.877C1000.06 103.759 999.804 103.586 999.589 103.368C999.373 103.149 999.202 102.89 999.085 102.605C998.969 102.32 998.91 102.015 998.91 101.707C998.91 101.399 998.969 101.094 999.085 100.809C999.202 100.524 999.373 100.265 999.589 100.047C999.804 99.8284 1000.06 99.6553 1000.34 99.5371C1000.63 99.419 1000.93 99.3581 1001.23 99.3581C1001.54 99.3581 1001.84 99.419 1002.12 99.5371C1002.41 99.6553 1002.66 99.8284 1002.88 100.047C1003.09 100.265 1003.27 100.524 1003.38 100.809C1003.5 101.094 1003.56 101.399 1003.56 101.707Z" fill="white"/>
</g>
<g filter="url(#filter17_f_17_893)">
<path d="M967.541 46.7064C967.542 46.9717 967.491 47.2345 967.39 47.4798C967.29 47.7252 967.143 47.9482 966.957 48.1361C966.771 48.324 966.551 48.473 966.308 48.5747C966.065 48.6764 965.804 48.7289 965.541 48.7289C965.278 48.7289 965.017 48.6764 964.774 48.5747C964.531 48.473 964.31 48.324 964.125 48.1361C963.939 47.9482 963.791 47.7252 963.691 47.4798C963.591 47.2345 963.54 46.9717 963.541 46.7064C963.54 46.441 963.591 46.1783 963.691 45.9329C963.791 45.6876 963.939 45.4646 964.125 45.2767C964.31 45.0888 964.531 44.9398 964.774 44.8381C965.017 44.7364 965.278 44.6839 965.541 44.6839C965.804 44.6839 966.065 44.7364 966.308 44.8381C966.551 44.9398 966.771 45.0888 966.957 45.2767C967.143 45.4646 967.29 45.6876 967.39 45.9329C967.491 46.1783 967.542 46.441 967.541 46.7064Z" fill="white"/>
</g>
<g filter="url(#filter18_f_17_893)">
<path d="M729.024 25.8416C729.025 26.1834 728.959 26.5219 728.83 26.8379C728.701 27.154 728.511 27.4413 728.272 27.6833C728.032 27.9253 727.748 28.1173 727.435 28.2483C727.122 28.3793 726.786 28.4469 726.447 28.4469C726.108 28.4469 725.773 28.3793 725.46 28.2483C725.147 28.1173 724.862 27.9253 724.623 27.6833C724.383 27.4413 724.194 27.154 724.065 26.8379C723.936 26.5219 723.87 26.1834 723.87 25.8416C723.87 25.4998 723.936 25.1613 724.065 24.8452C724.194 24.5292 724.383 24.2419 724.623 23.9999C724.862 23.7579 725.147 23.5659 725.46 23.4349C725.773 23.3038 726.108 23.2363 726.447 23.2363C726.786 23.2363 727.122 23.3038 727.435 23.4349C727.748 23.5659 728.032 23.7579 728.272 23.9999C728.511 24.2419 728.701 24.5292 728.83 24.8452C728.959 25.1613 729.025 25.4998 729.024 25.8416Z" fill="white"/>
</g>
<g filter="url(#filter19_f_17_893)">
<path d="M740.643 9.87251C740.643 10.1788 740.584 10.4821 740.468 10.7653C740.353 11.0485 740.183 11.3059 739.968 11.5228C739.754 11.7396 739.499 11.9116 739.219 12.029C738.938 12.1464 738.637 12.207 738.334 12.207C738.03 12.207 737.729 12.1464 737.449 12.029C737.168 11.9116 736.913 11.7396 736.699 11.5228C736.484 11.3059 736.314 11.0485 736.199 10.7653C736.083 10.4821 736.024 10.1788 736.025 9.87251C736.024 9.56624 736.083 9.26293 736.199 8.97974C736.314 8.69654 736.484 8.43912 736.699 8.22226C736.913 8.00539 737.168 7.83337 737.449 7.71598C737.729 7.59858 738.03 7.53802 738.334 7.53802C738.637 7.53802 738.938 7.59858 739.219 7.71598C739.499 7.83337 739.754 8.00539 739.968 8.22226C740.183 8.43912 740.353 8.69654 740.468 8.97974C740.584 9.26293 740.643 9.56624 740.643 9.87251Z" fill="white"/>
</g>
<g filter="url(#filter20_f_17_893)">
<path d="M775.39 16.5648C775.391 16.9232 775.322 17.2782 775.186 17.6096C775.051 17.9411 774.852 18.2423 774.601 18.4961C774.35 18.7499 774.052 18.9512 773.724 19.0886C773.395 19.226 773.043 19.2969 772.688 19.2969C772.332 19.2969 771.98 19.226 771.652 19.0886C771.324 18.9512 771.026 18.7499 770.775 18.4961C770.523 18.2423 770.325 17.9411 770.189 17.6096C770.054 17.2782 769.985 16.9232 769.986 16.5648C769.985 16.2063 770.054 15.8514 770.189 15.5199C770.325 15.1885 770.523 14.8872 770.775 14.6334C771.026 14.3796 771.324 14.1783 771.652 14.0409C771.98 13.9035 772.332 13.8326 772.688 13.8326C773.043 13.8326 773.395 13.9035 773.724 14.0409C774.052 14.1783 774.35 14.3796 774.601 14.6334C774.852 14.8872 775.051 15.1885 775.186 15.5199C775.322 15.8514 775.391 16.2063 775.39 16.5648Z" fill="white"/>
</g>
<g filter="url(#filter21_f_17_893)">
<path d="M96.6553 24.3616C96.656 24.6364 96.6028 24.9084 96.4991 25.1625C96.3953 25.4165 96.243 25.6474 96.0506 25.8419C95.8582 26.0365 95.6296 26.1908 95.3779 26.2961C95.1263 26.4014 94.8565 26.4557 94.5841 26.4557C94.3116 26.4557 94.0419 26.4014 93.7903 26.2961C93.5386 26.1908 93.3099 26.0365 93.1176 25.8419C92.9252 25.6474 92.7726 25.4165 92.6689 25.1625C92.5651 24.9084 92.5121 24.6364 92.5129 24.3616C92.5121 24.0869 92.5651 23.8148 92.6689 23.5608C92.7726 23.3067 92.9252 23.0758 93.1176 22.8813C93.3099 22.6868 93.5386 22.5325 93.7903 22.4271C94.0419 22.3218 94.3116 22.2675 94.5841 22.2675C94.8565 22.2675 95.1263 22.3218 95.3779 22.4271C95.6296 22.5325 95.8582 22.6868 96.0506 22.8813C96.243 23.0758 96.3953 23.3067 96.4991 23.5608C96.6028 23.8148 96.656 24.0869 96.6553 24.3616Z" fill="white"/>
</g>
<g filter="url(#filter22_f_17_893)">
<path d="M52.6742 55.9117C52.675 56.2387 52.6117 56.5625 52.4882 56.8649C52.3648 57.1673 52.1835 57.4421 51.9545 57.6737C51.7255 57.9052 51.4533 58.0889 51.1538 58.2142C50.8542 58.3396 50.5332 58.4042 50.2089 58.4042C49.8846 58.4042 49.5636 58.3396 49.2641 58.2142C48.9645 58.0889 48.6924 57.9052 48.4634 57.6737C48.2344 57.4421 48.0528 57.1673 47.9293 56.8649C47.8059 56.5625 47.7428 56.2387 47.7437 55.9117C47.7428 55.5847 47.8059 55.2609 47.9293 54.9585C48.0528 54.6561 48.2344 54.3813 48.4634 54.1497C48.6924 53.9182 48.9645 53.7345 49.2641 53.6092C49.5636 53.4838 49.8846 53.4192 50.2089 53.4192C50.5332 53.4192 50.8542 53.4838 51.1538 53.6092C51.4533 53.7345 51.7255 53.9182 51.9545 54.1497C52.1835 54.3813 52.3648 54.6561 52.4882 54.9585C52.6117 55.2609 52.675 55.5847 52.6742 55.9117Z" fill="white"/>
</g>
<path d="M679.241 200.62C661.993 209.639 636.796 216.347 609.611 210.283C592.047 206.364 582.064 203.542 572.264 200.809C589.57 208.129 612.805 221.233 646.023 227.674C679.241 234.116 805.085 214.792 805.085 214.792C782.611 215.657 747.796 207.605 733.851 201.753C714.796 200.409 684.671 198.688 679.241 200.62Z" fill="url(#paint8_linear_17_893)"/>
<path d="M763.777 138.676C772.227 140.903 780.248 149.741 780.248 149.741C780.248 149.741 831.4 156.439 837.272 156.895C838.034 151.07 837.714 138.11 837.714 135.377C837.714 132.645 849.997 121.524 849.997 121.524C849.997 121.524 839.872 124.234 836.259 124.234C832.645 124.234 824.277 135.888 812.081 136.343C800.684 139.537 777.511 135.617 763.777 138.676Z" fill="url(#paint9_linear_17_893)"/>
<path d="M812.112 136.207C820.736 141.038 835.428 155.853 837.344 156.819C839.261 157.786 841.497 138.783 842.455 136.851C843.413 134.919 851.398 122.68 852.676 121.714C851.398 120.747 849.961 118.976 846.767 118.976C843.573 118.976 838.941 124.29 838.941 124.29C838.941 124.29 834.789 122.036 831.276 123.324C822.971 128.799 815.945 133.952 812.112 136.207Z" fill="url(#paint10_linear_17_893)"/>
<path d="M432.982 231.217C420.206 240.879 343.23 269.544 314.484 270.188C285.738 270.832 244.854 261.17 232.717 251.508C220.58 241.845 196.305 227.675 186.723 228.318C177.141 228.963 207.804 258.593 238.466 270.188C269.129 281.782 386.669 267.289 398.806 263.424C410.943 259.56 424.039 244.1 432.982 231.217Z" fill="url(#paint11_linear_17_893)"/>
<path d="M676.686 257.305C629.414 214.414 589.809 196.112 528.484 196.111C476.348 196.111 458.903 211.208 442.485 221.56C433.393 227.293 426.275 237.658 416.054 249.897C424.667 247.002 466.508 220.185 524.651 218.656C598.14 216.724 660.716 247.643 676.686 257.305Z" fill="url(#paint12_radial_17_893)"/>
<path d="M212.006 237.647C192.132 223.528 99.9843 205.764 41.7147 219.428C101.339 217.151 154.692 221.738 186.259 234.459C192.457 234.223 203.65 235.142 212.006 237.647Z" fill="url(#paint13_linear_17_893)"/>
<path d="M119.01 109.797C127.954 107.221 147.118 96.9141 150.312 96.2698C153.506 95.6259 166.921 102.711 170.115 102.711C171.712 102.711 175.385 127.833 180.415 136.207C184.488 151.022 184.488 163.261 186.404 165.837C188.321 168.414 179.653 142.596 155.422 139.105C147.597 137.978 118.372 112.374 119.01 109.797Z" fill="url(#paint14_linear_17_893)"/>
<path d="M75.1023 72.222C81.7018 80.6789 97.1275 99.6113 101.199 101.321C105.271 103.032 112.019 115.287 112.935 120.869C113.85 126.451 104.726 108.38 101.424 105.585C98.1227 102.79 81.4546 93.6226 81.1495 91.7618C73.6314 90.1943 73.9512 87.7962 80.5603 86.723C80.1017 84.6492 79.1629 82.5359 77.0889 81.4479C72.941 79.2723 72.4907 70.7457 75.1023 72.222Z" fill="url(#paint15_linear_17_893)"/>
<path d="M778.441 150.652C774.782 158.151 768.359 164.622 763.614 170.767C779.311 174.98 788.415 164.196 810.936 164.697C811.765 160.933 834.753 161.371 838.066 157.028C830.839 154.296 782.958 146.097 778.441 150.652Z" fill="url(#paint16_linear_17_893)"/>
<path d="M876.461 136.987C911.242 163.405 955.057 180.713 973.125 188.456C991.193 196.199 1039.53 206.219 1039.98 204.853C1040.16 204.314 1111.71 204.916 1114.77 203.758V189.253C1099.86 189.656 1057.31 185.661 1045.39 183.719C1000.2 176.363 890.915 138.354 876.461 136.987Z" fill="#35006F"/>
<path d="M178.567 204.336C170.596 189.419 170.699 182.075 165.58 179.517C160.461 176.957 108.749 148.535 102.464 141.213C96.1791 133.892 82.0907 123.634 77.7416 122.103C73.3926 120.571 96.9925 147.802 95.9948 155.02C94.9971 162.238 114.953 169.641 121.216 170.522C127.479 171.402 152.804 179.56 156.009 182.77C159.213 185.98 178.567 204.336 178.567 204.336Z" fill="url(#paint17_linear_17_893)"/>
<path d="M697.135 269.986C711.589 274.541 821.805 249.034 821.805 249.034C821.805 249.034 872.865 230.026 877.544 222.57C881.811 215.772 922.392 220.255 933.827 229.904C917.405 225.948 918.025 220.792 904.466 225.52C898.102 227.74 863.813 245.163 853.424 256.322C839.433 271.35 713.396 275.452 697.135 269.986Z" fill="url(#paint18_linear_17_893)"/>
<g filter="url(#filter23_f_17_893)">
<path d="M1070.49 67.4682C1070.49 67.7336 1070.44 67.9963 1070.34 68.2417C1070.24 68.487 1070.09 68.71 1069.91 68.8979C1069.72 69.0858 1069.5 69.2348 1069.26 69.3365C1069.01 69.4382 1068.75 69.4907 1068.49 69.4907C1068.23 69.4907 1067.97 69.4382 1067.72 69.3365C1067.48 69.2348 1067.26 69.0858 1067.07 68.8979C1066.89 68.71 1066.74 68.487 1066.64 68.2417C1066.54 67.9963 1066.49 67.7336 1066.49 67.4682C1066.49 67.2029 1066.54 66.9401 1066.64 66.6948C1066.74 66.4494 1066.89 66.2264 1067.07 66.0385C1067.26 65.8506 1067.48 65.7016 1067.72 65.5999C1067.97 65.4982 1068.23 65.4457 1068.49 65.4457C1068.75 65.4457 1069.01 65.4982 1069.26 65.5999C1069.5 65.7016 1069.72 65.8506 1069.91 66.0385C1070.09 66.2264 1070.24 66.4494 1070.34 66.6948C1070.44 66.9401 1070.49 67.2029 1070.49 67.4682Z" fill="white"/>
</g>
<path d="M1114.77 250.53C1087.02 256.749 1036.37 270.884 1001.2 264.761C1012.13 271.247 1031.26 280.402 1038.35 281.989C1064.41 289.143 1099.68 275.271 1114.77 273.75V250.53Z" fill="#35006F"/>
<path d="M372.91 457.831C374.687 457.496 392.962 442.018 392.962 442.018C392.962 442.018 431.272 425.553 443.105 414.991C454.937 404.428 460.506 403.704 455.011 403.81C449.517 403.916 420.895 419.319 417.012 418.197C413.129 417.074 383.871 432.608 383.871 432.608C383.871 432.608 375.817 438.754 374.703 442.67C373.589 446.586 359.359 464.209 359.359 464.209L372.91 457.831Z" fill="url(#paint19_linear_17_893)"/>
<path d="M386.59 433.795C384.105 425.141 389.752 408.744 390.429 402.823C391.107 396.901 404.432 392.347 407.142 392.574C409.852 392.803 439.213 408.516 437.858 409.427C436.503 410.338 421.597 419.903 419.112 419.903C416.628 419.903 389.3 431.062 386.59 433.795Z" fill="url(#paint20_linear_17_893)"/>
<path d="M360.616 463.856C353.841 461.123 341.193 451.558 341.193 451.558C341.193 451.558 321.318 452.469 319.963 450.192C318.608 447.915 303.25 435.161 300.54 434.706C297.83 434.25 348.872 402.823 357.454 404.189C366.037 405.555 392.236 386.425 395.849 386.881C399.463 387.336 384.557 428.785 386.815 431.973C389.074 435.161 379.136 441.082 377.329 442.904C375.523 444.726 360.616 463.856 360.616 463.856Z" fill="#352F9A"/>
<path d="M86.2099 577.704C86.2099 577.704 75.1411 585.468 100.436 589.112C113.403 586.425 118.121 584.498 129.124 582.046C138.849 575.085 149.827 548.809 167.895 546.987C162.333 540.406 161.853 537.989 154.421 535.201C144.252 534.102 119.866 526.751 123.48 519.463C127.093 512.176 86.2099 577.704 86.2099 577.704Z" fill="url(#paint21_linear_17_893)"/>
<path d="M151.297 548.824C144.04 549.009 150.408 547.752 138.223 541.014C156.779 478.007 173.58 464.326 189.732 457.233C212.309 455.994 237.968 464.812 243.724 467.622C232.937 479.288 195.98 519.794 185.753 540.173C177.352 542.802 177.064 545.831 168.03 546.742C165.657 546.981 153.583 547.615 151.297 548.824Z" fill="url(#paint22_linear_17_893)"/>
<path d="M190.325 468.866C212.007 470.233 233.237 470.688 243.174 468.411C253.112 466.134 286.538 450.192 289.699 444.726C292.861 439.26 370.554 415.576 374.168 408.744C377.781 401.912 414.369 393.713 425.21 391.891C436.051 390.069 300.54 361.83 282.472 365.018C264.404 368.207 174.515 469.777 190.325 468.866Z" fill="url(#paint23_linear_17_893)"/>
<path d="M315.123 401.247C327.899 401.891 345.785 400.603 350.896 399.314C356.006 398.026 385.391 387.076 389.224 385.144C393.057 383.211 359.839 374.837 355.367 374.837C350.896 374.837 315.123 401.247 315.123 401.247Z" fill="url(#paint24_linear_17_893)"/>
<path d="M234.634 419.927C265.935 419.927 306.819 410.909 320.234 402.535C333.648 394.161 366.866 378.058 363.033 374.837C359.201 371.616 287.655 366.463 279.35 369.684C271.046 372.905 234.634 419.927 234.634 419.927Z" fill="url(#paint25_linear_17_893)"/>
<path d="M-0.0231323 539.737C9.55891 545.856 31.102 553.392 39.604 558.772C42.4349 561.537 44.2749 566.026 51.7001 569.931C66.5505 577.741 78.4465 583.216 85.7927 586.115C90.9031 586.115 92.1808 597.709 101.124 575.808C110.067 553.908 113.823 540.648 121.785 536.249C127.347 538.149 141.209 546.339 148.954 547.064C156.7 547.789 163.298 541.048 169.366 542.014C176.393 527.199 179.058 488.206 191.834 468.881C199.5 468.881 219.143 441.505 235.991 421.054C259.228 423.792 262.422 399.314 301.069 370.328C297.237 363.887 -0.0231323 396.738 -0.0231323 396.738V539.737Z" fill="#35006F"/>
<path d="M-0.0231323 417.994C102.185 438.607 173.635 426.368 214.519 403.179C255.402 379.99 311.617 361.954 378.052 385.143C444.488 408.332 462.374 441.827 518.589 446.98C574.804 452.134 572.248 439.251 623.353 431.521C674.457 423.792 720.451 472.746 751.113 493.359C781.776 513.971 805.91 495.814 852.523 523.665C860.029 517.546 874.57 515.162 876.654 508.109C918.982 496.869 1052.34 443.974 1114.77 454.71C1114.77 441.763 1114.77 320.097 1114.77 320.097H-0.0231323V417.994Z" fill="#2B0054"/>
<path d="M780.815 494.275C779.008 490.631 741.065 446.905 726.611 436.885C713.822 437.629 708.095 444.369 680.692 445.194C713.215 463.413 751.003 502.473 762.747 506.117C769.856 507.154 784.123 500.704 780.815 494.275Z" fill="url(#paint26_linear_17_893)"/>
<g filter="url(#filter24_f_17_893)">
<path d="M170.609 689.592C170.61 689.292 170.552 688.995 170.439 688.718C170.326 688.441 170.159 688.189 169.949 687.976C169.739 687.764 169.49 687.596 169.215 687.481C168.941 687.366 168.646 687.307 168.349 687.307C168.052 687.307 167.758 687.366 167.483 687.481C167.208 687.596 166.959 687.764 166.749 687.976C166.539 688.189 166.373 688.441 166.259 688.718C166.146 688.995 166.088 689.292 166.089 689.592C166.088 689.892 166.146 690.188 166.259 690.466C166.373 690.743 166.539 690.995 166.749 691.207C166.959 691.419 167.208 691.588 167.483 691.703C167.758 691.818 168.052 691.877 168.349 691.877C168.646 691.877 168.941 691.818 169.215 691.703C169.49 691.588 169.739 691.419 169.949 691.207C170.159 690.995 170.326 690.743 170.439 690.466C170.552 690.188 170.61 689.892 170.609 689.592Z" fill="white"/>
</g>
<g filter="url(#filter25_f_17_893)">
<path d="M296.888 644.647C296.889 644.369 296.835 644.094 296.73 643.837C296.625 643.58 296.471 643.346 296.276 643.15C296.082 642.953 295.85 642.797 295.596 642.69C295.341 642.584 295.068 642.529 294.793 642.529C294.517 642.529 294.244 642.584 293.99 642.69C293.735 642.797 293.504 642.953 293.309 643.15C293.115 643.346 292.961 643.58 292.856 643.837C292.751 644.094 292.697 644.369 292.698 644.647C292.697 644.925 292.751 645.2 292.856 645.457C292.961 645.714 293.115 645.948 293.309 646.144C293.504 646.341 293.735 646.497 293.99 646.604C294.244 646.71 294.517 646.765 294.793 646.765C295.068 646.765 295.341 646.71 295.596 646.604C295.85 646.497 296.082 646.341 296.276 646.144C296.471 645.948 296.625 645.714 296.73 645.457C296.835 645.2 296.889 644.925 296.888 644.647Z" fill="white"/>
</g>
<g filter="url(#filter26_f_17_893)">
<path d="M236.516 644.156C236.516 643.877 236.462 643.601 236.357 643.343C236.252 643.085 236.097 642.851 235.902 642.653C235.707 642.456 235.475 642.299 235.219 642.192C234.964 642.086 234.69 642.03 234.413 642.03C234.137 642.03 233.863 642.086 233.607 642.192C233.352 642.299 233.12 642.456 232.925 642.653C232.729 642.851 232.574 643.085 232.469 643.343C232.364 643.601 232.31 643.877 232.311 644.156C232.31 644.435 232.364 644.711 232.469 644.969C232.574 645.227 232.729 645.461 232.925 645.659C233.12 645.856 233.352 646.013 233.607 646.12C233.863 646.227 234.137 646.282 234.413 646.282C234.69 646.282 234.964 646.227 235.219 646.12C235.475 646.013 235.707 645.856 235.902 645.659C236.097 645.461 236.252 645.227 236.357 644.969C236.462 644.711 236.516 644.435 236.516 644.156Z" fill="white"/>
</g>
<g filter="url(#filter27_f_17_893)">
<path d="M289.875 619.501C289.876 619.234 289.824 618.969 289.723 618.721C289.622 618.474 289.474 618.249 289.287 618.06C289.099 617.87 288.877 617.72 288.632 617.617C288.387 617.515 288.124 617.462 287.859 617.462C287.593 617.462 287.331 617.515 287.086 617.617C286.841 617.72 286.618 617.87 286.431 618.06C286.243 618.249 286.095 618.474 285.994 618.721C285.893 618.969 285.841 619.234 285.842 619.501C285.841 619.769 285.893 620.034 285.994 620.281C286.095 620.528 286.243 620.753 286.431 620.943C286.618 621.132 286.841 621.282 287.086 621.385C287.331 621.487 287.593 621.54 287.859 621.54C288.124 621.54 288.387 621.487 288.632 621.385C288.877 621.282 289.099 621.132 289.287 620.943C289.474 620.753 289.622 620.528 289.723 620.281C289.824 620.034 289.876 619.769 289.875 619.501Z" fill="white"/>
</g>
<g filter="url(#filter28_f_17_893)">
<path d="M219.686 572.604C219.686 572.271 219.622 571.941 219.496 571.632C219.37 571.324 219.185 571.044 218.952 570.808C218.719 570.572 218.441 570.385 218.136 570.257C217.831 570.129 217.503 570.064 217.173 570.064C216.842 570.064 216.515 570.129 216.21 570.257C215.905 570.385 215.627 570.572 215.394 570.808C215.16 571.044 214.975 571.324 214.85 571.632C214.724 571.941 214.659 572.271 214.66 572.604C214.659 572.937 214.724 573.267 214.85 573.576C214.975 573.884 215.16 574.164 215.394 574.4C215.627 574.636 215.905 574.823 216.21 574.951C216.515 575.079 216.842 575.144 217.173 575.144C217.503 575.144 217.831 575.079 218.136 574.951C218.441 574.823 218.719 574.636 218.952 574.4C219.185 574.164 219.37 573.884 219.496 573.576C219.622 573.267 219.686 572.937 219.686 572.604Z" fill="white"/>
</g>
<g filter="url(#filter29_f_17_893)">
<path d="M247.645 525.143C247.646 524.847 247.589 524.555 247.477 524.282C247.366 524.009 247.202 523.76 246.995 523.551C246.788 523.342 246.543 523.176 246.272 523.063C246.001 522.95 245.712 522.891 245.419 522.891C245.126 522.891 244.836 522.95 244.565 523.063C244.295 523.176 244.049 523.342 243.842 523.551C243.635 523.76 243.471 524.009 243.36 524.282C243.248 524.555 243.191 524.847 243.192 525.143C243.191 525.438 243.248 525.73 243.36 526.003C243.471 526.277 243.635 526.525 243.842 526.734C244.049 526.943 244.295 527.109 244.565 527.222C244.836 527.335 245.126 527.394 245.419 527.394C245.712 527.394 246.001 527.335 246.272 527.222C246.543 527.109 246.788 526.943 246.995 526.734C247.202 526.525 247.366 526.277 247.477 526.003C247.589 525.73 247.646 525.438 247.645 525.143Z" fill="white"/>
</g>
<g filter="url(#filter30_f_17_893)">
<path d="M292.706 583.284C292.707 582.926 292.637 582.572 292.502 582.241C292.367 581.911 292.169 581.61 291.918 581.357C291.668 581.103 291.37 580.902 291.042 580.765C290.715 580.628 290.363 580.557 290.009 580.557C289.654 580.557 289.303 580.628 288.975 580.765C288.647 580.902 288.35 581.103 288.099 581.357C287.849 581.61 287.65 581.911 287.515 582.241C287.38 582.572 287.311 582.926 287.312 583.284C287.311 583.642 287.38 583.996 287.515 584.327C287.65 584.658 287.849 584.958 288.099 585.212C288.35 585.465 288.647 585.666 288.975 585.803C289.303 585.94 289.654 586.011 290.009 586.011C290.363 586.011 290.715 585.94 291.042 585.803C291.37 585.666 291.668 585.465 291.918 585.212C292.169 584.958 292.367 584.658 292.502 584.327C292.637 583.996 292.707 583.642 292.706 583.284Z" fill="white"/>
</g>
<g filter="url(#filter31_f_17_893)">
<path d="M311.281 452.39C311.281 452.134 311.232 451.881 311.135 451.644C311.039 451.407 310.897 451.192 310.718 451.011C310.538 450.83 310.325 450.686 310.091 450.588C309.857 450.49 309.605 450.439 309.352 450.439C309.098 450.439 308.846 450.49 308.612 450.588C308.378 450.686 308.165 450.83 307.985 451.011C307.806 451.192 307.664 451.407 307.568 451.644C307.471 451.881 307.422 452.134 307.422 452.39C307.422 452.646 307.471 452.899 307.568 453.136C307.664 453.373 307.806 453.588 307.985 453.769C308.165 453.95 308.378 454.094 308.612 454.192C308.846 454.29 309.098 454.341 309.352 454.341C309.605 454.341 309.857 454.29 310.091 454.192C310.325 454.094 310.538 453.95 310.718 453.769C310.897 453.588 311.039 453.373 311.135 453.136C311.232 452.899 311.281 452.646 311.281 452.39Z" fill="white"/>
</g>
<g filter="url(#filter32_f_17_893)">
<path d="M291.68 491.037C291.68 490.798 291.634 490.562 291.544 490.342C291.454 490.121 291.322 489.921 291.155 489.752C290.988 489.584 290.79 489.45 290.571 489.358C290.353 489.267 290.119 489.22 289.883 489.22C289.646 489.22 289.412 489.267 289.194 489.358C288.976 489.45 288.778 489.584 288.611 489.752C288.444 489.921 288.311 490.121 288.221 490.342C288.131 490.562 288.085 490.798 288.086 491.037C288.085 491.275 288.131 491.511 288.221 491.731C288.311 491.952 288.444 492.152 288.611 492.321C288.778 492.489 288.976 492.623 289.194 492.715C289.412 492.806 289.646 492.853 289.883 492.853C290.119 492.853 290.353 492.806 290.571 492.715C290.79 492.623 290.988 492.489 291.155 492.321C291.322 492.152 291.454 491.952 291.544 491.731C291.634 491.511 291.68 491.275 291.68 491.037Z" fill="white"/>
</g>
<g filter="url(#filter33_f_17_893)">
<path d="M439.683 487.162C439.684 486.823 439.618 486.488 439.49 486.174C439.362 485.86 439.174 485.575 438.936 485.335C438.699 485.095 438.417 484.905 438.106 484.775C437.795 484.645 437.462 484.578 437.126 484.578C436.79 484.578 436.457 484.645 436.146 484.775C435.836 484.905 435.554 485.095 435.316 485.335C435.079 485.575 434.89 485.86 434.762 486.174C434.634 486.488 434.569 486.823 434.57 487.162C434.569 487.502 434.634 487.837 434.762 488.151C434.89 488.464 435.079 488.75 435.316 488.99C435.554 489.23 435.836 489.42 436.146 489.55C436.457 489.68 436.79 489.747 437.126 489.747C437.462 489.747 437.795 489.68 438.106 489.55C438.417 489.42 438.699 489.23 438.936 488.99C439.174 488.75 439.362 488.464 439.49 488.151C439.618 487.837 439.684 487.502 439.683 487.162Z" fill="white"/>
</g>
<g filter="url(#filter34_f_17_893)">
<path d="M443.589 481.464C443.59 481.155 443.53 480.848 443.413 480.562C443.297 480.276 443.125 480.015 442.908 479.796C442.691 479.577 442.434 479.403 442.15 479.285C441.867 479.166 441.563 479.105 441.256 479.105C440.949 479.105 440.645 479.166 440.361 479.285C440.078 479.403 439.82 479.577 439.604 479.796C439.387 480.015 439.215 480.276 439.098 480.562C438.981 480.848 438.921 481.155 438.922 481.464C438.921 481.774 438.981 482.08 439.098 482.366C439.215 482.653 439.387 482.913 439.604 483.132C439.82 483.351 440.078 483.525 440.361 483.644C440.645 483.762 440.949 483.823 441.256 483.823C441.563 483.823 441.867 483.762 442.15 483.644C442.434 483.525 442.691 483.351 442.908 483.132C443.125 482.913 443.297 482.653 443.413 482.366C443.53 482.08 443.59 481.774 443.589 481.464Z" fill="white"/>
</g>
<g filter="url(#filter35_f_17_893)">
<path d="M526.621 506.312C526.621 506.008 526.563 505.708 526.448 505.427C526.333 505.146 526.165 504.891 525.952 504.676C525.74 504.461 525.487 504.29 525.209 504.174C524.93 504.057 524.632 503.997 524.331 503.997C524.03 503.997 523.732 504.057 523.454 504.174C523.176 504.29 522.923 504.461 522.71 504.676C522.497 504.891 522.329 505.146 522.214 505.427C522.1 505.708 522.041 506.008 522.042 506.312C522.041 506.616 522.1 506.917 522.214 507.197C522.329 507.478 522.497 507.733 522.71 507.948C522.923 508.163 523.176 508.334 523.454 508.45C523.732 508.567 524.03 508.627 524.331 508.627C524.632 508.627 524.93 508.567 525.209 508.45C525.487 508.334 525.74 508.163 525.952 507.948C526.165 507.733 526.333 507.478 526.448 507.197C526.563 506.917 526.621 506.616 526.621 506.312Z" fill="white"/>
</g>
<g filter="url(#filter36_f_17_893)">
<path d="M555.452 492.623C555.453 492.318 555.394 492.016 555.279 491.733C555.164 491.451 554.994 491.195 554.781 490.978C554.567 490.762 554.313 490.591 554.033 490.474C553.754 490.357 553.454 490.296 553.151 490.296C552.848 490.296 552.549 490.357 552.269 490.474C551.99 490.591 551.735 490.762 551.522 490.978C551.308 491.195 551.138 491.451 551.023 491.733C550.908 492.016 550.849 492.318 550.85 492.623C550.849 492.928 550.908 493.231 551.023 493.513C551.138 493.795 551.308 494.052 551.522 494.268C551.735 494.484 551.99 494.656 552.269 494.773C552.549 494.89 552.848 494.95 553.151 494.95C553.454 494.95 553.754 494.89 554.033 494.773C554.313 494.656 554.567 494.484 554.781 494.268C554.994 494.052 555.164 493.795 555.279 493.513C555.394 493.231 555.453 492.928 555.452 492.623Z" fill="white"/>
</g>
<g filter="url(#filter37_f_17_893)">
<path d="M531.04 553.245C531.04 552.947 530.983 552.653 530.871 552.378C530.758 552.103 530.594 551.854 530.385 551.643C530.177 551.433 529.93 551.266 529.658 551.152C529.385 551.038 529.094 550.979 528.799 550.979C528.504 550.979 528.212 551.038 527.94 551.152C527.668 551.266 527.42 551.433 527.212 551.643C527.004 551.854 526.839 552.103 526.727 552.378C526.614 552.653 526.557 552.947 526.558 553.245C526.557 553.542 526.614 553.836 526.727 554.111C526.839 554.386 527.004 554.636 527.212 554.846C527.42 555.057 527.668 555.224 527.94 555.338C528.212 555.452 528.504 555.51 528.799 555.51C529.094 555.51 529.385 555.452 529.658 555.338C529.93 555.224 530.177 555.057 530.385 554.846C530.594 554.636 530.758 554.386 530.871 554.111C530.983 553.836 531.04 553.542 531.04 553.245Z" fill="white"/>
</g>
<g filter="url(#filter38_f_17_893)">
<path d="M503.46 469.424C503.461 469.152 503.409 468.883 503.306 468.632C503.204 468.381 503.053 468.153 502.863 467.961C502.673 467.768 502.447 467.616 502.198 467.512C501.949 467.408 501.683 467.354 501.414 467.354C501.144 467.354 500.878 467.408 500.629 467.512C500.38 467.616 500.154 467.768 499.964 467.961C499.774 468.153 499.623 468.381 499.521 468.632C499.418 468.883 499.366 469.152 499.367 469.424C499.366 469.695 499.418 469.964 499.521 470.215C499.623 470.466 499.774 470.694 499.964 470.887C500.154 471.079 500.38 471.231 500.629 471.335C500.878 471.439 501.144 471.493 501.414 471.493C501.683 471.493 501.949 471.439 502.198 471.335C502.447 471.231 502.673 471.079 502.863 470.887C503.053 470.694 503.204 470.466 503.306 470.215C503.409 469.964 503.461 469.695 503.46 469.424Z" fill="white"/>
</g>
<g filter="url(#filter39_f_17_893)">
<path d="M666.918 514.602C666.919 514.265 666.854 513.931 666.726 513.62C666.599 513.308 666.412 513.024 666.176 512.786C665.94 512.547 665.659 512.358 665.35 512.228C665.042 512.099 664.711 512.033 664.376 512.033C664.042 512.033 663.711 512.099 663.402 512.228C663.093 512.358 662.813 512.547 662.577 512.786C662.34 513.024 662.153 513.308 662.026 513.62C661.899 513.931 661.834 514.265 661.834 514.602C661.834 514.939 661.899 515.273 662.026 515.585C662.153 515.897 662.34 516.18 662.577 516.419C662.813 516.658 663.093 516.847 663.402 516.976C663.711 517.105 664.042 517.172 664.376 517.172C664.711 517.172 665.042 517.105 665.35 516.976C665.659 516.847 665.94 516.658 666.176 516.419C666.412 516.18 666.599 515.897 666.726 515.585C666.854 515.273 666.919 514.939 666.918 514.602Z" fill="white"/>
</g>
<g filter="url(#filter40_f_17_893)">
<path d="M865.773 604.967C865.774 604.674 865.717 604.384 865.606 604.114C865.496 603.843 865.334 603.597 865.128 603.39C864.923 603.182 864.68 603.018 864.412 602.906C864.143 602.793 863.856 602.735 863.565 602.735C863.275 602.735 862.988 602.793 862.719 602.906C862.451 603.018 862.208 603.182 862.002 603.39C861.797 603.597 861.635 603.843 861.524 604.114C861.414 604.384 861.357 604.674 861.358 604.967C861.357 605.26 861.414 605.55 861.524 605.821C861.635 606.092 861.797 606.338 862.002 606.545C862.208 606.752 862.451 606.917 862.719 607.029C862.988 607.141 863.275 607.199 863.565 607.199C863.856 607.199 864.143 607.141 864.412 607.029C864.68 606.917 864.923 606.752 865.128 606.545C865.334 606.338 865.496 606.092 865.606 605.821C865.717 605.55 865.774 605.26 865.773 604.967Z" fill="white"/>
</g>
<g filter="url(#filter41_f_17_893)">
<path d="M830.139 664.203C830.14 663.931 830.087 663.661 829.985 663.41C829.882 663.158 829.731 662.93 829.541 662.737C829.35 662.544 829.124 662.392 828.875 662.287C828.625 662.183 828.358 662.129 828.089 662.129C827.819 662.129 827.552 662.183 827.303 662.287C827.053 662.392 826.827 662.544 826.637 662.737C826.446 662.93 826.295 663.158 826.192 663.41C826.09 663.661 826.037 663.931 826.038 664.203C826.037 664.475 826.09 664.744 826.192 664.996C826.295 665.247 826.446 665.476 826.637 665.668C826.827 665.861 827.053 666.014 827.303 666.118C827.552 666.222 827.819 666.276 828.089 666.276C828.358 666.276 828.625 666.222 828.875 666.118C829.124 666.014 829.35 665.861 829.541 665.668C829.731 665.476 829.882 665.247 829.985 664.996C830.087 664.744 830.14 664.475 830.139 664.203Z" fill="white"/>
</g>
<g filter="url(#filter42_f_17_893)">
<path d="M1003.56 543.318C1003.56 543.01 1003.5 542.704 1003.38 542.419C1003.27 542.134 1003.09 541.875 1002.88 541.657C1002.66 541.439 1002.41 541.266 1002.12 541.148C1001.84 541.03 1001.54 540.969 1001.23 540.969C1000.93 540.969 1000.63 541.03 1000.34 541.148C1000.06 541.266 999.804 541.439 999.589 541.657C999.373 541.875 999.202 542.134 999.085 542.419C998.969 542.704 998.91 543.01 998.91 543.318C998.91 543.626 998.969 543.931 999.085 544.216C999.202 544.501 999.373 544.76 999.589 544.978C999.804 545.196 1000.06 545.37 1000.34 545.488C1000.63 545.606 1000.93 545.667 1001.23 545.667C1001.54 545.667 1001.84 545.606 1002.12 545.488C1002.41 545.37 1002.66 545.196 1002.88 544.978C1003.09 544.76 1003.27 544.501 1003.38 544.216C1003.5 543.931 1003.56 543.626 1003.56 543.318Z" fill="white"/>
</g>
<g filter="url(#filter43_f_17_893)">
<path d="M967.541 598.319C967.542 598.053 967.491 597.791 967.39 597.545C967.29 597.3 967.143 597.077 966.957 596.889C966.771 596.701 966.551 596.552 966.308 596.45C966.065 596.349 965.804 596.296 965.541 596.296C965.278 596.296 965.017 596.349 964.774 596.45C964.531 596.552 964.31 596.701 964.125 596.889C963.939 597.077 963.791 597.3 963.691 597.545C963.591 597.791 963.54 598.053 963.541 598.319C963.54 598.584 963.591 598.847 963.691 599.092C963.791 599.338 963.939 599.561 964.125 599.748C964.31 599.936 964.531 600.085 964.774 600.187C965.017 600.289 965.278 600.341 965.541 600.341C965.804 600.341 966.065 600.289 966.308 600.187C966.551 600.085 966.771 599.936 966.957 599.748C967.143 599.561 967.29 599.338 967.39 599.092C967.491 598.847 967.542 598.584 967.541 598.319Z" fill="white"/>
</g>
<g filter="url(#filter44_f_17_893)">
<path d="M972.594 677.398C972.595 677.142 972.545 676.889 972.449 676.652C972.352 676.415 972.21 676.2 972.031 676.019C971.852 675.838 971.639 675.694 971.404 675.596C971.17 675.498 970.919 675.447 970.665 675.447C970.411 675.447 970.16 675.498 969.926 675.596C969.691 675.694 969.478 675.838 969.299 676.019C969.12 676.2 968.978 676.415 968.881 676.652C968.785 676.889 968.735 677.142 968.736 677.398C968.735 677.654 968.785 677.907 968.881 678.144C968.978 678.38 969.12 678.596 969.299 678.777C969.478 678.958 969.691 679.102 969.926 679.2C970.16 679.298 970.411 679.348 970.665 679.348C970.919 679.348 971.17 679.298 971.404 679.2C971.639 679.102 971.852 678.958 972.031 678.777C972.21 678.596 972.352 678.38 972.449 678.144C972.545 677.907 972.595 677.654 972.594 677.398Z" fill="white"/>
</g>
<g filter="url(#filter45_f_17_893)">
<path d="M729.024 619.183C729.025 618.841 728.959 618.503 728.83 618.187C728.701 617.871 728.511 617.583 728.272 617.341C728.032 617.099 727.748 616.907 727.435 616.776C727.122 616.645 726.786 616.578 726.447 616.578C726.108 616.578 725.773 616.645 725.46 616.776C725.147 616.907 724.862 617.099 724.623 617.341C724.383 617.583 724.194 617.871 724.065 618.187C723.936 618.503 723.87 618.841 723.87 619.183C723.87 619.525 723.936 619.863 724.065 620.179C724.194 620.495 724.383 620.783 724.623 621.025C724.862 621.267 725.147 621.459 725.46 621.59C725.773 621.721 726.108 621.788 726.447 621.788C726.786 621.788 727.122 621.721 727.435 621.59C727.748 621.459 728.032 621.267 728.272 621.025C728.511 620.783 728.701 620.495 728.83 620.179C728.959 619.863 729.025 619.525 729.024 619.183Z" fill="white"/>
</g>
<g filter="url(#filter46_f_17_893)">
<path d="M740.643 635.152C740.643 634.846 740.584 634.543 740.468 634.259C740.353 633.976 740.183 633.719 739.968 633.502C739.754 633.285 739.499 633.113 739.219 632.996C738.938 632.878 738.637 632.818 738.334 632.818C738.03 632.818 737.729 632.878 737.449 632.996C737.168 633.113 736.913 633.285 736.699 633.502C736.484 633.719 736.314 633.976 736.199 634.259C736.083 634.543 736.024 634.846 736.025 635.152C736.024 635.458 736.083 635.762 736.199 636.045C736.314 636.328 736.484 636.586 736.699 636.802C736.913 637.019 737.168 637.191 737.449 637.309C737.729 637.426 738.03 637.487 738.334 637.487C738.637 637.487 738.938 637.426 739.219 637.309C739.499 637.191 739.754 637.019 739.968 636.802C740.183 636.586 740.353 636.328 740.468 636.045C740.584 635.762 740.643 635.458 740.643 635.152Z" fill="white"/>
</g>
<g filter="url(#filter47_f_17_893)">
<path d="M775.39 628.46C775.391 628.101 775.322 627.746 775.186 627.415C775.051 627.083 774.852 626.782 774.601 626.528C774.35 626.274 774.052 626.073 773.724 625.936C773.395 625.798 773.043 625.728 772.688 625.728C772.332 625.728 771.98 625.798 771.652 625.936C771.324 626.073 771.026 626.274 770.775 626.528C770.523 626.782 770.325 627.083 770.189 627.415C770.054 627.746 769.985 628.101 769.986 628.46C769.985 628.818 770.054 629.173 770.189 629.504C770.325 629.836 770.523 630.137 770.775 630.391C771.026 630.645 771.324 630.846 771.652 630.984C771.98 631.121 772.332 631.192 772.688 631.192C773.043 631.192 773.395 631.121 773.724 630.984C774.052 630.846 774.35 630.645 774.601 630.391C774.852 630.137 775.051 629.836 775.186 629.504C775.322 629.173 775.391 628.818 775.39 628.46Z" fill="white"/>
</g>
<g filter="url(#filter48_f_17_893)">
<path d="M745.089 665.024C745.09 664.769 745.04 664.516 744.944 664.279C744.847 664.043 744.706 663.828 744.527 663.647C744.348 663.466 744.135 663.323 743.901 663.225C743.667 663.127 743.416 663.077 743.163 663.077C742.909 663.077 742.658 663.127 742.424 663.225C742.19 663.323 741.978 663.466 741.799 663.647C741.62 663.828 741.478 664.043 741.381 664.279C741.285 664.516 741.236 664.769 741.236 665.024C741.236 665.28 741.285 665.533 741.381 665.769C741.478 666.005 741.62 666.22 741.799 666.401C741.978 666.582 742.19 666.726 742.424 666.823C742.658 666.921 742.909 666.972 743.163 666.972C743.416 666.972 743.667 666.921 743.901 666.823C744.135 666.726 744.348 666.582 744.527 666.401C744.706 666.22 744.847 666.005 744.944 665.769C745.04 665.533 745.09 665.28 745.089 665.024Z" fill="white"/>
</g>
<g filter="url(#filter49_f_17_893)">
<path d="M96.6553 620.663C96.656 620.388 96.6028 620.116 96.4991 619.862C96.3953 619.608 96.243 619.377 96.0506 619.183C95.8582 618.988 95.6296 618.834 95.3779 618.729C95.1263 618.623 94.8565 618.569 94.5841 618.569C94.3116 618.569 94.0419 618.623 93.7903 618.729C93.5386 618.834 93.3099 618.988 93.1176 619.183C92.9252 619.377 92.7726 619.608 92.6689 619.862C92.5651 620.116 92.5121 620.388 92.5129 620.663C92.5121 620.938 92.5651 621.21 92.6689 621.464C92.7726 621.718 92.9252 621.949 93.1176 622.144C93.3099 622.338 93.5386 622.492 93.7903 622.598C94.0419 622.703 94.3116 622.757 94.5841 622.757C94.8565 622.757 95.1263 622.703 95.3779 622.598C95.6296 622.492 95.8582 622.338 96.0506 622.144C96.243 621.949 96.3953 621.718 96.4991 621.464C96.6028 621.21 96.656 620.938 96.6553 620.663Z" fill="white"/>
</g>
<g filter="url(#filter50_f_17_893)">
<path d="M52.6742 589.113C52.675 588.786 52.6117 588.462 52.4882 588.16C52.3648 587.858 52.1835 587.583 51.9545 587.351C51.7255 587.12 51.4533 586.936 51.1538 586.811C50.8542 586.685 50.5332 586.621 50.2089 586.621C49.8846 586.621 49.5636 586.685 49.2641 586.811C48.9645 586.936 48.6924 587.12 48.4634 587.351C48.2344 587.583 48.0528 587.858 47.9293 588.16C47.8059 588.462 47.7428 588.786 47.7437 589.113C47.7428 589.44 47.8059 589.764 47.9293 590.066C48.0528 590.369 48.2344 590.644 48.4634 590.875C48.6924 591.107 48.9645 591.29 49.2641 591.416C49.5636 591.541 49.8846 591.606 50.2089 591.606C50.5332 591.606 50.8542 591.541 51.1538 591.416C51.4533 591.29 51.7255 591.107 51.9545 590.875C52.1835 590.644 52.3648 590.369 52.4882 590.066C52.6117 589.764 52.675 589.44 52.6742 589.113Z" fill="white"/>
</g>
<path d="M679.241 444.404C661.993 435.386 636.796 428.678 609.611 434.742C592.047 438.66 582.064 441.483 572.264 444.216C589.57 436.896 612.805 423.792 646.023 417.35C679.241 410.909 805.085 430.233 805.085 430.233C782.611 429.368 747.796 437.42 733.851 443.272C714.796 444.616 684.671 446.337 679.241 444.404Z" fill="url(#paint27_linear_17_893)"/>
<path d="M763.777 506.349C772.227 504.122 780.248 495.284 780.248 495.284C780.248 495.284 831.4 488.585 837.272 488.13C838.034 493.955 837.714 506.915 837.714 509.648C837.714 512.38 849.997 523.5 849.997 523.5C849.997 523.5 839.872 520.791 836.259 520.791C832.645 520.791 824.277 509.137 812.081 508.682C800.684 505.488 777.511 509.408 763.777 506.349Z" fill="url(#paint28_linear_17_893)"/>
<path d="M812.112 508.818C820.736 503.987 835.428 489.172 837.344 488.206C839.261 487.239 841.497 506.242 842.455 508.174C843.413 510.106 851.398 522.345 852.676 523.311C851.398 524.278 849.961 526.049 846.767 526.049C843.573 526.049 838.941 520.735 838.941 520.735C838.941 520.735 834.789 522.989 831.276 521.701C822.971 516.226 815.945 511.073 812.112 508.818Z" fill="url(#paint29_linear_17_893)"/>
<path d="M432.982 413.808C420.206 404.146 343.23 375.481 314.484 374.837C285.738 374.193 244.854 383.855 232.717 393.517C220.58 403.18 196.305 417.35 186.723 416.706C177.141 416.062 207.804 386.432 238.466 374.837C269.129 363.243 386.669 377.736 398.806 381.6C410.943 385.465 424.039 400.925 432.982 413.808Z" fill="url(#paint30_linear_17_893)"/>
<path d="M676.686 387.72C629.414 430.611 589.809 448.913 528.484 448.913C476.348 448.913 458.903 433.817 442.485 423.465C433.393 417.732 426.275 407.366 416.054 395.127C424.667 398.023 466.508 424.84 524.651 426.369C598.14 428.301 660.716 397.382 676.686 387.72Z" fill="url(#paint31_radial_17_893)"/>
<path d="M212.006 407.378C192.132 421.497 99.9843 439.261 41.7147 425.596C101.339 427.874 154.692 423.287 186.259 410.566C192.457 410.802 203.65 409.883 212.006 407.378Z" fill="url(#paint32_linear_17_893)"/>
<path d="M119.01 535.228C127.954 537.804 147.118 548.11 150.312 548.755C153.506 549.399 166.921 542.313 170.115 542.313C171.712 542.313 175.385 517.192 180.415 508.818C184.488 494.003 184.488 481.764 186.404 479.187C188.321 476.611 179.653 502.429 155.422 505.919C147.597 507.047 118.372 532.651 119.01 535.228Z" fill="url(#paint33_linear_17_893)"/>
<path d="M75.1023 572.803C81.7018 564.346 97.1275 545.413 101.199 543.703C105.271 541.993 112.019 529.738 112.935 524.156C113.85 518.574 104.726 536.645 101.424 539.44C98.1227 542.234 81.4546 551.402 81.1495 553.263C73.6314 554.83 73.9512 557.229 80.5603 558.302C80.1017 560.376 79.1629 562.489 77.0889 563.577C72.941 565.752 72.4907 574.279 75.1023 572.803Z" fill="url(#paint34_linear_17_893)"/>
<path d="M778.441 494.373C774.782 486.874 768.359 480.403 763.614 474.257C779.311 470.044 788.415 480.829 810.936 480.328C811.765 484.092 834.753 483.654 838.066 487.997C830.839 490.729 782.958 498.928 778.441 494.373Z" fill="url(#paint35_linear_17_893)"/>
<path d="M876.461 508.037C911.242 481.62 955.057 464.312 973.125 456.569C991.193 448.825 1039.53 438.805 1039.98 440.171C1040.16 440.711 1111.71 440.109 1114.77 441.267V455.771C1099.86 455.369 1057.31 459.364 1045.39 461.305C1000.2 468.662 890.915 506.671 876.461 508.037Z" fill="#35006F"/>
<path d="M178.567 440.689C170.596 455.606 170.699 462.95 165.58 465.508C160.461 468.067 108.749 496.49 102.464 503.811C96.1791 511.133 82.0907 521.391 77.7416 522.922C73.3926 524.453 96.9925 497.222 95.9948 490.005C94.9971 482.787 114.953 475.383 121.216 474.503C127.479 473.623 152.804 465.464 156.009 462.255C159.213 459.045 178.567 440.689 178.567 440.689Z" fill="url(#paint36_linear_17_893)"/>
<path d="M697.135 375.039C711.589 370.484 821.805 395.991 821.805 395.991C821.805 395.991 872.865 414.999 877.544 422.455C881.811 429.253 922.392 424.77 933.827 415.121C917.405 419.077 918.025 424.233 904.466 419.505C898.102 417.285 863.813 399.862 853.424 388.703C839.433 373.675 713.396 369.573 697.135 375.039Z" fill="url(#paint37_linear_17_893)"/>
<g filter="url(#filter51_f_17_893)">
<path d="M1070.49 577.557C1070.49 577.291 1070.44 577.029 1070.34 576.783C1070.24 576.538 1070.09 576.315 1069.91 576.127C1069.72 575.939 1069.5 575.79 1069.26 575.688C1069.01 575.587 1068.75 575.534 1068.49 575.534C1068.23 575.534 1067.97 575.587 1067.72 575.688C1067.48 575.79 1067.26 575.939 1067.07 576.127C1066.89 576.315 1066.74 576.538 1066.64 576.783C1066.54 577.029 1066.49 577.291 1066.49 577.557C1066.49 577.822 1066.54 578.085 1066.64 578.33C1066.74 578.575 1066.89 578.798 1067.07 578.986C1067.26 579.174 1067.48 579.323 1067.72 579.425C1067.97 579.527 1068.23 579.579 1068.49 579.579C1068.75 579.579 1069.01 579.527 1069.26 579.425C1069.5 579.323 1069.72 579.174 1069.91 578.986C1070.09 578.798 1070.24 578.575 1070.34 578.33C1070.44 578.085 1070.49 577.822 1070.49 577.557Z" fill="white"/>
</g>
<path d="M1114.77 394.495C1087.02 388.276 1036.37 374.141 1001.2 380.263C1012.13 373.778 1031.26 364.623 1038.35 363.036C1064.41 355.882 1099.68 369.753 1114.77 371.275V394.495Z" fill="#35006F"/>
</g>
<defs>
<filter id="filter0_f_17_893" x="292.482" y="-1.95613" width="4.62185" height="4.66815" filterUnits="userSpaceOnUse" color-interpolation-filters="sRGB">
<feFlood flood-opacity="0" result="BackgroundImageFix"/>
<feBlend mode="normal" in="SourceGraphic" in2="BackgroundImageFix" result="shape"/>
<feGaussianBlur stdDeviation="0.107917" result="effect1_foregroundBlur_17_893"/>
</filter>
<filter id="filter1_f_17_893" x="232.094" y="-1.47349" width="4.63814" height="4.68462" filterUnits="userSpaceOnUse" color-interpolation-filters="sRGB">
<feFlood flood-opacity="0" result="BackgroundImageFix"/>
<feBlend mode="normal" in="SourceGraphic" in2="BackgroundImageFix" result="shape"/>
<feGaussianBlur stdDeviation="0.108297" result="effect1_foregroundBlur_17_893"/>
</filter>
<filter id="filter2_f_17_893" x="285.634" y="23.2768" width="4.4491" height="4.49369" filterUnits="userSpaceOnUse" color-interpolation-filters="sRGB">
<feFlood flood-opacity="0" result="BackgroundImageFix"/>
<feBlend mode="normal" in="SourceGraphic" in2="BackgroundImageFix" result="shape"/>
<feGaussianBlur stdDeviation="0.103883" result="effect1_foregroundBlur_17_893"/>
</filter>
<filter id="filter3_f_17_893" x="214.401" y="69.6212" width="5.54303" height="5.59856" filterUnits="userSpaceOnUse" color-interpolation-filters="sRGB">
<feFlood flood-opacity="0" result="BackgroundImageFix"/>
<feBlend mode="normal" in="SourceGraphic" in2="BackgroundImageFix" result="shape"/>
<feGaussianBlur stdDeviation="0.129425" result="effect1_foregroundBlur_17_893"/>
</filter>
<filter id="filter4_f_17_893" x="242.963" y="117.402" width="4.91175" height="4.96097" filterUnits="userSpaceOnUse" color-interpolation-filters="sRGB">
<feFlood flood-opacity="0" result="BackgroundImageFix"/>
<feBlend mode="normal" in="SourceGraphic" in2="BackgroundImageFix" result="shape"/>
<feGaussianBlur stdDeviation="0.114686" result="effect1_foregroundBlur_17_893"/>
</filter>
<filter id="filter5_f_17_893" x="287.034" y="58.7362" width="5.94959" height="6.00919" filterUnits="userSpaceOnUse" color-interpolation-filters="sRGB">
<feFlood flood-opacity="0" result="BackgroundImageFix"/>
<feBlend mode="normal" in="SourceGraphic" in2="BackgroundImageFix" result="shape"/>
<feGaussianBlur stdDeviation="0.138918" result="effect1_foregroundBlur_17_893"/>
</filter>
<filter id="filter6_f_17_893" x="307.223" y="190.485" width="4.25602" height="4.2987" filterUnits="userSpaceOnUse" color-interpolation-filters="sRGB">
<feFlood flood-opacity="0" result="BackgroundImageFix"/>
<feBlend mode="normal" in="SourceGraphic" in2="BackgroundImageFix" result="shape"/>
<feGaussianBlur stdDeviation="0.0993757" result="effect1_foregroundBlur_17_893"/>
</filter>
<filter id="filter7_f_17_893" x="287.901" y="151.987" width="3.96371" height="4.00344" filterUnits="userSpaceOnUse" color-interpolation-filters="sRGB">
<feFlood flood-opacity="0" result="BackgroundImageFix"/>
<feBlend mode="normal" in="SourceGraphic" in2="BackgroundImageFix" result="shape"/>
<feGaussianBlur stdDeviation="0.0925499" result="effect1_foregroundBlur_17_893"/>
</filter>
<filter id="filter8_f_17_893" x="434.306" y="155.014" width="5.63964" height="5.69619" filterUnits="userSpaceOnUse" color-interpolation-filters="sRGB">
<feFlood flood-opacity="0" result="BackgroundImageFix"/>
<feBlend mode="normal" in="SourceGraphic" in2="BackgroundImageFix" result="shape"/>
<feGaussianBlur stdDeviation="0.131682" result="effect1_foregroundBlur_17_893"/>
</filter>
<filter id="filter9_f_17_893" x="438.682" y="160.961" width="5.14792" height="5.19957" filterUnits="userSpaceOnUse" color-interpolation-filters="sRGB">
<feFlood flood-opacity="0" result="BackgroundImageFix"/>
<feBlend mode="normal" in="SourceGraphic" in2="BackgroundImageFix" result="shape"/>
<feGaussianBlur stdDeviation="0.120202" result="effect1_foregroundBlur_17_893"/>
</filter>
<filter id="filter10_f_17_893" x="521.806" y="136.162" width="5.05057" height="5.10118" filterUnits="userSpaceOnUse" color-interpolation-filters="sRGB">
<feFlood flood-opacity="0" result="BackgroundImageFix"/>
<feBlend mode="normal" in="SourceGraphic" in2="BackgroundImageFix" result="shape"/>
<feGaussianBlur stdDeviation="0.117927" result="effect1_foregroundBlur_17_893"/>
</filter>
<filter id="filter11_f_17_893" x="550.613" y="149.838" width="5.07682" height="5.12769" filterUnits="userSpaceOnUse" color-interpolation-filters="sRGB">
<feFlood flood-opacity="0" result="BackgroundImageFix"/>
<feBlend mode="normal" in="SourceGraphic" in2="BackgroundImageFix" result="shape"/>
<feGaussianBlur stdDeviation="0.11854" result="effect1_foregroundBlur_17_893"/>
</filter>
<filter id="filter12_f_17_893" x="526.327" y="89.2838" width="4.94352" height="4.99305" filterUnits="userSpaceOnUse" color-interpolation-filters="sRGB">
<feFlood flood-opacity="0" result="BackgroundImageFix"/>
<feBlend mode="normal" in="SourceGraphic" in2="BackgroundImageFix" result="shape"/>
<feGaussianBlur stdDeviation="0.115427" result="effect1_foregroundBlur_17_893"/>
</filter>
<filter id="filter13_f_17_893" x="499.156" y="173.321" width="4.51548" height="4.56072" filterUnits="userSpaceOnUse" color-interpolation-filters="sRGB">
<feFlood flood-opacity="0" result="BackgroundImageFix"/>
<feBlend mode="normal" in="SourceGraphic" in2="BackgroundImageFix" result="shape"/>
<feGaussianBlur stdDeviation="0.105433" result="effect1_foregroundBlur_17_893"/>
</filter>
<filter id="filter14_f_17_893" x="661.573" y="127.591" width="5.60706" height="5.66331" filterUnits="userSpaceOnUse" color-interpolation-filters="sRGB">
<feFlood flood-opacity="0" result="BackgroundImageFix"/>
<feBlend mode="normal" in="SourceGraphic" in2="BackgroundImageFix" result="shape"/>
<feGaussianBlur stdDeviation="0.130922" result="effect1_foregroundBlur_17_893"/>
</filter>
<filter id="filter15_f_17_893" x="861.131" y="37.5981" width="4.86973" height="4.91852" filterUnits="userSpaceOnUse" color-interpolation-filters="sRGB">
<feFlood flood-opacity="0" result="BackgroundImageFix"/>
<feBlend mode="normal" in="SourceGraphic" in2="BackgroundImageFix" result="shape"/>
<feGaussianBlur stdDeviation="0.113704" result="effect1_foregroundBlur_17_893"/>
</filter>
<filter id="filter16_f_17_893" x="998.671" y="99.1187" width="5.12529" height="5.17664" filterUnits="userSpaceOnUse" color-interpolation-filters="sRGB">
<feFlood flood-opacity="0" result="BackgroundImageFix"/>
<feBlend mode="normal" in="SourceGraphic" in2="BackgroundImageFix" result="shape"/>
<feGaussianBlur stdDeviation="0.119672" result="effect1_foregroundBlur_17_893"/>
</filter>
<filter id="filter17_f_17_893" x="963.334" y="44.4778" width="4.41288" height="4.45712" filterUnits="userSpaceOnUse" color-interpolation-filters="sRGB">
<feFlood flood-opacity="0" result="BackgroundImageFix"/>
<feBlend mode="normal" in="SourceGraphic" in2="BackgroundImageFix" result="shape"/>
<feGaussianBlur stdDeviation="0.103038" result="effect1_foregroundBlur_17_893"/>
</filter>
<filter id="filter18_f_17_893" x="723.605" y="22.9708" width="5.68461" height="5.74154" filterUnits="userSpaceOnUse" color-interpolation-filters="sRGB">
<feFlood flood-opacity="0" result="BackgroundImageFix"/>
<feBlend mode="normal" in="SourceGraphic" in2="BackgroundImageFix" result="shape"/>
<feGaussianBlur stdDeviation="0.132731" result="effect1_foregroundBlur_17_893"/>
</filter>
<filter id="filter19_f_17_893" x="735.787" y="7.30016" width="5.09365" height="5.14471" filterUnits="userSpaceOnUse" color-interpolation-filters="sRGB">
<feFlood flood-opacity="0" result="BackgroundImageFix"/>
<feBlend mode="normal" in="SourceGraphic" in2="BackgroundImageFix" result="shape"/>
<feGaussianBlur stdDeviation="0.118933" result="effect1_foregroundBlur_17_893"/>
</filter>
<filter id="filter20_f_17_893" x="769.707" y="13.5543" width="5.96131" height="6.02103" filterUnits="userSpaceOnUse" color-interpolation-filters="sRGB">
<feFlood flood-opacity="0" result="BackgroundImageFix"/>
<feBlend mode="normal" in="SourceGraphic" in2="BackgroundImageFix" result="shape"/>
<feGaussianBlur stdDeviation="0.139192" result="effect1_foregroundBlur_17_893"/>
</filter>
<filter id="filter21_f_17_893" x="92.2995" y="22.0541" width="4.56914" height="4.61495" filterUnits="userSpaceOnUse" color-interpolation-filters="sRGB">
<feFlood flood-opacity="0" result="BackgroundImageFix"/>
<feBlend mode="normal" in="SourceGraphic" in2="BackgroundImageFix" result="shape"/>
<feGaussianBlur stdDeviation="0.106687" result="effect1_foregroundBlur_17_893"/>
</filter>
<filter id="filter22_f_17_893" x="47.4897" y="53.1652" width="5.43848" height="5.49295" filterUnits="userSpaceOnUse" color-interpolation-filters="sRGB">
<feFlood flood-opacity="0" result="BackgroundImageFix"/>
<feBlend mode="normal" in="SourceGraphic" in2="BackgroundImageFix" result="shape"/>
<feGaussianBlur stdDeviation="0.126984" result="effect1_foregroundBlur_17_893"/>
</filter>
<filter id="filter23_f_17_893" x="1066.28" y="65.2397" width="4.41288" height="4.45712" filterUnits="userSpaceOnUse" color-interpolation-filters="sRGB">
<feFlood flood-opacity="0" result="BackgroundImageFix"/>
<feBlend mode="normal" in="SourceGraphic" in2="BackgroundImageFix" result="shape"/>
<feGaussianBlur stdDeviation="0.103038" result="effect1_foregroundBlur_17_893"/>
</filter>
<filter id="filter24_f_17_893" x="165.856" y="687.074" width="4.9858" height="5.03579" filterUnits="userSpaceOnUse" color-interpolation-filters="sRGB">
<feFlood flood-opacity="0" result="BackgroundImageFix"/>
<feBlend mode="normal" in="SourceGraphic" in2="BackgroundImageFix" result="shape"/>
<feGaussianBlur stdDeviation="0.116415" result="effect1_foregroundBlur_17_893"/>
</filter>
<filter id="filter25_f_17_893" x="292.482" y="642.313" width="4.62185" height="4.66815" filterUnits="userSpaceOnUse" color-interpolation-filters="sRGB">
<feFlood flood-opacity="0" result="BackgroundImageFix"/>
<feBlend mode="normal" in="SourceGraphic" in2="BackgroundImageFix" result="shape"/>
<feGaussianBlur stdDeviation="0.107917" result="effect1_foregroundBlur_17_893"/>
</filter>
<filter id="filter26_f_17_893" x="232.094" y="641.814" width="4.63814" height="4.68462" filterUnits="userSpaceOnUse" color-interpolation-filters="sRGB">
<feFlood flood-opacity="0" result="BackgroundImageFix"/>
<feBlend mode="normal" in="SourceGraphic" in2="BackgroundImageFix" result="shape"/>
<feGaussianBlur stdDeviation="0.108297" result="effect1_foregroundBlur_17_893"/>
</filter>
<filter id="filter27_f_17_893" x="285.634" y="617.254" width="4.4491" height="4.49369" filterUnits="userSpaceOnUse" color-interpolation-filters="sRGB">
<feFlood flood-opacity="0" result="BackgroundImageFix"/>
<feBlend mode="normal" in="SourceGraphic" in2="BackgroundImageFix" result="shape"/>
<feGaussianBlur stdDeviation="0.103883" result="effect1_foregroundBlur_17_893"/>
</filter>
<filter id="filter28_f_17_893" x="214.401" y="569.805" width="5.54303" height="5.59857" filterUnits="userSpaceOnUse" color-interpolation-filters="sRGB">
<feFlood flood-opacity="0" result="BackgroundImageFix"/>
<feBlend mode="normal" in="SourceGraphic" in2="BackgroundImageFix" result="shape"/>
<feGaussianBlur stdDeviation="0.129425" result="effect1_foregroundBlur_17_893"/>
</filter>
<filter id="filter29_f_17_893" x="242.963" y="522.662" width="4.91175" height="4.96097" filterUnits="userSpaceOnUse" color-interpolation-filters="sRGB">
<feFlood flood-opacity="0" result="BackgroundImageFix"/>
<feBlend mode="normal" in="SourceGraphic" in2="BackgroundImageFix" result="shape"/>
<feGaussianBlur stdDeviation="0.114686" result="effect1_foregroundBlur_17_893"/>
</filter>
<filter id="filter30_f_17_893" x="287.034" y="580.28" width="5.94959" height="6.00919" filterUnits="userSpaceOnUse" color-interpolation-filters="sRGB">
<feFlood flood-opacity="0" result="BackgroundImageFix"/>
<feBlend mode="normal" in="SourceGraphic" in2="BackgroundImageFix" result="shape"/>
<feGaussianBlur stdDeviation="0.138918" result="effect1_foregroundBlur_17_893"/>
</filter>
<filter id="filter31_f_17_893" x="307.223" y="450.241" width="4.25602" height="4.2987" filterUnits="userSpaceOnUse" color-interpolation-filters="sRGB">
<feFlood flood-opacity="0" result="BackgroundImageFix"/>
<feBlend mode="normal" in="SourceGraphic" in2="BackgroundImageFix" result="shape"/>
<feGaussianBlur stdDeviation="0.0993757" result="effect1_foregroundBlur_17_893"/>
</filter>
<filter id="filter32_f_17_893" x="287.901" y="489.035" width="3.96371" height="4.00344" filterUnits="userSpaceOnUse" color-interpolation-filters="sRGB">
<feFlood flood-opacity="0" result="BackgroundImageFix"/>
<feBlend mode="normal" in="SourceGraphic" in2="BackgroundImageFix" result="shape"/>
<feGaussianBlur stdDeviation="0.0925499" result="effect1_foregroundBlur_17_893"/>
</filter>
<filter id="filter33_f_17_893" x="434.306" y="484.314" width="5.63964" height="5.69619" filterUnits="userSpaceOnUse" color-interpolation-filters="sRGB">
<feFlood flood-opacity="0" result="BackgroundImageFix"/>
<feBlend mode="normal" in="SourceGraphic" in2="BackgroundImageFix" result="shape"/>
<feGaussianBlur stdDeviation="0.131682" result="effect1_foregroundBlur_17_893"/>
</filter>
<filter id="filter34_f_17_893" x="438.682" y="478.864" width="5.14792" height="5.19957" filterUnits="userSpaceOnUse" color-interpolation-filters="sRGB">
<feFlood flood-opacity="0" result="BackgroundImageFix"/>
<feBlend mode="normal" in="SourceGraphic" in2="BackgroundImageFix" result="shape"/>
<feGaussianBlur stdDeviation="0.120202" result="effect1_foregroundBlur_17_893"/>
</filter>
<filter id="filter35_f_17_893" x="521.806" y="503.762" width="5.05057" height="5.10118" filterUnits="userSpaceOnUse" color-interpolation-filters="sRGB">
<feFlood flood-opacity="0" result="BackgroundImageFix"/>
<feBlend mode="normal" in="SourceGraphic" in2="BackgroundImageFix" result="shape"/>
<feGaussianBlur stdDeviation="0.117927" result="effect1_foregroundBlur_17_893"/>
</filter>
<filter id="filter36_f_17_893" x="550.613" y="490.059" width="5.07682" height="5.12769" filterUnits="userSpaceOnUse" color-interpolation-filters="sRGB">
<feFlood flood-opacity="0" result="BackgroundImageFix"/>
<feBlend mode="normal" in="SourceGraphic" in2="BackgroundImageFix" result="shape"/>
<feGaussianBlur stdDeviation="0.11854" result="effect1_foregroundBlur_17_893"/>
</filter>
<filter id="filter37_f_17_893" x="526.327" y="550.748" width="4.94352" height="4.99305" filterUnits="userSpaceOnUse" color-interpolation-filters="sRGB">
<feFlood flood-opacity="0" result="BackgroundImageFix"/>
<feBlend mode="normal" in="SourceGraphic" in2="BackgroundImageFix" result="shape"/>
<feGaussianBlur stdDeviation="0.115427" result="effect1_foregroundBlur_17_893"/>
</filter>
<filter id="filter38_f_17_893" x="499.156" y="467.143" width="4.51548" height="4.56071" filterUnits="userSpaceOnUse" color-interpolation-filters="sRGB">
<feFlood flood-opacity="0" result="BackgroundImageFix"/>
<feBlend mode="normal" in="SourceGraphic" in2="BackgroundImageFix" result="shape"/>
<feGaussianBlur stdDeviation="0.105433" result="effect1_foregroundBlur_17_893"/>
</filter>
<filter id="filter39_f_17_893" x="661.573" y="511.771" width="5.60706" height="5.66331" filterUnits="userSpaceOnUse" color-interpolation-filters="sRGB">
<feFlood flood-opacity="0" result="BackgroundImageFix"/>
<feBlend mode="normal" in="SourceGraphic" in2="BackgroundImageFix" result="shape"/>
<feGaussianBlur stdDeviation="0.130922" result="effect1_foregroundBlur_17_893"/>
</filter>
<filter id="filter40_f_17_893" x="861.131" y="602.508" width="4.86973" height="4.91853" filterUnits="userSpaceOnUse" color-interpolation-filters="sRGB">
<feFlood flood-opacity="0" result="BackgroundImageFix"/>
<feBlend mode="normal" in="SourceGraphic" in2="BackgroundImageFix" result="shape"/>
<feGaussianBlur stdDeviation="0.113704" result="effect1_foregroundBlur_17_893"/>
</filter>
<filter id="filter41_f_17_893" x="825.827" y="661.918" width="4.52396" height="4.56928" filterUnits="userSpaceOnUse" color-interpolation-filters="sRGB">
<feFlood flood-opacity="0" result="BackgroundImageFix"/>
<feBlend mode="normal" in="SourceGraphic" in2="BackgroundImageFix" result="shape"/>
<feGaussianBlur stdDeviation="0.105631" result="effect1_foregroundBlur_17_893"/>
</filter>
<filter id="filter42_f_17_893" x="998.671" y="540.729" width="5.12529" height="5.17665" filterUnits="userSpaceOnUse" color-interpolation-filters="sRGB">
<feFlood flood-opacity="0" result="BackgroundImageFix"/>
<feBlend mode="normal" in="SourceGraphic" in2="BackgroundImageFix" result="shape"/>
<feGaussianBlur stdDeviation="0.119672" result="effect1_foregroundBlur_17_893"/>
</filter>
<filter id="filter43_f_17_893" x="963.334" y="596.09" width="4.41288" height="4.4571" filterUnits="userSpaceOnUse" color-interpolation-filters="sRGB">
<feFlood flood-opacity="0" result="BackgroundImageFix"/>
<feBlend mode="normal" in="SourceGraphic" in2="BackgroundImageFix" result="shape"/>
<feGaussianBlur stdDeviation="0.103038" result="effect1_foregroundBlur_17_893"/>
</filter>
<filter id="filter44_f_17_893" x="968.537" y="675.249" width="4.25575" height="4.29842" filterUnits="userSpaceOnUse" color-interpolation-filters="sRGB">
<feFlood flood-opacity="0" result="BackgroundImageFix"/>
<feBlend mode="normal" in="SourceGraphic" in2="BackgroundImageFix" result="shape"/>
<feGaussianBlur stdDeviation="0.0993695" result="effect1_foregroundBlur_17_893"/>
</filter>
<filter id="filter45_f_17_893" x="723.605" y="616.312" width="5.68461" height="5.74152" filterUnits="userSpaceOnUse" color-interpolation-filters="sRGB">
<feFlood flood-opacity="0" result="BackgroundImageFix"/>
<feBlend mode="normal" in="SourceGraphic" in2="BackgroundImageFix" result="shape"/>
<feGaussianBlur stdDeviation="0.132731" result="effect1_foregroundBlur_17_893"/>
</filter>
<filter id="filter46_f_17_893" x="735.787" y="632.58" width="5.09365" height="5.14471" filterUnits="userSpaceOnUse" color-interpolation-filters="sRGB">
<feFlood flood-opacity="0" result="BackgroundImageFix"/>
<feBlend mode="normal" in="SourceGraphic" in2="BackgroundImageFix" result="shape"/>
<feGaussianBlur stdDeviation="0.118933" result="effect1_foregroundBlur_17_893"/>
</filter>
<filter id="filter47_f_17_893" x="769.707" y="625.449" width="5.96131" height="6.02103" filterUnits="userSpaceOnUse" color-interpolation-filters="sRGB">
<feFlood flood-opacity="0" result="BackgroundImageFix"/>
<feBlend mode="normal" in="SourceGraphic" in2="BackgroundImageFix" result="shape"/>
<feGaussianBlur stdDeviation="0.139192" result="effect1_foregroundBlur_17_893"/>
</filter>
<filter id="filter48_f_17_893" x="741.038" y="662.878" width="4.24969" height="4.29226" filterUnits="userSpaceOnUse" color-interpolation-filters="sRGB">
<feFlood flood-opacity="0" result="BackgroundImageFix"/>
<feBlend mode="normal" in="SourceGraphic" in2="BackgroundImageFix" result="shape"/>
<feGaussianBlur stdDeviation="0.0992272" result="effect1_foregroundBlur_17_893"/>
</filter>
<filter id="filter49_f_17_893" x="92.2995" y="618.356" width="4.56914" height="4.61495" filterUnits="userSpaceOnUse" color-interpolation-filters="sRGB">
<feFlood flood-opacity="0" result="BackgroundImageFix"/>
<feBlend mode="normal" in="SourceGraphic" in2="BackgroundImageFix" result="shape"/>
<feGaussianBlur stdDeviation="0.106687" result="effect1_foregroundBlur_17_893"/>
</filter>
<filter id="filter50_f_17_893" x="47.4897" y="586.367" width="5.43848" height="5.49295" filterUnits="userSpaceOnUse" color-interpolation-filters="sRGB">
<feFlood flood-opacity="0" result="BackgroundImageFix"/>
<feBlend mode="normal" in="SourceGraphic" in2="BackgroundImageFix" result="shape"/>
<feGaussianBlur stdDeviation="0.126984" result="effect1_foregroundBlur_17_893"/>
</filter>
<filter id="filter51_f_17_893" x="1066.28" y="575.328" width="4.41288" height="4.4571" filterUnits="userSpaceOnUse" color-interpolation-filters="sRGB">
<feFlood flood-opacity="0" result="BackgroundImageFix"/>
<feBlend mode="normal" in="SourceGraphic" in2="BackgroundImageFix" result="shape"/>
<feGaussianBlur stdDeviation="0.103038" result="effect1_foregroundBlur_17_893"/>
</filter>
<linearGradient id="paint0_linear_17_893" x1="392.333" y1="188.574" x2="341.504" y2="242.809" gradientUnits="userSpaceOnUse">
<stop stop-color="#616CC0"/>
<stop offset="1" stop-color="#2C008B"/>
</linearGradient>
<linearGradient id="paint1_linear_17_893" x1="416.678" y1="206.11" x2="362.12" y2="249.166" gradientUnits="userSpaceOnUse">
<stop stop-color="#616CC0"/>
<stop offset="1" stop-color="#2C008B"/>
</linearGradient>
<linearGradient id="paint2_linear_17_893" x1="152.424" y1="56.5765" x2="126.711" y2="212.75" gradientUnits="userSpaceOnUse">
<stop stop-color="#7B6C9F"/>
<stop offset="1" stop-color="#2C0064"/>
</linearGradient>
<linearGradient id="paint3_linear_17_893" x1="281.315" y1="165.835" x2="217.71" y2="276.816" gradientUnits="userSpaceOnUse">
<stop stop-color="#7B6C9F"/>
<stop offset="1" stop-color="#2C0064"/>
</linearGradient>
<linearGradient id="paint4_linear_17_893" x1="291.006" y1="188.908" x2="248.656" y2="271.519" gradientUnits="userSpaceOnUse">
<stop stop-color="#7B6C9F"/>
<stop offset="1" stop-color="#2C0064"/>
</linearGradient>
<linearGradient id="paint5_linear_17_893" x1="366.227" y1="246.591" x2="325.857" y2="301.022" gradientUnits="userSpaceOnUse">
<stop stop-color="#7B6C9F"/>
<stop offset="1" stop-color="#2C0064"/>
</linearGradient>
<linearGradient id="paint6_linear_17_893" x1="299.153" y1="226.251" x2="269.687" y2="284.026" gradientUnits="userSpaceOnUse">
<stop stop-color="#7B6C9F"/>
<stop offset="1" stop-color="#2C0064"/>
</linearGradient>
<linearGradient id="paint7_linear_17_893" x1="722.646" y1="150.263" x2="783.964" y2="203.864" gradientUnits="userSpaceOnUse">
<stop stop-color="#7B6C9F"/>
<stop offset="1" stop-color="#2C0064"/>
</linearGradient>
<linearGradient id="paint8_linear_17_893" x1="674.653" y1="207.874" x2="689.299" y2="252.885" gradientUnits="userSpaceOnUse">
<stop stop-color="#7B6C9F"/>
<stop offset="1" stop-color="#2C0064"/>
</linearGradient>
<linearGradient id="paint9_linear_17_893" x1="803.878" y1="138" x2="848.42" y2="188.549" gradientUnits="userSpaceOnUse">
<stop stop-color="#7B6C9F"/>
<stop offset="1" stop-color="#2C0064"/>
</linearGradient>
<linearGradient id="paint10_linear_17_893" x1="807.96" y1="122.375" x2="873.492" y2="149.684" gradientUnits="userSpaceOnUse">
<stop stop-color="#7B6C9F"/>
<stop offset="1" stop-color="#2C0064"/>
</linearGradient>
<linearGradient id="paint11_linear_17_893" x1="327.77" y1="240.074" x2="343.152" y2="306.466" gradientUnits="userSpaceOnUse">
<stop stop-color="#7B6C9F"/>
<stop offset="1" stop-color="#2C0064"/>
</linearGradient>
<radialGradient id="paint12_radial_17_893" cx="0" cy="0" r="1" gradientUnits="userSpaceOnUse" gradientTransform="translate(536.607 270.402) rotate(1.34426) scale(141.161 64.7821)">
<stop stop-color="#2C0064"/>
<stop offset="0.813725" stop-color="#533681"/>
<stop offset="1" stop-color="#7B6C9F"/>
</radialGradient>
<linearGradient id="paint13_linear_17_893" x1="112.18" y1="206.799" x2="100.25" y2="255.489" gradientUnits="userSpaceOnUse">
<stop stop-color="#7B6C9F"/>
<stop offset="1" stop-color="#2C0064"/>
</linearGradient>
<linearGradient id="paint14_linear_17_893" x1="102.386" y1="145.352" x2="175.631" y2="106.565" gradientUnits="userSpaceOnUse">
<stop stop-color="#2C0064"/>
<stop offset="0.813725" stop-color="#533681"/>
<stop offset="1" stop-color="#7B6C9F"/>
</linearGradient>
<linearGradient id="paint15_linear_17_893" x1="64.5236" y1="116.528" x2="95.1138" y2="86.0918" gradientUnits="userSpaceOnUse">
<stop stop-color="#2C0064"/>
<stop offset="0.813725" stop-color="#533681"/>
<stop offset="1" stop-color="#7B6C9F"/>
</linearGradient>
<linearGradient id="paint16_linear_17_893" x1="805.775" y1="175.91" x2="798.989" y2="129.549" gradientUnits="userSpaceOnUse">
<stop stop-color="#2C0064"/>
<stop offset="0.813725" stop-color="#533681"/>
<stop offset="1" stop-color="#7B6C9F"/>
</linearGradient>
<linearGradient id="paint17_linear_17_893" x1="133.529" y1="143.727" x2="89.3948" y2="180.433" gradientUnits="userSpaceOnUse">
<stop stop-color="#7B6C9F"/>
<stop offset="1" stop-color="#2C0064"/>
</linearGradient>
<linearGradient id="paint18_linear_17_893" x1="840.227" y1="324.914" x2="800.389" y2="225.945" gradientUnits="userSpaceOnUse">
<stop stop-color="#7B6C9F"/>
<stop offset="1" stop-color="#2C0064"/>
</linearGradient>
<linearGradient id="paint19_linear_17_893" x1="392.333" y1="456.451" x2="341.504" y2="402.215" gradientUnits="userSpaceOnUse">
<stop stop-color="#616CC0"/>
<stop offset="1" stop-color="#2C008B"/>
</linearGradient>
<linearGradient id="paint20_linear_17_893" x1="416.678" y1="438.915" x2="362.12" y2="395.859" gradientUnits="userSpaceOnUse">
<stop stop-color="#616CC0"/>
<stop offset="1" stop-color="#2C008B"/>
</linearGradient>
<linearGradient id="paint21_linear_17_893" x1="152.424" y1="588.449" x2="126.711" y2="432.275" gradientUnits="userSpaceOnUse">
<stop stop-color="#7B6C9F"/>
<stop offset="1" stop-color="#2C0064"/>
</linearGradient>
<linearGradient id="paint22_linear_17_893" x1="281.315" y1="479.19" x2="217.71" y2="368.209" gradientUnits="userSpaceOnUse">
<stop stop-color="#7B6C9F"/>
<stop offset="1" stop-color="#2C0064"/>
</linearGradient>
<linearGradient id="paint23_linear_17_893" x1="291.006" y1="456.117" x2="248.656" y2="373.506" gradientUnits="userSpaceOnUse">
<stop stop-color="#7B6C9F"/>
<stop offset="1" stop-color="#2C0064"/>
</linearGradient>
<linearGradient id="paint24_linear_17_893" x1="366.227" y1="398.434" x2="325.857" y2="344.003" gradientUnits="userSpaceOnUse">
<stop stop-color="#7B6C9F"/>
<stop offset="1" stop-color="#2C0064"/>
</linearGradient>
<linearGradient id="paint25_linear_17_893" x1="299.153" y1="418.773" x2="269.687" y2="360.998" gradientUnits="userSpaceOnUse">
<stop stop-color="#7B6C9F"/>
<stop offset="1" stop-color="#2C0064"/>
</linearGradient>
<linearGradient id="paint26_linear_17_893" x1="722.646" y1="494.762" x2="783.964" y2="441.16" gradientUnits="userSpaceOnUse">
<stop stop-color="#7B6C9F"/>
<stop offset="1" stop-color="#2C0064"/>
</linearGradient>
<linearGradient id="paint27_linear_17_893" x1="674.653" y1="437.151" x2="689.299" y2="392.14" gradientUnits="userSpaceOnUse">
<stop stop-color="#7B6C9F"/>
<stop offset="1" stop-color="#2C0064"/>
</linearGradient>
<linearGradient id="paint28_linear_17_893" x1="803.878" y1="507.025" x2="848.42" y2="456.476" gradientUnits="userSpaceOnUse">
<stop stop-color="#7B6C9F"/>
<stop offset="1" stop-color="#2C0064"/>
</linearGradient>
<linearGradient id="paint29_linear_17_893" x1="807.96" y1="522.65" x2="873.492" y2="495.341" gradientUnits="userSpaceOnUse">
<stop stop-color="#7B6C9F"/>
<stop offset="1" stop-color="#2C0064"/>
</linearGradient>
<linearGradient id="paint30_linear_17_893" x1="327.77" y1="404.951" x2="343.152" y2="338.559" gradientUnits="userSpaceOnUse">
<stop stop-color="#7B6C9F"/>
<stop offset="1" stop-color="#2C0064"/>
</linearGradient>
<radialGradient id="paint31_radial_17_893" cx="0" cy="0" r="1" gradientUnits="userSpaceOnUse" gradientTransform="translate(536.607 374.623) rotate(-1.34426) scale(141.161 64.782)">
<stop stop-color="#2C0064"/>
<stop offset="0.813725" stop-color="#533681"/>
<stop offset="1" stop-color="#7B6C9F"/>
</radialGradient>
<linearGradient id="paint32_linear_17_893" x1="112.18" y1="438.226" x2="100.25" y2="389.536" gradientUnits="userSpaceOnUse">
<stop stop-color="#7B6C9F"/>
<stop offset="1" stop-color="#2C0064"/>
</linearGradient>
<linearGradient id="paint33_linear_17_893" x1="102.386" y1="499.673" x2="175.631" y2="538.459" gradientUnits="userSpaceOnUse">
<stop stop-color="#2C0064"/>
<stop offset="0.813725" stop-color="#533681"/>
<stop offset="1" stop-color="#7B6C9F"/>
</linearGradient>
<linearGradient id="paint34_linear_17_893" x1="64.5236" y1="528.497" x2="95.1138" y2="558.933" gradientUnits="userSpaceOnUse">
<stop stop-color="#2C0064"/>
<stop offset="0.813725" stop-color="#533681"/>
<stop offset="1" stop-color="#7B6C9F"/>
</linearGradient>
<linearGradient id="paint35_linear_17_893" x1="805.775" y1="469.114" x2="798.989" y2="515.476" gradientUnits="userSpaceOnUse">
<stop stop-color="#2C0064"/>
<stop offset="0.813725" stop-color="#533681"/>
<stop offset="1" stop-color="#7B6C9F"/>
</linearGradient>
<linearGradient id="paint36_linear_17_893" x1="133.529" y1="501.298" x2="89.3948" y2="464.591" gradientUnits="userSpaceOnUse">
<stop stop-color="#7B6C9F"/>
<stop offset="1" stop-color="#2C0064"/>
</linearGradient>
<linearGradient id="paint37_linear_17_893" x1="840.227" y1="320.111" x2="800.389" y2="419.08" gradientUnits="userSpaceOnUse">
<stop stop-color="#7B6C9F"/>
<stop offset="1" stop-color="#2C0064"/>
</linearGradient>
<clipPath id="clip0_17_893">
<rect width="1115" height="703" fill="white"/>
</clipPath>
</defs>
</svg>
