<svg width="743" height="720" viewBox="0 0 743 720" fill="none" xmlns="http://www.w3.org/2000/svg">
<g id="moonMountain" clip-path="url(#clip0_13_3)">
<g id="mountains">
<path id="path10761" d="M253.454 421.299C254.728 421.537 267.844 432.542 267.844 432.542C267.844 432.542 295.337 444.249 303.828 451.759C312.32 459.27 316.316 459.785 312.373 459.709C308.43 459.634 287.89 448.682 285.103 449.48C282.316 450.278 261.32 439.233 261.32 439.233C261.32 439.233 255.54 434.863 254.74 432.079C253.941 429.295 243.729 416.764 243.729 416.764L253.454 421.299Z" fill="url(#paint0_linear_13_3)"/>
<path id="path10802" d="M263.271 438.389C261.488 444.542 265.54 456.201 266.026 460.411C266.512 464.622 276.075 467.86 278.02 467.698C279.965 467.535 301.035 456.363 300.063 455.715C299.09 455.068 288.393 448.267 286.61 448.267C284.827 448.267 265.215 440.332 263.271 438.389Z" fill="url(#paint1_linear_13_3)"/>
<path id="path10763" d="M244.631 417.015C239.769 418.958 230.692 425.759 230.692 425.759C230.692 425.759 216.429 425.111 215.457 426.73C214.484 428.35 203.463 437.418 201.518 437.742C199.573 438.065 236.203 460.411 242.362 459.44C248.521 458.468 267.322 472.07 269.916 471.746C272.509 471.423 261.812 441.952 263.432 439.685C265.053 437.418 257.922 433.208 256.625 431.912C255.328 430.617 244.631 417.015 244.631 417.015Z" fill="#352F9A"/>
<path id="path9917" d="M47.7063 336.066C47.7063 336.066 39.7629 330.545 57.9158 327.954C67.2215 329.865 70.6069 331.235 78.503 332.978C85.4823 337.928 93.3605 356.611 106.327 357.906C102.335 362.586 101.991 364.305 96.657 366.287C89.3594 367.068 71.8593 372.295 74.4526 377.477C77.0459 382.658 47.7063 336.066 47.7063 336.066Z" fill="url(#paint2_linear_13_3)"/>
<path id="path10714" d="M94.4154 356.6C89.2074 356.469 93.7777 357.362 85.0332 362.153C98.3493 406.953 110.407 416.681 121.998 421.724C138.2 422.605 156.614 416.335 160.745 414.337C153.004 406.042 126.481 377.241 119.142 362.751C113.114 360.882 112.907 358.728 106.424 358.08C104.721 357.91 96.0559 357.46 94.4154 356.6Z" fill="url(#paint3_linear_13_3)"/>
<path id="path10751" d="M122.423 413.452C137.983 412.481 153.218 412.157 160.35 413.776C167.481 415.395 191.469 426.73 193.738 430.617C196.007 434.503 251.763 451.343 254.356 456.201C256.949 461.059 283.206 466.889 290.986 468.184C298.766 469.479 201.518 489.558 188.552 487.291C175.585 485.024 111.078 412.805 122.423 413.452Z" fill="url(#paint4_linear_13_3)"/>
<path id="path10739" d="M211.983 461.532C221.152 461.074 233.988 461.99 237.655 462.906C241.323 463.822 262.411 471.608 265.161 472.982C267.912 474.356 244.073 480.31 240.864 480.31C237.655 480.31 211.983 461.532 211.983 461.532Z" fill="url(#paint5_linear_13_3)"/>
<path id="path10729" d="M154.221 448.25C176.684 448.25 206.024 454.662 215.651 460.616C225.278 466.57 249.116 478.02 246.366 480.31C243.615 482.6 192.271 486.264 186.311 483.974C180.352 481.684 154.221 448.25 154.221 448.25Z" fill="url(#paint6_linear_13_3)"/>
<path id="path10695" d="M-14.178 363.062C-7.30153 358.711 8.15865 353.352 14.26 349.527C16.2916 347.561 17.612 344.369 22.9407 341.593C33.5979 336.039 42.1349 332.146 47.4069 330.085C51.0743 330.085 51.9912 321.841 58.4092 337.413C64.8272 352.985 67.5222 362.414 73.2363 365.541C77.2279 364.19 87.1757 358.367 92.7342 357.852C98.2927 357.336 103.028 362.129 107.383 361.442C112.425 371.976 114.338 399.702 123.506 413.442C129.008 413.442 143.104 432.907 155.195 447.448C171.871 445.502 174.163 462.906 201.898 483.516C199.147 488.096 -14.178 464.738 -14.178 464.738V363.062Z" fill="#35006F"/>
<path id="path4857" d="M-14.178 449.624C59.1709 434.968 110.446 443.67 139.786 460.158C169.125 476.646 209.467 489.47 257.144 472.982C304.821 456.494 317.657 432.678 357.999 429.014C398.34 425.35 396.507 434.51 433.181 440.006C469.856 445.502 502.863 410.694 524.867 396.038C546.872 381.382 564.191 394.292 597.643 374.489C603.03 378.84 613.464 380.535 614.96 385.55C645.336 393.542 741.036 431.151 785.841 423.518C785.841 432.723 785.841 519.232 785.841 519.232H-14.178V449.624Z" fill="#2B0054"/>
<path id="path5682" d="M546.182 395.386C544.886 397.977 517.656 429.067 507.283 436.192C498.105 435.663 493.996 430.871 474.33 430.284C497.67 417.33 524.788 389.557 533.216 386.966C538.318 386.229 548.556 390.815 546.182 395.386Z" fill="url(#paint7_linear_13_3)"/>
<g id="path5718" filter="url(#filter0_f_13_3)">
<path d="M108.275 256.51C108.275 256.723 108.234 256.935 108.152 257.132C108.071 257.329 107.952 257.508 107.801 257.659C107.65 257.81 107.471 257.93 107.274 258.011C107.077 258.093 106.866 258.135 106.653 258.135C106.439 258.135 106.228 258.093 106.031 258.011C105.834 257.93 105.655 257.81 105.504 257.659C105.354 257.508 105.234 257.329 105.153 257.132C105.072 256.935 105.03 256.723 105.031 256.51C105.03 256.297 105.072 256.086 105.153 255.889C105.234 255.692 105.354 255.513 105.504 255.362C105.655 255.211 105.834 255.091 106.031 255.009C106.228 254.928 106.439 254.886 106.653 254.886C106.866 254.886 107.077 254.928 107.274 255.009C107.471 255.091 107.65 255.211 107.801 255.362C107.952 255.513 108.071 255.692 108.152 255.889C108.234 256.086 108.275 256.297 108.275 256.51Z" fill="white"/>
</g>
<g id="path5720" filter="url(#filter1_f_13_3)">
<path d="M198.897 288.467C198.898 288.665 198.859 288.861 198.784 289.043C198.708 289.226 198.598 289.392 198.458 289.532C198.319 289.672 198.153 289.783 197.97 289.859C197.787 289.935 197.591 289.974 197.394 289.974C197.196 289.974 197 289.935 196.817 289.859C196.635 289.783 196.469 289.672 196.329 289.532C196.189 289.392 196.079 289.226 196.003 289.043C195.928 288.861 195.89 288.665 195.89 288.467C195.89 288.27 195.928 288.074 196.003 287.891C196.079 287.709 196.189 287.543 196.329 287.403C196.469 287.263 196.635 287.152 196.817 287.076C197 287 197.196 286.961 197.394 286.961C197.591 286.961 197.787 287 197.97 287.076C198.153 287.152 198.319 287.263 198.458 287.403C198.598 287.543 198.708 287.709 198.784 287.891C198.859 288.074 198.898 288.27 198.897 288.467Z" fill="white"/>
</g>
<g id="path5722" filter="url(#filter2_f_13_3)">
<path d="M155.572 288.816C155.572 289.015 155.534 289.211 155.458 289.395C155.382 289.578 155.272 289.745 155.131 289.885C154.991 290.025 154.825 290.137 154.641 290.213C154.458 290.289 154.261 290.328 154.063 290.328C153.865 290.328 153.668 290.289 153.485 290.213C153.301 290.137 153.135 290.025 152.995 289.885C152.855 289.745 152.743 289.578 152.668 289.395C152.592 289.211 152.554 289.015 152.554 288.816C152.554 288.618 152.592 288.422 152.668 288.238C152.743 288.055 152.855 287.888 152.995 287.748C153.135 287.608 153.301 287.496 153.485 287.42C153.668 287.344 153.865 287.305 154.063 287.305C154.261 287.305 154.458 287.344 154.641 287.42C154.825 287.496 154.991 287.608 155.131 287.748C155.272 287.888 155.382 288.055 155.458 288.238C155.534 288.422 155.572 288.618 155.572 288.816Z" fill="white"/>
</g>
<g id="path5725" filter="url(#filter3_f_13_3)">
<path d="M193.865 306.347C193.865 306.537 193.828 306.725 193.756 306.901C193.683 307.077 193.577 307.237 193.442 307.372C193.308 307.506 193.148 307.613 192.972 307.686C192.796 307.759 192.608 307.797 192.418 307.797C192.227 307.797 192.039 307.759 191.863 307.686C191.687 307.613 191.527 307.506 191.393 307.372C191.258 307.237 191.152 307.077 191.079 306.901C191.007 306.725 190.97 306.537 190.97 306.347C190.97 306.157 191.007 305.968 191.079 305.792C191.152 305.616 191.258 305.457 191.393 305.322C191.527 305.187 191.687 305.08 191.863 305.007C192.039 304.935 192.227 304.897 192.418 304.897C192.608 304.897 192.796 304.935 192.972 305.007C193.148 305.08 193.308 305.187 193.442 305.322C193.577 305.457 193.683 305.616 193.756 305.792C193.828 305.968 193.865 306.157 193.865 306.347Z" fill="white"/>
</g>
<g id="path5727" filter="url(#filter4_f_13_3)">
<path d="M143.494 339.692C143.494 339.929 143.448 340.163 143.358 340.383C143.267 340.602 143.135 340.801 142.967 340.969C142.8 341.136 142.601 341.27 142.382 341.36C142.163 341.451 141.928 341.498 141.691 341.498C141.453 341.498 141.219 341.451 141 341.36C140.78 341.27 140.581 341.136 140.414 340.969C140.246 340.801 140.114 340.602 140.023 340.383C139.933 340.163 139.887 339.929 139.887 339.692C139.887 339.455 139.933 339.22 140.023 339.001C140.114 338.782 140.246 338.583 140.414 338.415C140.581 338.247 140.78 338.114 141 338.023C141.219 337.932 141.453 337.885 141.691 337.885C141.928 337.885 142.163 337.932 142.382 338.023C142.601 338.114 142.8 338.247 142.967 338.415C143.135 338.583 143.267 338.782 143.358 339.001C143.448 339.22 143.494 339.455 143.494 339.692Z" fill="white"/>
</g>
<g id="path5729" filter="url(#filter5_f_13_3)">
<path d="M163.559 373.438C163.559 373.648 163.518 373.856 163.438 374.05C163.358 374.245 163.241 374.421 163.092 374.57C162.944 374.719 162.767 374.836 162.573 374.917C162.379 374.997 162.171 375.039 161.961 375.039C161.751 375.039 161.543 374.997 161.348 374.917C161.154 374.836 160.978 374.719 160.83 374.57C160.681 374.421 160.563 374.245 160.483 374.05C160.403 373.856 160.362 373.648 160.363 373.438C160.362 373.228 160.403 373.02 160.483 372.826C160.563 372.632 160.681 372.456 160.83 372.307C160.978 372.158 161.154 372.04 161.348 371.96C161.543 371.879 161.751 371.838 161.961 371.838C162.171 371.838 162.379 371.879 162.573 371.96C162.767 372.04 162.944 372.158 163.092 372.307C163.241 372.456 163.358 372.632 163.438 372.826C163.518 373.02 163.559 373.228 163.559 373.438Z" fill="white"/>
</g>
<g id="path5731" filter="url(#filter6_f_13_3)">
<path d="M195.896 332.098C195.896 332.353 195.847 332.604 195.75 332.84C195.653 333.075 195.511 333.289 195.331 333.469C195.151 333.649 194.937 333.792 194.702 333.889C194.467 333.987 194.215 334.037 193.96 334.037C193.706 334.037 193.454 333.987 193.219 333.889C192.983 333.792 192.77 333.649 192.59 333.469C192.41 333.289 192.268 333.075 192.171 332.84C192.074 332.604 192.024 332.353 192.025 332.098C192.024 331.844 192.074 331.592 192.171 331.357C192.268 331.122 192.41 330.908 192.59 330.728C192.77 330.548 192.983 330.405 193.219 330.307C193.454 330.21 193.706 330.159 193.96 330.159C194.215 330.159 194.467 330.21 194.702 330.307C194.937 330.405 195.151 330.548 195.331 330.728C195.511 330.908 195.653 331.122 195.75 331.357C195.847 331.592 195.896 331.844 195.896 332.098Z" fill="white"/>
</g>
<g id="path5733" filter="url(#filter7_f_13_3)">
<path d="M209.226 425.167C209.227 425.349 209.191 425.53 209.122 425.698C209.052 425.866 208.95 426.019 208.822 426.148C208.693 426.277 208.54 426.379 208.372 426.449C208.204 426.518 208.024 426.554 207.842 426.554C207.659 426.554 207.479 426.518 207.311 426.449C207.143 426.379 206.99 426.277 206.861 426.148C206.733 426.019 206.631 425.866 206.561 425.698C206.492 425.53 206.457 425.349 206.457 425.167C206.457 424.985 206.492 424.805 206.561 424.637C206.631 424.469 206.733 424.316 206.861 424.187C206.99 424.058 207.143 423.956 207.311 423.886C207.479 423.816 207.659 423.781 207.842 423.781C208.024 423.781 208.204 423.816 208.372 423.886C208.54 423.956 208.693 424.058 208.822 424.187C208.95 424.316 209.052 424.469 209.122 424.637C209.191 424.805 209.227 424.985 209.226 425.167Z" fill="white"/>
</g>
<g id="path5735" filter="url(#filter8_f_13_3)">
<path d="M195.159 397.689C195.16 397.858 195.127 398.026 195.062 398.183C194.998 398.339 194.903 398.482 194.783 398.602C194.663 398.722 194.521 398.817 194.364 398.882C194.208 398.947 194.04 398.98 193.87 398.98C193.7 398.98 193.532 398.947 193.376 398.882C193.219 398.817 193.077 398.722 192.957 398.602C192.837 398.482 192.742 398.339 192.678 398.183C192.613 398.026 192.58 397.858 192.581 397.689C192.58 397.519 192.613 397.351 192.678 397.195C192.742 397.038 192.837 396.896 192.957 396.776C193.077 396.656 193.219 396.561 193.376 396.496C193.532 396.431 193.7 396.397 193.87 396.397C194.04 396.397 194.208 396.431 194.364 396.496C194.521 396.561 194.663 396.656 194.783 396.776C194.903 396.896 194.998 397.038 195.062 397.195C195.127 397.351 195.16 397.519 195.159 397.689Z" fill="white"/>
</g>
<g id="path5737" filter="url(#filter9_f_13_3)">
<path d="M301.372 400.443C301.373 400.684 301.326 400.923 301.234 401.146C301.142 401.369 301.007 401.572 300.837 401.742C300.666 401.913 300.464 402.049 300.241 402.141C300.018 402.233 299.779 402.281 299.538 402.281C299.296 402.281 299.057 402.233 298.835 402.141C298.612 402.049 298.409 401.913 298.239 401.742C298.068 401.572 297.933 401.369 297.841 401.146C297.749 400.923 297.702 400.684 297.703 400.443C297.702 400.202 297.749 399.963 297.841 399.74C297.933 399.517 298.068 399.315 298.239 399.144C298.409 398.973 298.612 398.838 298.835 398.745C299.057 398.653 299.296 398.605 299.538 398.605C299.779 398.605 300.018 398.653 300.241 398.745C300.464 398.838 300.666 398.973 300.837 399.144C301.007 399.315 301.142 399.517 301.234 399.74C301.326 399.963 301.373 400.202 301.372 400.443Z" fill="white"/>
</g>
<g id="path5739" filter="url(#filter10_f_13_3)">
<path d="M304.176 404.495C304.177 404.715 304.134 404.933 304.05 405.136C303.966 405.34 303.843 405.525 303.687 405.681C303.532 405.837 303.347 405.96 303.143 406.045C302.94 406.129 302.722 406.172 302.501 406.172C302.281 406.172 302.063 406.129 301.859 406.045C301.656 405.96 301.471 405.837 301.316 405.681C301.16 405.525 301.037 405.34 300.953 405.136C300.869 404.933 300.826 404.715 300.827 404.495C300.826 404.275 300.869 404.057 300.953 403.853C301.037 403.65 301.16 403.465 301.316 403.309C301.471 403.153 301.656 403.03 301.859 402.945C302.063 402.861 302.281 402.817 302.501 402.817C302.722 402.817 302.94 402.861 303.143 402.945C303.347 403.03 303.532 403.153 303.687 403.309C303.843 403.465 303.966 403.65 304.05 403.853C304.134 404.057 304.177 404.275 304.176 404.495Z" fill="white"/>
</g>
<g id="path5741" filter="url(#filter11_f_13_3)">
<path d="M363.763 386.827C363.763 387.043 363.721 387.257 363.639 387.457C363.556 387.657 363.435 387.838 363.283 387.991C363.13 388.144 362.949 388.265 362.749 388.348C362.55 388.431 362.336 388.473 362.12 388.473C361.903 388.473 361.689 388.431 361.49 388.348C361.29 388.265 361.109 388.144 360.956 387.991C360.804 387.838 360.683 387.657 360.6 387.457C360.518 387.257 360.476 387.043 360.477 386.827C360.476 386.612 360.518 386.398 360.6 386.198C360.683 385.998 360.804 385.817 360.956 385.664C361.109 385.511 361.29 385.39 361.49 385.307C361.689 385.224 361.903 385.182 362.12 385.182C362.336 385.182 362.55 385.224 362.749 385.307C362.949 385.39 363.13 385.511 363.283 385.664C363.435 385.817 363.556 385.998 363.639 386.198C363.721 386.398 363.763 386.612 363.763 386.827Z" fill="white"/>
</g>
<g id="path5743" filter="url(#filter12_f_13_3)">
<path d="M384.453 396.561C384.454 396.778 384.412 396.993 384.329 397.193C384.246 397.394 384.125 397.577 383.971 397.73C383.818 397.884 383.636 398.006 383.435 398.089C383.234 398.172 383.019 398.215 382.802 398.215C382.585 398.215 382.37 398.172 382.169 398.089C381.968 398.006 381.786 397.884 381.633 397.73C381.479 397.577 381.358 397.394 381.275 397.193C381.192 396.993 381.15 396.778 381.15 396.561C381.15 396.344 381.192 396.129 381.275 395.928C381.358 395.727 381.479 395.545 381.633 395.391C381.786 395.238 381.968 395.116 382.169 395.032C382.37 394.949 382.585 394.906 382.802 394.906C383.019 394.906 383.234 394.949 383.435 395.032C383.636 395.116 383.818 395.238 383.971 395.391C384.125 395.545 384.246 395.727 384.329 395.928C384.412 396.129 384.454 396.344 384.453 396.561Z" fill="white"/>
</g>
<g id="path5745" filter="url(#filter13_f_13_3)">
<path d="M366.934 353.457C366.934 353.668 366.893 353.878 366.812 354.073C366.732 354.269 366.613 354.446 366.464 354.596C366.315 354.746 366.137 354.864 365.942 354.945C365.746 355.026 365.537 355.068 365.325 355.068C365.114 355.068 364.904 355.026 364.709 354.945C364.514 354.864 364.336 354.746 364.187 354.596C364.037 354.446 363.919 354.269 363.838 354.073C363.758 353.878 363.717 353.668 363.717 353.457C363.717 353.246 363.758 353.036 363.838 352.841C363.919 352.646 364.037 352.468 364.187 352.318C364.336 352.169 364.514 352.05 364.709 351.969C364.904 351.888 365.114 351.846 365.325 351.846C365.537 351.846 365.746 351.888 365.942 351.969C366.137 352.05 366.315 352.169 366.464 352.318C366.613 352.468 366.732 352.646 366.812 352.841C366.893 353.036 366.934 353.246 366.934 353.457Z" fill="white"/>
</g>
<g id="path5747" filter="url(#filter14_f_13_3)">
<path d="M347.142 413.056C347.142 413.249 347.105 413.44 347.031 413.619C346.958 413.797 346.85 413.96 346.713 414.096C346.577 414.233 346.414 414.341 346.236 414.415C346.058 414.489 345.866 414.528 345.673 414.528C345.48 414.528 345.288 414.489 345.11 414.415C344.932 414.341 344.769 414.233 344.633 414.096C344.496 413.96 344.388 413.797 344.315 413.619C344.241 413.44 344.204 413.249 344.204 413.056C344.204 412.863 344.241 412.672 344.315 412.493C344.388 412.315 344.496 412.153 344.633 412.016C344.769 411.879 344.932 411.771 345.11 411.697C345.288 411.623 345.48 411.585 345.673 411.585C345.866 411.585 346.058 411.623 346.236 411.697C346.414 411.771 346.577 411.879 346.713 412.016C346.85 412.153 346.958 412.315 347.031 412.493C347.105 412.672 347.142 412.863 347.142 413.056Z" fill="white"/>
</g>
<g id="path5749" filter="url(#filter15_f_13_3)">
<path d="M464.445 380.933C464.446 381.172 464.399 381.41 464.308 381.632C464.216 381.853 464.082 382.055 463.913 382.224C463.743 382.394 463.542 382.529 463.32 382.621C463.099 382.713 462.861 382.76 462.621 382.76C462.381 382.76 462.144 382.713 461.922 382.621C461.7 382.529 461.499 382.394 461.33 382.224C461.16 382.055 461.026 381.853 460.935 381.632C460.843 381.41 460.796 381.172 460.797 380.933C460.796 380.693 460.843 380.456 460.935 380.234C461.026 380.012 461.16 379.811 461.33 379.641C461.499 379.471 461.7 379.337 461.922 379.245C462.144 379.153 462.381 379.106 462.621 379.106C462.861 379.106 463.099 379.153 463.32 379.245C463.542 379.337 463.743 379.471 463.913 379.641C464.082 379.811 464.216 380.012 464.308 380.234C464.399 380.456 464.446 380.693 464.445 380.933Z" fill="white"/>
</g>
<g id="path5751" filter="url(#filter16_f_13_3)">
<path d="M607.151 316.681C607.152 316.889 607.111 317.095 607.032 317.288C606.953 317.48 606.836 317.655 606.689 317.802C606.542 317.95 606.367 318.067 606.174 318.147C605.982 318.226 605.776 318.268 605.567 318.268C605.359 318.268 605.153 318.226 604.96 318.147C604.768 318.067 604.593 317.95 604.446 317.802C604.298 317.655 604.182 317.48 604.102 317.288C604.023 317.095 603.983 316.889 603.983 316.681C603.983 316.472 604.023 316.266 604.102 316.074C604.182 315.881 604.298 315.706 604.446 315.559C604.593 315.411 604.768 315.295 604.96 315.215C605.153 315.135 605.359 315.094 605.567 315.094C605.776 315.094 605.982 315.135 606.174 315.215C606.367 315.295 606.542 315.411 606.689 315.559C606.836 315.706 606.953 315.881 607.032 316.074C607.111 316.266 607.152 316.472 607.151 316.681Z" fill="white"/>
</g>
<g id="path5753" filter="url(#filter17_f_13_3)">
<path d="M581.58 274.563C581.58 274.756 581.542 274.948 581.469 275.126C581.395 275.305 581.287 275.468 581.15 275.605C581.013 275.742 580.851 275.85 580.672 275.924C580.493 275.999 580.301 276.037 580.108 276.037C579.914 276.037 579.723 275.999 579.544 275.924C579.365 275.85 579.203 275.742 579.066 275.605C578.929 275.468 578.821 275.305 578.747 275.126C578.673 274.948 578.636 274.756 578.636 274.563C578.636 274.369 578.673 274.178 578.747 273.999C578.821 273.82 578.929 273.657 579.066 273.521C579.203 273.384 579.365 273.275 579.544 273.201C579.723 273.127 579.914 273.088 580.108 273.088C580.301 273.088 580.493 273.127 580.672 273.201C580.851 273.275 581.013 273.384 581.15 273.521C581.287 273.657 581.395 273.82 581.469 273.999C581.542 274.178 581.58 274.369 581.58 274.563Z" fill="white"/>
</g>
<g id="path5755" filter="url(#filter18_f_13_3)">
<path d="M596.888 204.679C596.889 204.92 596.842 205.159 596.75 205.381C596.658 205.604 596.524 205.806 596.354 205.977C596.183 206.147 595.981 206.282 595.759 206.375C595.536 206.467 595.297 206.514 595.056 206.514C594.816 206.514 594.577 206.467 594.354 206.375C594.132 206.282 593.93 206.147 593.759 205.977C593.589 205.806 593.454 205.604 593.363 205.381C593.271 205.159 593.224 204.92 593.225 204.679C593.224 204.439 593.271 204.2 593.363 203.978C593.454 203.755 593.589 203.553 593.759 203.382C593.93 203.212 594.132 203.076 594.354 202.984C594.577 202.892 594.816 202.844 595.056 202.844C595.297 202.844 595.536 202.892 595.759 202.984C595.981 203.076 596.183 203.212 596.354 203.382C596.524 203.553 596.658 203.755 596.75 203.978C596.842 204.2 596.889 204.439 596.888 204.679Z" fill="white"/>
</g>
<g id="path5757" filter="url(#filter19_f_13_3)">
<path d="M625.012 217.258C625.012 217.466 624.972 217.671 624.893 217.863C624.814 218.055 624.698 218.23 624.551 218.376C624.404 218.523 624.23 218.64 624.038 218.72C623.846 218.799 623.641 218.84 623.433 218.84C623.225 218.84 623.02 218.799 622.828 218.72C622.636 218.64 622.462 218.523 622.315 218.376C622.168 218.23 622.052 218.055 621.973 217.863C621.894 217.671 621.853 217.466 621.854 217.258C621.853 217.051 621.894 216.845 621.973 216.653C622.052 216.462 622.168 216.287 622.315 216.14C622.462 215.993 622.636 215.877 622.828 215.797C623.02 215.718 623.225 215.677 623.433 215.677C623.641 215.677 623.846 215.718 624.038 215.797C624.23 215.877 624.404 215.993 624.551 216.14C624.698 216.287 624.814 216.462 624.893 216.653C624.972 216.845 625.012 217.051 625.012 217.258Z" fill="white"/>
</g>
<g id="path5759" filter="url(#filter20_f_13_3)">
<path d="M706.031 360.515C706.031 360.734 705.988 360.951 705.905 361.154C705.821 361.357 705.699 361.541 705.544 361.696C705.389 361.851 705.205 361.974 705.002 362.058C704.8 362.142 704.583 362.186 704.363 362.186C704.144 362.186 703.927 362.142 703.724 362.058C703.522 361.974 703.338 361.851 703.183 361.696C703.028 361.541 702.905 361.357 702.822 361.154C702.738 360.951 702.695 360.734 702.696 360.515C702.695 360.296 702.738 360.079 702.822 359.877C702.905 359.674 703.028 359.49 703.183 359.335C703.338 359.179 703.522 359.056 703.724 358.972C703.927 358.888 704.144 358.845 704.363 358.845C704.583 358.845 704.8 358.888 705.002 358.972C705.205 359.056 705.389 359.179 705.544 359.335C705.699 359.49 705.821 359.674 705.905 359.877C705.988 360.079 706.031 360.296 706.031 360.515Z" fill="white"/>
</g>
<g id="path5761" filter="url(#filter21_f_13_3)">
<path d="M674.884 225.225C674.884 225.455 674.84 225.682 674.752 225.894C674.665 226.107 674.536 226.3 674.374 226.462C674.212 226.625 674.019 226.754 673.807 226.842C673.594 226.93 673.367 226.975 673.137 226.975C672.908 226.975 672.68 226.93 672.468 226.842C672.256 226.754 672.063 226.625 671.901 226.462C671.739 226.3 671.61 226.107 671.522 225.894C671.435 225.682 671.39 225.455 671.391 225.225C671.39 224.996 671.435 224.769 671.522 224.556C671.61 224.344 671.739 224.151 671.901 223.989C672.063 223.826 672.256 223.697 672.468 223.609C672.68 223.521 672.908 223.476 673.137 223.476C673.367 223.476 673.594 223.521 673.807 223.609C674.019 223.697 674.212 223.826 674.374 223.989C674.536 224.151 674.665 224.344 674.752 224.556C674.84 224.769 674.884 224.996 674.884 225.225Z" fill="white"/>
</g>
<g id="path5765" filter="url(#filter22_f_13_3)">
<path d="M680.185 321.408C680.185 321.597 680.148 321.784 680.076 321.958C680.004 322.133 679.899 322.291 679.765 322.425C679.632 322.558 679.474 322.664 679.299 322.737C679.125 322.809 678.938 322.846 678.749 322.846C678.56 322.846 678.373 322.809 678.199 322.737C678.024 322.664 677.866 322.558 677.733 322.425C677.599 322.291 677.494 322.133 677.422 321.958C677.35 321.784 677.313 321.597 677.313 321.408C677.313 321.22 677.35 321.033 677.422 320.858C677.494 320.684 677.599 320.525 677.733 320.392C677.866 320.258 678.024 320.152 678.199 320.08C678.373 320.008 678.56 319.97 678.749 319.97C678.938 319.97 679.125 320.008 679.299 320.08C679.474 320.152 679.632 320.258 679.765 320.392C679.899 320.525 680.004 320.684 680.076 320.858C680.148 321.033 680.185 321.22 680.185 321.408Z" fill="white"/>
</g>
<g id="path5767" filter="url(#filter23_f_13_3)">
<path d="M683.811 265.181C683.811 265.362 683.776 265.543 683.706 265.711C683.637 265.879 683.535 266.032 683.406 266.161C683.278 266.29 683.125 266.392 682.957 266.462C682.789 266.531 682.608 266.567 682.426 266.567C682.244 266.567 682.064 266.531 681.896 266.462C681.727 266.392 681.575 266.29 681.446 266.161C681.317 266.032 681.215 265.879 681.146 265.711C681.077 265.543 681.041 265.362 681.042 265.181C681.041 264.999 681.077 264.818 681.146 264.65C681.215 264.482 681.317 264.329 681.446 264.2C681.575 264.071 681.727 263.969 681.896 263.899C682.064 263.83 682.244 263.794 682.426 263.794C682.608 263.794 682.789 263.83 682.957 263.899C683.125 263.969 683.278 264.071 683.406 264.2C683.535 264.329 683.637 264.482 683.706 264.65C683.776 264.818 683.811 264.999 683.811 265.181Z" fill="white"/>
</g>
<g id="path5771" filter="url(#filter24_f_13_3)">
<path d="M107.852 199.972C107.853 200.166 107.815 200.358 107.741 200.538C107.666 200.718 107.558 200.881 107.42 201.019C107.283 201.156 107.12 201.265 106.94 201.34C106.761 201.414 106.568 201.453 106.374 201.453C106.179 201.453 105.987 201.414 105.807 201.34C105.627 201.265 105.464 201.156 105.327 201.019C105.19 200.881 105.081 200.718 105.007 200.538C104.933 200.358 104.895 200.166 104.895 199.972C104.895 199.777 104.933 199.585 105.007 199.405C105.081 199.226 105.19 199.062 105.327 198.925C105.464 198.787 105.627 198.678 105.807 198.604C105.987 198.529 106.179 198.491 106.374 198.491C106.568 198.491 106.761 198.529 106.94 198.604C107.12 198.678 107.283 198.787 107.42 198.925C107.558 199.062 107.666 199.226 107.741 199.405C107.815 199.585 107.853 199.777 107.852 199.972Z" fill="white"/>
</g>
<g id="path5783" filter="url(#filter25_f_13_3)">
<path d="M509.015 306.573C509.016 306.816 508.968 307.057 508.876 307.281C508.783 307.506 508.647 307.71 508.475 307.882C508.303 308.054 508.099 308.191 507.875 308.284C507.65 308.377 507.409 308.425 507.166 308.425C506.923 308.425 506.682 308.377 506.457 308.284C506.232 308.191 506.028 308.054 505.857 307.882C505.685 307.71 505.549 307.506 505.456 307.281C505.363 307.057 505.316 306.816 505.317 306.573C505.316 306.33 505.363 306.089 505.456 305.864C505.549 305.64 505.685 305.435 505.857 305.263C506.028 305.091 506.232 304.955 506.457 304.862C506.682 304.768 506.923 304.72 507.166 304.72C507.409 304.72 507.65 304.768 507.875 304.862C508.099 304.955 508.303 305.091 508.475 305.263C508.647 305.435 508.783 305.64 508.876 305.864C508.968 306.089 509.016 306.33 509.015 306.573Z" fill="white"/>
</g>
<g id="path5785" filter="url(#filter26_f_13_3)">
<path d="M517.353 295.218C517.354 295.436 517.311 295.652 517.228 295.853C517.145 296.055 517.023 296.238 516.869 296.392C516.715 296.546 516.532 296.668 516.331 296.752C516.13 296.835 515.914 296.878 515.696 296.878C515.478 296.878 515.262 296.835 515.061 296.752C514.86 296.668 514.677 296.546 514.523 296.392C514.369 296.238 514.247 296.055 514.164 295.853C514.081 295.652 514.038 295.436 514.039 295.218C514.038 295.001 514.081 294.785 514.164 294.584C514.247 294.382 514.369 294.199 514.523 294.045C514.677 293.891 514.86 293.768 515.061 293.685C515.262 293.602 515.478 293.558 515.696 293.558C515.914 293.558 516.13 293.602 516.331 293.685C516.532 293.768 516.715 293.891 516.869 294.045C517.023 294.199 517.145 294.382 517.228 294.584C517.311 294.785 517.354 295.001 517.353 295.218Z" fill="white"/>
</g>
<g id="path5787" filter="url(#filter27_f_13_3)">
<path d="M542.289 299.977C542.29 300.232 542.24 300.484 542.143 300.72C542.046 300.955 541.903 301.17 541.723 301.35C541.543 301.531 541.329 301.674 541.093 301.771C540.858 301.869 540.605 301.919 540.35 301.919C540.095 301.919 539.842 301.869 539.607 301.771C539.371 301.674 539.157 301.531 538.977 301.35C538.797 301.17 538.654 300.955 538.557 300.72C538.46 300.484 538.41 300.232 538.411 299.977C538.41 299.722 538.46 299.47 538.557 299.234C538.654 298.998 538.797 298.784 538.977 298.604C539.157 298.423 539.371 298.28 539.607 298.182C539.842 298.085 540.095 298.034 540.35 298.034C540.605 298.034 540.858 298.085 541.093 298.182C541.329 298.28 541.543 298.423 541.723 298.604C541.903 298.784 542.046 298.998 542.143 299.234C542.24 299.47 542.29 299.722 542.289 299.977Z" fill="white"/>
</g>
<g id="path5789" filter="url(#filter28_f_13_3)">
<path d="M520.544 273.978C520.544 274.16 520.509 274.34 520.439 274.508C520.37 274.676 520.269 274.829 520.14 274.957C520.012 275.086 519.859 275.188 519.691 275.258C519.523 275.327 519.343 275.363 519.161 275.363C518.979 275.363 518.799 275.327 518.631 275.258C518.463 275.188 518.311 275.086 518.182 274.957C518.054 274.829 517.952 274.676 517.883 274.508C517.814 274.34 517.778 274.16 517.779 273.978C517.778 273.797 517.814 273.617 517.883 273.449C517.952 273.281 518.054 273.128 518.182 273C518.311 272.871 518.463 272.769 518.631 272.699C518.799 272.63 518.979 272.594 519.161 272.594C519.343 272.594 519.523 272.63 519.691 272.699C519.859 272.769 520.012 272.871 520.14 273C520.269 273.128 520.37 273.281 520.439 273.449C520.509 273.617 520.544 273.797 520.544 273.978Z" fill="white"/>
</g>
<g id="path5801" filter="url(#filter29_f_13_3)">
<path d="M41.0935 206.323C41.0942 206.577 41.0446 206.828 40.9477 207.063C40.8509 207.298 40.7087 207.512 40.5291 207.692C40.3495 207.871 40.1361 208.014 39.9012 208.112C39.6663 208.209 39.4146 208.259 39.1603 208.259C38.906 208.259 38.6542 208.209 38.4193 208.112C38.1844 208.014 37.971 207.871 37.7914 207.692C37.6119 207.512 37.4695 207.298 37.3727 207.063C37.2758 206.828 37.2264 206.577 37.2271 206.323C37.2264 206.068 37.2758 205.817 37.3727 205.582C37.4695 205.347 37.6119 205.133 37.7914 204.954C37.971 204.774 38.1844 204.631 38.4193 204.534C38.6542 204.436 38.906 204.386 39.1603 204.386C39.4146 204.386 39.6663 204.436 39.9012 204.534C40.1361 204.631 40.3495 204.774 40.5291 204.954C40.7087 205.133 40.8509 205.347 40.9477 205.582C41.0446 205.817 41.0942 206.068 41.0935 206.323Z" fill="white"/>
</g>
<g id="path5803" filter="url(#filter30_f_13_3)">
<path d="M55.2022 305.521C55.2028 305.716 55.1646 305.909 55.0902 306.09C55.0157 306.271 54.9064 306.435 54.7683 306.573C54.6302 306.711 54.4661 306.821 54.2856 306.896C54.105 306.971 53.9114 307.009 53.7159 307.009C53.5203 307.009 53.3268 306.971 53.1462 306.896C52.9656 306.821 52.8015 306.711 52.6634 306.573C52.5254 306.435 52.4159 306.271 52.3415 306.09C52.267 305.909 52.229 305.716 52.2295 305.521C52.229 305.325 52.267 305.132 52.3415 304.951C52.4159 304.77 52.5254 304.606 52.6634 304.468C52.8015 304.33 52.9656 304.22 53.1462 304.145C53.3268 304.07 53.5203 304.032 53.7159 304.032C53.9114 304.032 54.105 304.07 54.2856 304.145C54.4661 304.22 54.6302 304.33 54.7683 304.468C54.9064 304.606 55.0157 304.77 55.0902 304.951C55.1646 305.132 55.2028 305.325 55.2022 305.521Z" fill="white"/>
</g>
<g id="path5813" filter="url(#filter31_f_13_3)">
<path d="M23.6396 327.954C23.6403 328.186 23.5948 328.416 23.5062 328.631C23.4176 328.846 23.2875 329.042 23.1232 329.206C22.9588 329.371 22.7635 329.502 22.5485 329.591C22.3336 329.68 22.1032 329.726 21.8705 329.726C21.6378 329.726 21.4074 329.68 21.1924 329.591C20.9775 329.502 20.7822 329.371 20.6178 329.206C20.4535 329.042 20.3232 328.846 20.2346 328.631C20.146 328.416 20.1007 328.186 20.1013 327.954C20.1007 327.721 20.146 327.491 20.2346 327.276C20.3232 327.061 20.4535 326.865 20.6178 326.701C20.7822 326.536 20.9775 326.406 21.1924 326.316C21.4074 326.227 21.6378 326.181 21.8705 326.181C22.1032 326.181 22.3336 326.227 22.5485 326.316C22.7635 326.406 22.9588 326.536 23.1232 326.701C23.2875 326.865 23.4176 327.061 23.5062 327.276C23.5948 327.491 23.6403 327.721 23.6396 327.954Z" fill="white"/>
</g>
<path id="path10812" d="M473.289 430.846C460.911 437.258 442.829 442.027 423.32 437.716C410.715 434.93 403.551 432.923 396.518 430.98C408.938 436.185 425.612 445.502 449.45 450.082C473.289 454.662 563.599 440.922 563.599 440.922C547.471 441.537 522.486 435.812 512.479 431.651C498.804 430.695 477.185 429.472 473.289 430.846Z" fill="url(#paint8_linear_13_3)"/>
<path id="path10822" d="M533.955 386.801C540.019 388.385 545.775 394.669 545.775 394.669C545.775 394.669 582.484 399.432 586.698 399.755C587.245 395.614 587.016 386.399 587.016 384.456C587.016 382.513 595.83 374.606 595.83 374.606C595.83 374.606 588.564 376.533 585.971 376.533C583.378 376.533 577.373 384.819 568.62 385.143C560.441 387.413 543.811 384.626 533.955 386.801Z" fill="url(#paint9_linear_13_3)"/>
<path id="path10832" d="M568.642 385.046C574.831 388.481 585.375 399.015 586.75 399.702C588.125 400.389 589.73 386.878 590.418 385.503C591.105 384.13 596.836 375.427 597.752 374.741C596.836 374.054 595.804 372.794 593.512 372.794C591.22 372.794 587.896 376.573 587.896 376.573C587.896 376.573 584.916 374.97 582.395 375.886C576.435 379.778 571.393 383.443 568.642 385.046Z" fill="url(#paint10_linear_13_3)"/>
<path id="path10860" d="M296.564 452.601C287.395 459.471 232.154 479.852 211.525 480.31C190.895 480.768 161.556 473.898 152.846 467.028C144.136 460.158 126.715 450.082 119.839 450.54C112.962 450.998 134.967 472.066 156.972 480.31C178.976 488.554 263.328 478.249 272.038 475.501C280.748 472.753 290.146 461.761 296.564 452.601Z" fill="url(#paint11_linear_13_3)"/>
<path id="path10842" d="M471.455 471.15C437.531 440.653 409.109 427.64 365.099 427.639C327.684 427.639 315.166 438.374 303.384 445.734C296.859 449.811 291.75 457.181 284.416 465.883C290.597 463.824 320.623 444.757 362.349 443.67C415.087 442.296 459.994 464.28 471.455 471.15Z" fill="url(#paint12_radial_13_3)"/>
<path id="path10872" d="M137.983 457.173C123.72 447.133 57.5915 434.503 15.7749 444.219C58.5639 442.599 96.8519 445.861 119.506 454.906C123.954 454.738 131.986 455.391 137.983 457.173Z" fill="url(#paint13_linear_13_3)"/>
<path id="path5114" d="M71.2452 366.268C77.6632 364.436 91.4161 357.107 93.7083 356.649C96.0004 356.191 105.627 361.23 107.92 361.23C109.066 361.23 111.702 379.092 115.312 385.046C118.234 395.58 118.234 404.282 119.61 406.114C120.985 407.946 114.764 389.588 97.3757 387.107C91.7599 386.305 70.7868 368.1 71.2452 366.268Z" fill="url(#paint14_linear_13_3)"/>
<path id="path5116" d="M39.735 339.551C44.4711 345.564 55.5412 359.025 58.4632 360.241C61.3852 361.457 66.2282 370.171 66.885 374.14C67.5417 378.109 60.9942 365.26 58.6247 363.272C56.2554 361.286 44.2937 354.767 44.0748 353.444C38.6794 352.329 38.909 350.624 43.6519 349.861C43.3228 348.387 42.6491 346.884 41.1607 346.111C38.184 344.564 37.8608 338.501 39.735 339.551Z" fill="url(#paint15_linear_13_3)"/>
<path id="path6311" d="M544.479 395.316C541.853 400.648 537.244 405.249 533.838 409.619C545.103 412.615 551.636 404.947 567.798 405.303C568.394 402.627 584.89 402.938 587.268 399.85C582.081 397.907 547.72 392.078 544.479 395.316Z" fill="url(#paint16_linear_13_3)"/>
<path id="path6321" d="M614.821 385.601C639.782 404.384 671.225 416.691 684.191 422.196C697.158 427.702 731.843 434.827 732.167 433.855C732.295 433.472 783.644 433.9 785.841 433.076V422.763C775.142 423.05 744.609 420.209 736.05 418.828C703.625 413.598 625.194 386.572 614.821 385.601Z" fill="#35006F"/>
<path id="path5136" d="M113.986 433.488C108.265 422.881 108.339 417.659 104.665 415.84C100.992 414.021 63.8813 393.811 59.371 388.606C54.8606 383.4 44.7502 376.106 41.6292 375.017C38.5081 373.928 55.4444 393.29 54.7284 398.423C54.0124 403.554 68.3334 408.819 72.8282 409.445C77.3229 410.071 95.4967 415.871 97.7966 418.153C100.097 420.436 113.986 433.488 113.986 433.488Z" fill="url(#paint17_linear_13_3)"/>
<path id="path5914" d="M486.13 480.167C496.503 483.405 575.598 465.269 575.598 465.269C575.598 465.269 612.241 451.754 615.599 446.452C618.661 441.619 647.784 444.806 655.989 451.667C644.204 448.854 644.649 445.188 634.919 448.55C630.352 450.128 605.745 462.516 598.289 470.451C588.248 481.136 497.8 484.053 486.13 480.167Z" fill="url(#paint18_linear_13_3)"/>
<g id="path10824" filter="url(#filter32_f_13_3)">
<path d="M736.099 235.77C736.099 235.999 736.055 236.227 735.967 236.439C735.88 236.651 735.751 236.844 735.589 237.007C735.427 237.169 735.234 237.298 735.022 237.386C734.81 237.474 734.582 237.519 734.352 237.519C734.123 237.519 733.895 237.474 733.683 237.386C733.471 237.298 733.278 237.169 733.116 237.007C732.954 236.844 732.825 236.651 732.738 236.439C732.65 236.227 732.605 235.999 732.606 235.77C732.605 235.54 732.65 235.313 732.738 235.101C732.825 234.889 732.954 234.696 733.116 234.533C733.278 234.371 733.471 234.242 733.683 234.154C733.895 234.066 734.123 234.02 734.352 234.02C734.582 234.02 734.81 234.066 735.022 234.154C735.234 234.242 735.427 234.371 735.589 234.533C735.751 234.696 735.88 234.889 735.967 235.101C736.055 235.313 736.099 235.54 736.099 235.77Z" fill="white"/>
</g>
<path id="path10850" d="M785.841 466.333C765.925 470.754 729.579 480.805 704.343 476.452C712.181 481.063 725.915 487.573 730.996 488.701C749.699 493.787 775.011 483.925 785.841 482.842V466.333Z" fill="#35006F"/>
<path id="path10959" d="M253.454 613.73C254.728 613.492 267.844 602.486 267.844 602.486C267.844 602.486 295.337 590.779 303.828 583.269C312.32 575.759 316.316 575.244 312.373 575.319C308.43 575.394 287.89 586.347 285.103 585.549C282.316 584.75 261.32 595.795 261.32 595.795C261.32 595.795 255.54 600.165 254.74 602.95C253.941 605.734 243.729 618.265 243.729 618.265L253.454 613.73Z" fill="url(#paint19_linear_13_3)"/>
<path id="path10961" d="M263.271 596.639C261.488 590.486 265.54 578.827 266.026 574.617C266.512 570.407 276.075 567.168 278.02 567.33C279.965 567.493 301.035 578.665 300.063 579.313C299.09 579.961 288.393 586.762 286.61 586.762C284.827 586.762 265.215 594.696 263.271 596.639Z" fill="url(#paint20_linear_13_3)"/>
<path id="path10963" d="M244.631 618.014C239.769 616.07 230.692 609.27 230.692 609.27C230.692 609.27 216.429 609.917 215.457 608.298C214.484 606.679 203.463 597.611 201.518 597.287C199.573 596.963 236.203 574.617 242.362 575.588C248.521 576.56 267.322 562.958 269.916 563.282C272.509 563.606 261.812 593.077 263.432 595.344C265.053 597.611 257.922 601.821 256.625 603.116C255.328 604.412 244.631 618.014 244.631 618.014Z" fill="#352F9A"/>
<path id="path10965" d="M47.7063 698.962C47.7063 698.962 39.7629 704.483 57.9158 707.074C67.2215 705.164 70.6069 703.794 78.503 702.05C85.4823 697.101 93.3605 678.418 106.327 677.122C102.335 672.442 101.991 670.724 96.657 668.741C89.3594 667.961 71.8593 662.734 74.4526 657.552C77.0459 652.37 47.7063 698.962 47.7063 698.962Z" fill="url(#paint21_linear_13_3)"/>
<path id="path10967" d="M94.4154 678.428C89.2074 678.56 93.7777 677.666 85.0332 672.875C98.3493 628.075 110.407 618.348 121.998 613.304C138.2 612.423 156.614 618.693 160.745 620.691C153.004 628.986 126.481 657.787 119.142 672.277C113.114 674.146 112.907 676.3 106.424 676.948C104.721 677.118 96.0559 677.569 94.4154 678.428Z" fill="url(#paint22_linear_13_3)"/>
<path id="path10969" d="M122.423 621.576C137.983 622.548 153.218 622.871 160.35 621.252C167.481 619.633 191.469 608.298 193.738 604.412C196.007 600.525 251.763 583.685 254.356 578.827C256.949 573.969 283.206 568.14 290.986 566.844C298.766 565.549 201.518 545.47 188.552 547.737C175.585 550.004 111.078 622.224 122.423 621.576Z" fill="url(#paint23_linear_13_3)"/>
<path id="path10971" d="M211.983 573.497C221.152 573.955 233.988 573.039 237.655 572.123C241.323 571.207 262.411 563.421 265.161 562.047C267.912 560.673 244.073 554.719 240.864 554.719C237.655 554.719 211.983 573.497 211.983 573.497Z" fill="url(#paint24_linear_13_3)"/>
<path id="path10973" d="M154.221 586.779C176.684 586.779 206.024 580.367 215.651 574.413C225.278 568.459 249.116 557.009 246.366 554.719C243.615 552.429 192.271 548.765 186.311 551.055C180.352 553.345 154.221 586.779 154.221 586.779Z" fill="url(#paint25_linear_13_3)"/>
<path id="path10975" d="M-14.178 671.967C-7.30153 676.318 8.15865 681.676 14.26 685.501C16.2916 687.467 17.612 690.659 22.9407 693.436C33.5979 698.989 42.1349 702.882 47.4069 704.943C51.0743 704.943 51.9912 713.187 58.4092 697.615C64.8272 682.043 67.5222 672.615 73.2363 669.487C77.2279 670.838 87.1757 676.662 92.7342 677.177C98.2927 677.692 103.028 672.899 107.383 673.586C112.425 663.052 114.338 635.327 123.506 621.587C129.008 621.587 143.104 602.122 155.195 587.58C171.871 589.527 174.163 572.123 201.898 551.513C199.147 546.932 -14.178 570.291 -14.178 570.291V671.967Z" fill="#35006F"/>
<path id="path10977" d="M-14.178 585.405C59.1709 600.061 110.446 591.359 139.786 574.871C169.125 558.383 209.467 545.559 257.144 562.047C304.821 578.535 317.657 602.351 357.999 606.015C398.34 609.679 396.507 600.519 433.181 595.023C469.856 589.527 502.863 624.335 524.867 638.991C546.872 653.647 564.191 640.736 597.643 660.539C603.03 656.188 613.464 654.494 614.96 649.479C645.336 641.487 741.036 603.877 785.841 611.511C785.841 602.305 785.841 515.797 785.841 515.797H-14.178V585.405Z" fill="#2B0054"/>
<path id="path10979" d="M546.182 639.642C544.886 637.051 517.656 605.961 507.283 598.836C498.105 599.365 493.996 604.158 474.33 604.744C497.67 617.699 524.788 645.472 533.216 648.062C538.318 648.799 548.556 644.214 546.182 639.642Z" fill="url(#paint26_linear_13_3)"/>
<g id="path10989" filter="url(#filter33_f_13_3)">
<path d="M143.494 695.336C143.494 695.099 143.448 694.865 143.358 694.646C143.267 694.427 143.135 694.227 142.967 694.06C142.8 693.892 142.601 693.759 142.382 693.668C142.163 693.577 141.928 693.53 141.691 693.53C141.453 693.53 141.219 693.577 141 693.668C140.78 693.759 140.581 693.892 140.414 694.06C140.246 694.227 140.114 694.427 140.023 694.646C139.933 694.865 139.887 695.099 139.887 695.336C139.887 695.573 139.933 695.808 140.023 696.027C140.114 696.246 140.246 696.446 140.414 696.613C140.581 696.781 140.78 696.914 141 697.005C141.219 697.096 141.453 697.143 141.691 697.143C141.928 697.143 142.163 697.096 142.382 697.005C142.601 696.914 142.8 696.781 142.967 696.613C143.135 696.446 143.267 696.246 143.358 696.027C143.448 695.808 143.494 695.573 143.494 695.336Z" fill="white"/>
</g>
<g id="path10991" filter="url(#filter34_f_13_3)">
<path d="M163.559 661.59C163.559 661.38 163.518 661.172 163.438 660.978C163.358 660.784 163.241 660.607 163.092 660.459C162.944 660.31 162.767 660.192 162.573 660.111C162.379 660.031 162.171 659.989 161.961 659.989C161.751 659.989 161.543 660.031 161.348 660.111C161.154 660.192 160.978 660.31 160.83 660.459C160.681 660.607 160.563 660.784 160.483 660.978C160.403 661.172 160.362 661.38 160.363 661.59C160.362 661.8 160.403 662.008 160.483 662.202C160.563 662.396 160.681 662.573 160.83 662.722C160.978 662.87 161.154 662.988 161.348 663.069C161.543 663.149 161.751 663.191 161.961 663.191C162.171 663.191 162.379 663.149 162.573 663.069C162.767 662.988 162.944 662.87 163.092 662.722C163.241 662.573 163.358 662.396 163.438 662.202C163.518 662.008 163.559 661.8 163.559 661.59Z" fill="white"/>
</g>
<g id="path10993" filter="url(#filter35_f_13_3)">
<path d="M195.896 702.93C195.896 702.676 195.847 702.424 195.75 702.189C195.653 701.954 195.511 701.74 195.331 701.56C195.151 701.38 194.937 701.237 194.702 701.139C194.467 701.042 194.215 700.992 193.96 700.992C193.706 700.992 193.454 701.042 193.219 701.139C192.983 701.237 192.77 701.38 192.59 701.56C192.41 701.74 192.268 701.954 192.171 702.189C192.074 702.424 192.024 702.676 192.025 702.93C192.024 703.185 192.074 703.437 192.171 703.672C192.268 703.907 192.41 704.121 192.59 704.301C192.77 704.481 192.983 704.624 193.219 704.721C193.454 704.819 193.706 704.869 193.96 704.869C194.215 704.869 194.467 704.819 194.702 704.721C194.937 704.624 195.151 704.481 195.331 704.301C195.511 704.121 195.653 703.907 195.75 703.672C195.847 703.437 195.896 703.185 195.896 702.93Z" fill="white"/>
</g>
<g id="path10995" filter="url(#filter36_f_13_3)">
<path d="M209.226 609.861C209.227 609.679 209.191 609.499 209.122 609.33C209.052 609.162 208.95 609.009 208.822 608.88C208.693 608.752 208.54 608.649 208.372 608.58C208.204 608.51 208.024 608.474 207.842 608.474C207.659 608.474 207.479 608.51 207.311 608.58C207.143 608.649 206.99 608.752 206.861 608.88C206.733 609.009 206.631 609.162 206.561 609.33C206.492 609.499 206.457 609.679 206.457 609.861C206.457 610.043 206.492 610.223 206.561 610.391C206.631 610.56 206.733 610.712 206.861 610.841C206.99 610.97 207.143 611.072 207.311 611.142C207.479 611.212 207.659 611.248 207.842 611.248C208.024 611.248 208.204 611.212 208.372 611.142C208.54 611.072 208.693 610.97 208.822 610.841C208.95 610.712 209.052 610.56 209.122 610.391C209.191 610.223 209.227 610.043 209.226 609.861Z" fill="white"/>
</g>
<g id="path10997" filter="url(#filter37_f_13_3)">
<path d="M195.159 637.34C195.16 637.17 195.127 637.002 195.062 636.846C194.998 636.689 194.903 636.547 194.783 636.427C194.663 636.307 194.521 636.211 194.364 636.146C194.208 636.082 194.04 636.048 193.87 636.048C193.7 636.048 193.532 636.082 193.376 636.146C193.219 636.211 193.077 636.307 192.957 636.427C192.837 636.547 192.742 636.689 192.678 636.846C192.613 637.002 192.58 637.17 192.581 637.34C192.58 637.509 192.613 637.677 192.678 637.834C192.742 637.99 192.837 638.133 192.957 638.253C193.077 638.373 193.219 638.468 193.376 638.533C193.532 638.598 193.7 638.631 193.87 638.631C194.04 638.631 194.208 638.598 194.364 638.533C194.521 638.468 194.663 638.373 194.783 638.253C194.903 638.133 194.998 637.99 195.062 637.834C195.127 637.677 195.16 637.509 195.159 637.34Z" fill="white"/>
</g>
<g id="path10999" filter="url(#filter38_f_13_3)">
<path d="M301.372 634.585C301.373 634.344 301.326 634.105 301.234 633.882C301.142 633.659 301.007 633.457 300.837 633.286C300.666 633.115 300.464 632.98 300.241 632.887C300.018 632.795 299.779 632.747 299.538 632.747C299.296 632.747 299.057 632.795 298.835 632.887C298.612 632.98 298.409 633.115 298.239 633.286C298.068 633.457 297.933 633.659 297.841 633.882C297.749 634.105 297.702 634.344 297.703 634.585C297.702 634.826 297.749 635.065 297.841 635.288C297.933 635.511 298.068 635.713 298.239 635.884C298.409 636.055 298.612 636.19 298.835 636.283C299.057 636.375 299.296 636.423 299.538 636.423C299.779 636.423 300.018 636.375 300.241 636.283C300.464 636.19 300.666 636.055 300.837 635.884C301.007 635.713 301.142 635.511 301.234 635.288C301.326 635.065 301.373 634.826 301.372 634.585Z" fill="white"/>
</g>
<g id="path11001" filter="url(#filter39_f_13_3)">
<path d="M304.176 630.533C304.177 630.313 304.134 630.095 304.05 629.892C303.966 629.688 303.843 629.503 303.687 629.348C303.532 629.192 303.347 629.068 303.143 628.984C302.94 628.899 302.722 628.856 302.501 628.856C302.281 628.856 302.063 628.899 301.859 628.984C301.656 629.068 301.471 629.192 301.316 629.348C301.16 629.503 301.037 629.688 300.953 629.892C300.869 630.095 300.826 630.313 300.827 630.533C300.826 630.754 300.869 630.971 300.953 631.175C301.037 631.378 301.16 631.563 301.316 631.719C301.471 631.875 301.656 631.999 301.859 632.083C302.063 632.167 302.281 632.211 302.501 632.211C302.722 632.211 302.94 632.167 303.143 632.083C303.347 631.999 303.532 631.875 303.687 631.719C303.843 631.563 303.966 631.378 304.05 631.175C304.134 630.971 304.177 630.754 304.176 630.533Z" fill="white"/>
</g>
<g id="path11003" filter="url(#filter40_f_13_3)">
<path d="M363.763 648.201C363.763 647.985 363.721 647.771 363.639 647.572C363.556 647.372 363.435 647.19 363.283 647.038C363.13 646.885 362.949 646.763 362.749 646.681C362.55 646.598 362.336 646.555 362.12 646.555C361.903 646.555 361.689 646.598 361.49 646.681C361.29 646.763 361.109 646.885 360.956 647.038C360.804 647.19 360.683 647.372 360.6 647.572C360.518 647.771 360.476 647.985 360.477 648.201C360.476 648.417 360.518 648.631 360.6 648.83C360.683 649.03 360.804 649.212 360.956 649.364C361.109 649.517 361.29 649.639 361.49 649.721C361.689 649.804 361.903 649.847 362.12 649.847C362.336 649.847 362.55 649.804 362.749 649.721C362.949 649.639 363.13 649.517 363.283 649.364C363.435 649.212 363.556 649.03 363.639 648.83C363.721 648.631 363.763 648.417 363.763 648.201Z" fill="white"/>
</g>
<g id="path11005" filter="url(#filter41_f_13_3)">
<path d="M384.453 638.468C384.454 638.251 384.412 638.036 384.329 637.835C384.246 637.634 384.125 637.452 383.971 637.298C383.818 637.145 383.636 637.023 383.435 636.94C383.234 636.856 383.019 636.813 382.802 636.813C382.585 636.813 382.37 636.856 382.169 636.94C381.968 637.023 381.786 637.145 381.633 637.298C381.479 637.452 381.358 637.634 381.275 637.835C381.192 638.036 381.15 638.251 381.15 638.468C381.15 638.685 381.192 638.9 381.275 639.1C381.358 639.301 381.479 639.484 381.633 639.637C381.786 639.791 381.968 639.913 382.169 639.996C382.37 640.079 382.585 640.122 382.802 640.122C383.019 640.122 383.234 640.079 383.435 639.996C383.636 639.913 383.818 639.791 383.971 639.637C384.125 639.484 384.246 639.301 384.329 639.1C384.412 638.9 384.454 638.685 384.453 638.468Z" fill="white"/>
</g>
<g id="path11007" filter="url(#filter42_f_13_3)">
<path d="M366.934 681.571C366.934 681.36 366.893 681.151 366.812 680.955C366.732 680.76 366.613 680.582 366.464 680.433C366.315 680.283 366.137 680.164 365.942 680.083C365.746 680.002 365.537 679.961 365.325 679.961C365.114 679.961 364.904 680.002 364.709 680.083C364.514 680.164 364.336 680.283 364.187 680.433C364.037 680.582 363.919 680.76 363.838 680.955C363.758 681.151 363.717 681.36 363.717 681.571C363.717 681.783 363.758 681.992 363.838 682.188C363.919 682.383 364.037 682.561 364.187 682.71C364.336 682.86 364.514 682.979 364.709 683.06C364.904 683.141 365.114 683.182 365.325 683.182C365.537 683.182 365.746 683.141 365.942 683.06C366.137 682.979 366.315 682.86 366.464 682.71C366.613 682.561 366.732 682.383 366.812 682.188C366.893 681.992 366.934 681.783 366.934 681.571Z" fill="white"/>
</g>
<g id="path11009" filter="url(#filter43_f_13_3)">
<path d="M347.142 621.972C347.142 621.779 347.105 621.588 347.031 621.41C346.958 621.231 346.85 621.069 346.713 620.932C346.577 620.795 346.414 620.687 346.236 620.613C346.058 620.539 345.866 620.501 345.673 620.501C345.48 620.501 345.288 620.539 345.11 620.613C344.932 620.687 344.769 620.795 344.633 620.932C344.496 621.069 344.388 621.231 344.315 621.41C344.241 621.588 344.204 621.779 344.204 621.972C344.204 622.165 344.241 622.357 344.315 622.535C344.388 622.714 344.496 622.876 344.633 623.013C344.769 623.149 344.932 623.258 345.11 623.332C345.288 623.406 345.48 623.444 345.673 623.444C345.866 623.444 346.058 623.406 346.236 623.332C346.414 623.258 346.577 623.149 346.713 623.013C346.85 622.876 346.958 622.714 347.031 622.535C347.105 622.357 347.142 622.165 347.142 621.972Z" fill="white"/>
</g>
<g id="path11011" filter="url(#filter44_f_13_3)">
<path d="M464.445 654.096C464.446 653.856 464.399 653.618 464.308 653.397C464.216 653.175 464.082 652.974 463.913 652.804C463.743 652.634 463.542 652.5 463.32 652.408C463.099 652.316 462.861 652.268 462.621 652.268C462.381 652.268 462.144 652.316 461.922 652.408C461.7 652.5 461.499 652.634 461.33 652.804C461.16 652.974 461.026 653.175 460.935 653.397C460.843 653.618 460.796 653.856 460.797 654.096C460.796 654.335 460.843 654.573 460.935 654.794C461.026 655.016 461.16 655.218 461.33 655.387C461.499 655.557 461.7 655.692 461.922 655.784C462.144 655.875 462.381 655.923 462.621 655.923C462.861 655.923 463.099 655.875 463.32 655.784C463.542 655.692 463.743 655.557 463.913 655.387C464.082 655.218 464.216 655.016 464.308 654.794C464.399 654.573 464.446 654.335 464.445 654.096Z" fill="white"/>
</g>
<g id="path11013" filter="url(#filter45_f_13_3)">
<path d="M607.151 718.348C607.152 718.14 607.111 717.933 607.032 717.741C606.953 717.548 606.836 717.373 606.689 717.226C606.542 717.079 606.367 716.962 606.174 716.882C605.982 716.802 605.776 716.761 605.567 716.761C605.359 716.761 605.153 716.802 604.96 716.882C604.768 716.962 604.593 717.079 604.446 717.226C604.298 717.373 604.182 717.548 604.102 717.741C604.023 717.933 603.983 718.14 603.983 718.348C603.983 718.556 604.023 718.762 604.102 718.955C604.182 719.147 604.298 719.322 604.446 719.47C604.593 719.617 604.768 719.734 604.96 719.814C605.153 719.893 605.359 719.935 605.567 719.935C605.776 719.935 605.982 719.893 606.174 719.814C606.367 719.734 606.542 719.617 606.689 719.47C606.836 719.322 606.953 719.147 607.032 718.955C607.111 718.762 607.152 718.556 607.151 718.348Z" fill="white"/>
</g>
<g id="path11021" filter="url(#filter46_f_13_3)">
<path d="M706.031 674.513C706.031 674.294 705.988 674.077 705.905 673.874C705.821 673.672 705.699 673.488 705.544 673.333C705.389 673.177 705.205 673.054 705.002 672.97C704.8 672.886 704.583 672.843 704.363 672.843C704.144 672.843 703.927 672.886 703.724 672.97C703.522 673.054 703.338 673.177 703.183 673.333C703.028 673.488 702.905 673.672 702.822 673.874C702.738 674.077 702.695 674.294 702.696 674.513C702.695 674.732 702.738 674.949 702.822 675.152C702.905 675.355 703.028 675.539 703.183 675.694C703.338 675.849 703.522 675.972 703.724 676.056C703.927 676.14 704.144 676.183 704.363 676.183C704.583 676.183 704.8 676.14 705.002 676.056C705.205 675.972 705.389 675.849 705.544 675.694C705.699 675.539 705.821 675.355 705.905 675.152C705.988 674.949 706.031 674.732 706.031 674.513Z" fill="white"/>
</g>
<g id="path11025" filter="url(#filter47_f_13_3)">
<path d="M680.185 713.62C680.185 713.432 680.148 713.245 680.076 713.07C680.004 712.896 679.899 712.737 679.765 712.604C679.632 712.47 679.474 712.364 679.299 712.292C679.125 712.22 678.938 712.182 678.749 712.182C678.56 712.182 678.373 712.22 678.199 712.292C678.024 712.364 677.866 712.47 677.733 712.604C677.599 712.737 677.494 712.896 677.422 713.07C677.35 713.245 677.313 713.432 677.313 713.62C677.313 713.809 677.35 713.996 677.422 714.17C677.494 714.345 677.599 714.503 677.733 714.637C677.866 714.77 678.024 714.876 678.199 714.949C678.373 715.021 678.56 715.058 678.749 715.058C678.938 715.058 679.125 715.021 679.299 714.949C679.474 714.876 679.632 714.77 679.765 714.637C679.899 714.503 680.004 714.345 680.076 714.17C680.148 713.996 680.185 713.809 680.185 713.62Z" fill="white"/>
</g>
<g id="path11047" filter="url(#filter48_f_13_3)">
<path d="M23.6396 707.075C23.6403 706.842 23.5948 706.612 23.5062 706.397C23.4176 706.182 23.2875 705.987 23.1232 705.822C22.9588 705.657 22.7635 705.527 22.5485 705.438C22.3336 705.349 22.1032 705.303 21.8705 705.303C21.6378 705.303 21.4074 705.349 21.1924 705.438C20.9775 705.527 20.7822 705.657 20.6178 705.822C20.4535 705.987 20.3232 706.182 20.2346 706.397C20.146 706.612 20.1007 706.842 20.1013 707.075C20.1007 707.307 20.146 707.538 20.2346 707.753C20.3232 707.968 20.4535 708.163 20.6178 708.328C20.7822 708.492 20.9775 708.623 21.1924 708.712C21.4074 708.801 21.6378 708.847 21.8705 708.847C22.1032 708.847 22.3336 708.801 22.5485 708.712C22.7635 708.623 22.9588 708.492 23.1232 708.328C23.2875 708.163 23.4176 707.968 23.5062 707.753C23.5948 707.538 23.6403 707.307 23.6396 707.075Z" fill="white"/>
</g>
<path id="path11049" d="M473.289 604.183C460.911 597.771 442.829 593.001 423.32 597.313C410.715 600.099 403.551 602.105 396.518 604.049C408.938 598.844 425.612 589.527 449.45 584.947C473.289 580.367 563.599 594.107 563.599 594.107C547.471 593.491 522.486 599.217 512.479 603.378C498.804 604.333 477.185 605.557 473.289 604.183Z" fill="url(#paint27_linear_13_3)"/>
<path id="path11051" d="M533.955 648.227C540.019 646.644 545.775 640.36 545.775 640.36C545.775 640.36 582.484 635.597 586.698 635.273C587.245 639.415 587.016 648.63 587.016 650.573C587.016 652.516 595.83 660.422 595.83 660.422C595.83 660.422 588.564 658.496 585.971 658.496C583.378 658.496 577.373 650.209 568.62 649.886C560.441 647.615 543.811 650.402 533.955 648.227Z" fill="url(#paint28_linear_13_3)"/>
<path id="path11053" d="M568.642 649.983C574.831 646.548 585.375 636.014 586.75 635.327C588.125 634.64 589.73 648.151 590.418 649.525C591.105 650.899 596.836 659.601 597.752 660.288C596.836 660.975 595.804 662.234 593.512 662.234C591.22 662.234 587.896 658.456 587.896 658.456C587.896 658.456 584.916 660.059 582.395 659.143C576.435 655.25 571.393 651.586 568.642 649.983Z" fill="url(#paint29_linear_13_3)"/>
<path id="path11055" d="M296.564 582.428C287.395 575.558 232.154 555.177 211.525 554.719C190.895 554.261 161.556 561.131 152.846 568.001C144.136 574.871 126.715 584.947 119.839 584.489C112.962 584.031 134.967 562.963 156.972 554.719C178.976 546.475 263.328 556.78 272.038 559.527C280.748 562.275 290.146 573.268 296.564 582.428Z" fill="url(#paint30_linear_13_3)"/>
<path id="path11057" d="M471.455 563.879C437.531 594.375 409.109 607.389 365.099 607.389C327.684 607.389 315.166 596.655 303.384 589.294C296.859 585.218 291.75 577.848 284.416 569.145C290.597 571.204 320.623 590.272 362.349 591.359C415.087 592.733 459.994 570.749 471.455 563.879Z" fill="url(#paint31_radial_13_3)"/>
<path id="path11059" d="M137.983 577.856C123.72 587.895 57.5915 600.526 15.7749 590.81C58.5639 592.429 96.8519 589.168 119.506 580.123C123.954 580.29 131.986 579.637 137.983 577.856Z" fill="url(#paint32_linear_13_3)"/>
<path id="path11061" d="M71.2452 668.761C77.6632 670.593 91.4161 677.921 93.7083 678.379C96.0004 678.837 105.627 673.799 107.92 673.799C109.066 673.799 111.702 655.937 115.312 649.983C118.234 639.449 118.234 630.747 119.61 628.915C120.985 627.083 114.764 645.44 97.3757 647.922C91.7599 648.723 70.7868 666.929 71.2452 668.761Z" fill="url(#paint33_linear_13_3)"/>
<path id="path11063" d="M39.735 695.478C44.4711 689.465 55.5412 676.003 58.4632 674.787C61.3852 673.571 66.2282 664.857 66.885 660.888C67.5417 656.919 60.9942 669.769 58.6247 671.756C56.2554 673.743 44.2937 680.261 44.0748 681.584C38.6794 682.699 38.909 684.404 43.6519 685.167C43.3228 686.642 42.6491 688.144 41.1607 688.918C38.184 690.465 37.8608 696.527 39.735 695.478Z" fill="url(#paint34_linear_13_3)"/>
<path id="path11065" d="M544.479 639.712C541.853 634.38 537.244 629.779 533.838 625.409C545.103 622.414 551.636 630.082 567.798 629.725C568.394 632.402 584.89 632.09 587.268 635.178C582.081 637.121 547.72 642.951 544.479 639.712Z" fill="url(#paint35_linear_13_3)"/>
<path id="path11067" d="M614.821 649.428C639.782 630.644 671.225 618.337 684.191 612.832C697.158 607.326 731.843 600.202 732.167 601.173C732.295 601.557 783.644 601.128 785.841 601.952V612.265C775.142 611.979 744.609 614.819 736.05 616.2C703.625 621.43 625.194 648.456 614.821 649.428Z" fill="#35006F"/>
<path id="path11069" d="M113.986 601.541C108.265 612.147 108.339 617.369 104.665 619.188C100.992 621.008 63.8813 641.217 59.371 646.423C54.8606 651.629 44.7502 658.922 41.6292 660.011C38.5081 661.1 55.4444 641.738 54.7284 636.606C54.0124 631.474 68.3334 626.21 72.8282 625.584C77.3229 624.958 95.4967 619.157 97.7966 616.875C100.097 614.593 113.986 601.541 113.986 601.541Z" fill="url(#paint36_linear_13_3)"/>
<path id="path11071" d="M486.13 554.862C496.503 551.623 575.598 569.759 575.598 569.759C575.598 569.759 612.241 583.275 615.599 588.576C618.661 593.41 647.784 590.222 655.989 583.361C644.204 586.174 644.649 589.84 634.919 586.478C630.352 584.9 605.745 572.512 598.289 564.578C588.248 553.892 497.8 550.976 486.13 554.862Z" fill="url(#paint37_linear_13_3)"/>
<path id="path11081" d="M785.841 568.696C765.925 564.274 729.579 554.224 704.343 558.577C712.181 553.965 725.915 547.456 730.996 546.328C749.699 541.241 775.011 551.104 785.841 552.186V568.696Z" fill="#35006F"/>
</g>
<g id="planet">
<g id="topPlanet">
<path id="path4853" d="M530.184 169.684C530.189 189.97 526.195 210.058 518.428 228.801C510.662 247.544 499.275 264.575 484.92 278.921C470.564 293.267 453.52 304.647 434.761 312.412C416.003 320.176 395.897 324.172 375.592 324.172C355.287 324.172 335.181 320.176 316.423 312.412C297.664 304.647 280.62 293.267 266.264 278.921C251.909 264.575 240.522 247.544 232.756 228.801C224.989 210.058 220.995 189.97 221 169.684C220.995 149.398 224.989 129.31 232.756 110.567C240.522 91.8238 251.909 74.7927 266.264 60.4466C280.62 46.1005 297.664 34.7203 316.423 26.956C335.181 19.1917 355.287 15.1956 375.592 15.1956C395.897 15.1956 416.003 19.1917 434.761 26.956C453.52 34.7203 470.564 46.1005 484.92 60.4466C499.275 74.7927 510.662 91.8238 518.428 110.567C526.195 129.31 530.189 149.398 530.184 169.684Z" fill="url(#paint38_radial_13_3)"/>
</g>
</g>
</g>
<defs>
<filter id="filter0_f_13_3" x="104.798" y="254.653" width="3.70956" height="3.71515" filterUnits="userSpaceOnUse" color-interpolation-filters="sRGB">
<feFlood flood-opacity="0" result="BackgroundImageFix"/>
<feBlend mode="normal" in="SourceGraphic" in2="BackgroundImageFix" result="shape"/>
<feGaussianBlur stdDeviation="0.116415" result="effect1_foregroundBlur_13_3"/>
</filter>
<filter id="filter1_f_13_3" x="195.674" y="286.746" width="3.43875" height="3.44393" filterUnits="userSpaceOnUse" color-interpolation-filters="sRGB">
<feFlood flood-opacity="0" result="BackgroundImageFix"/>
<feBlend mode="normal" in="SourceGraphic" in2="BackgroundImageFix" result="shape"/>
<feGaussianBlur stdDeviation="0.107917" result="effect1_foregroundBlur_13_3"/>
</filter>
<filter id="filter2_f_13_3" x="152.338" y="287.088" width="3.45077" height="3.45608" filterUnits="userSpaceOnUse" color-interpolation-filters="sRGB">
<feFlood flood-opacity="0" result="BackgroundImageFix"/>
<feBlend mode="normal" in="SourceGraphic" in2="BackgroundImageFix" result="shape"/>
<feGaussianBlur stdDeviation="0.108297" result="effect1_foregroundBlur_13_3"/>
</filter>
<filter id="filter3_f_13_3" x="190.762" y="304.689" width="3.31006" height="3.31522" filterUnits="userSpaceOnUse" color-interpolation-filters="sRGB">
<feFlood flood-opacity="0" result="BackgroundImageFix"/>
<feBlend mode="normal" in="SourceGraphic" in2="BackgroundImageFix" result="shape"/>
<feGaussianBlur stdDeviation="0.103883" result="effect1_foregroundBlur_13_3"/>
</filter>
<filter id="filter4_f_13_3" x="139.629" y="337.627" width="4.12415" height="4.13033" filterUnits="userSpaceOnUse" color-interpolation-filters="sRGB">
<feFlood flood-opacity="0" result="BackgroundImageFix"/>
<feBlend mode="normal" in="SourceGraphic" in2="BackgroundImageFix" result="shape"/>
<feGaussianBlur stdDeviation="0.129425" result="effect1_foregroundBlur_13_3"/>
</filter>
<filter id="filter5_f_13_3" x="160.134" y="371.608" width="3.6543" height="3.65995" filterUnits="userSpaceOnUse" color-interpolation-filters="sRGB">
<feFlood flood-opacity="0" result="BackgroundImageFix"/>
<feBlend mode="normal" in="SourceGraphic" in2="BackgroundImageFix" result="shape"/>
<feGaussianBlur stdDeviation="0.114686" result="effect1_foregroundBlur_13_3"/>
</filter>
<filter id="filter6_f_13_3" x="191.747" y="329.882" width="4.42652" height="4.43328" filterUnits="userSpaceOnUse" color-interpolation-filters="sRGB">
<feFlood flood-opacity="0" result="BackgroundImageFix"/>
<feBlend mode="normal" in="SourceGraphic" in2="BackgroundImageFix" result="shape"/>
<feGaussianBlur stdDeviation="0.138918" result="effect1_foregroundBlur_13_3"/>
</filter>
<filter id="filter7_f_13_3" x="206.258" y="423.582" width="3.16655" height="3.17137" filterUnits="userSpaceOnUse" color-interpolation-filters="sRGB">
<feFlood flood-opacity="0" result="BackgroundImageFix"/>
<feBlend mode="normal" in="SourceGraphic" in2="BackgroundImageFix" result="shape"/>
<feGaussianBlur stdDeviation="0.0993757" result="effect1_foregroundBlur_13_3"/>
</filter>
<filter id="filter8_f_13_3" x="192.395" y="396.212" width="2.94906" height="2.95354" filterUnits="userSpaceOnUse" color-interpolation-filters="sRGB">
<feFlood flood-opacity="0" result="BackgroundImageFix"/>
<feBlend mode="normal" in="SourceGraphic" in2="BackgroundImageFix" result="shape"/>
<feGaussianBlur stdDeviation="0.0925499" result="effect1_foregroundBlur_13_3"/>
</filter>
<filter id="filter9_f_13_3" x="297.44" y="398.342" width="4.19592" height="4.20237" filterUnits="userSpaceOnUse" color-interpolation-filters="sRGB">
<feFlood flood-opacity="0" result="BackgroundImageFix"/>
<feBlend mode="normal" in="SourceGraphic" in2="BackgroundImageFix" result="shape"/>
<feGaussianBlur stdDeviation="0.131682" result="effect1_foregroundBlur_13_3"/>
</filter>
<filter id="filter10_f_13_3" x="300.586" y="402.577" width="3.83017" height="3.83599" filterUnits="userSpaceOnUse" color-interpolation-filters="sRGB">
<feFlood flood-opacity="0" result="BackgroundImageFix"/>
<feBlend mode="normal" in="SourceGraphic" in2="BackgroundImageFix" result="shape"/>
<feGaussianBlur stdDeviation="0.120202" result="effect1_foregroundBlur_13_3"/>
</filter>
<filter id="filter11_f_13_3" x="360.241" y="384.946" width="3.7576" height="3.76339" filterUnits="userSpaceOnUse" color-interpolation-filters="sRGB">
<feFlood flood-opacity="0" result="BackgroundImageFix"/>
<feBlend mode="normal" in="SourceGraphic" in2="BackgroundImageFix" result="shape"/>
<feGaussianBlur stdDeviation="0.117927" result="effect1_foregroundBlur_13_3"/>
</filter>
<filter id="filter12_f_13_3" x="380.913" y="394.669" width="3.77714" height="3.78295" filterUnits="userSpaceOnUse" color-interpolation-filters="sRGB">
<feFlood flood-opacity="0" result="BackgroundImageFix"/>
<feBlend mode="normal" in="SourceGraphic" in2="BackgroundImageFix" result="shape"/>
<feGaussianBlur stdDeviation="0.11854" result="effect1_foregroundBlur_13_3"/>
</filter>
<filter id="filter13_f_13_3" x="363.486" y="351.615" width="3.67802" height="3.68362" filterUnits="userSpaceOnUse" color-interpolation-filters="sRGB">
<feFlood flood-opacity="0" result="BackgroundImageFix"/>
<feBlend mode="normal" in="SourceGraphic" in2="BackgroundImageFix" result="shape"/>
<feGaussianBlur stdDeviation="0.115427" result="effect1_foregroundBlur_13_3"/>
</filter>
<filter id="filter14_f_13_3" x="343.993" y="411.374" width="3.35948" height="3.36466" filterUnits="userSpaceOnUse" color-interpolation-filters="sRGB">
<feFlood flood-opacity="0" result="BackgroundImageFix"/>
<feBlend mode="normal" in="SourceGraphic" in2="BackgroundImageFix" result="shape"/>
<feGaussianBlur stdDeviation="0.105433" result="effect1_foregroundBlur_13_3"/>
</filter>
<filter id="filter15_f_13_3" x="460.535" y="378.844" width="4.17164" height="4.1781" filterUnits="userSpaceOnUse" color-interpolation-filters="sRGB">
<feFlood flood-opacity="0" result="BackgroundImageFix"/>
<feBlend mode="normal" in="SourceGraphic" in2="BackgroundImageFix" result="shape"/>
<feGaussianBlur stdDeviation="0.130922" result="effect1_foregroundBlur_13_3"/>
</filter>
<filter id="filter16_f_13_3" x="603.756" y="314.866" width="3.62303" height="3.62864" filterUnits="userSpaceOnUse" color-interpolation-filters="sRGB">
<feFlood flood-opacity="0" result="BackgroundImageFix"/>
<feBlend mode="normal" in="SourceGraphic" in2="BackgroundImageFix" result="shape"/>
<feGaussianBlur stdDeviation="0.113704" result="effect1_foregroundBlur_13_3"/>
</filter>
<filter id="filter17_f_13_3" x="578.425" y="272.877" width="3.36588" height="3.37099" filterUnits="userSpaceOnUse" color-interpolation-filters="sRGB">
<feFlood flood-opacity="0" result="BackgroundImageFix"/>
<feBlend mode="normal" in="SourceGraphic" in2="BackgroundImageFix" result="shape"/>
<feGaussianBlur stdDeviation="0.105631" result="effect1_foregroundBlur_13_3"/>
</filter>
<filter id="filter18_f_13_3" x="592.962" y="202.581" width="4.18976" height="4.19609" filterUnits="userSpaceOnUse" color-interpolation-filters="sRGB">
<feFlood flood-opacity="0" result="BackgroundImageFix"/>
<feBlend mode="normal" in="SourceGraphic" in2="BackgroundImageFix" result="shape"/>
<feGaussianBlur stdDeviation="0.131486" result="effect1_foregroundBlur_13_3"/>
</filter>
<filter id="filter19_f_13_3" x="621.627" y="215.45" width="3.61129" height="3.61675" filterUnits="userSpaceOnUse" color-interpolation-filters="sRGB">
<feFlood flood-opacity="0" result="BackgroundImageFix"/>
<feBlend mode="normal" in="SourceGraphic" in2="BackgroundImageFix" result="shape"/>
<feGaussianBlur stdDeviation="0.113332" result="effect1_foregroundBlur_13_3"/>
</filter>
<filter id="filter20_f_13_3" x="702.457" y="358.606" width="3.81316" height="3.81907" filterUnits="userSpaceOnUse" color-interpolation-filters="sRGB">
<feFlood flood-opacity="0" result="BackgroundImageFix"/>
<feBlend mode="normal" in="SourceGraphic" in2="BackgroundImageFix" result="shape"/>
<feGaussianBlur stdDeviation="0.119672" result="effect1_foregroundBlur_13_3"/>
</filter>
<filter id="filter21_f_13_3" x="671.14" y="223.225" width="3.99433" height="4.00037" filterUnits="userSpaceOnUse" color-interpolation-filters="sRGB">
<feFlood flood-opacity="0" result="BackgroundImageFix"/>
<feBlend mode="normal" in="SourceGraphic" in2="BackgroundImageFix" result="shape"/>
<feGaussianBlur stdDeviation="0.125353" result="effect1_foregroundBlur_13_3"/>
</filter>
<filter id="filter22_f_13_3" x="677.107" y="319.764" width="3.28325" height="3.28823" filterUnits="userSpaceOnUse" color-interpolation-filters="sRGB">
<feFlood flood-opacity="0" result="BackgroundImageFix"/>
<feBlend mode="normal" in="SourceGraphic" in2="BackgroundImageFix" result="shape"/>
<feGaussianBlur stdDeviation="0.103038" result="effect1_foregroundBlur_13_3"/>
</filter>
<filter id="filter23_f_13_3" x="680.843" y="263.595" width="3.16628" height="3.17117" filterUnits="userSpaceOnUse" color-interpolation-filters="sRGB">
<feFlood flood-opacity="0" result="BackgroundImageFix"/>
<feBlend mode="normal" in="SourceGraphic" in2="BackgroundImageFix" result="shape"/>
<feGaussianBlur stdDeviation="0.0993695" result="effect1_foregroundBlur_13_3"/>
</filter>
<filter id="filter24_f_13_3" x="104.683" y="198.278" width="3.38124" height="3.38636" filterUnits="userSpaceOnUse" color-interpolation-filters="sRGB">
<feFlood flood-opacity="0" result="BackgroundImageFix"/>
<feBlend mode="normal" in="SourceGraphic" in2="BackgroundImageFix" result="shape"/>
<feGaussianBlur stdDeviation="0.106113" result="effect1_foregroundBlur_13_3"/>
</filter>
<filter id="filter25_f_13_3" x="505.051" y="304.455" width="4.22941" height="4.23582" filterUnits="userSpaceOnUse" color-interpolation-filters="sRGB">
<feFlood flood-opacity="0" result="BackgroundImageFix"/>
<feBlend mode="normal" in="SourceGraphic" in2="BackgroundImageFix" result="shape"/>
<feGaussianBlur stdDeviation="0.132731" result="effect1_foregroundBlur_13_3"/>
</filter>
<filter id="filter26_f_13_3" x="513.801" y="293.321" width="3.7897" height="3.79551" filterUnits="userSpaceOnUse" color-interpolation-filters="sRGB">
<feFlood flood-opacity="0" result="BackgroundImageFix"/>
<feBlend mode="normal" in="SourceGraphic" in2="BackgroundImageFix" result="shape"/>
<feGaussianBlur stdDeviation="0.118933" result="effect1_foregroundBlur_13_3"/>
</filter>
<filter id="filter27_f_13_3" x="538.132" y="297.756" width="4.43519" height="4.44201" filterUnits="userSpaceOnUse" color-interpolation-filters="sRGB">
<feFlood flood-opacity="0" result="BackgroundImageFix"/>
<feBlend mode="normal" in="SourceGraphic" in2="BackgroundImageFix" result="shape"/>
<feGaussianBlur stdDeviation="0.139192" result="effect1_foregroundBlur_13_3"/>
</filter>
<filter id="filter28_f_13_3" x="517.58" y="272.395" width="3.1618" height="3.16663" filterUnits="userSpaceOnUse" color-interpolation-filters="sRGB">
<feFlood flood-opacity="0" result="BackgroundImageFix"/>
<feBlend mode="normal" in="SourceGraphic" in2="BackgroundImageFix" result="shape"/>
<feGaussianBlur stdDeviation="0.0992272" result="effect1_foregroundBlur_13_3"/>
</filter>
<filter id="filter29_f_13_3" x="36.9495" y="204.108" width="4.42149" height="4.42823" filterUnits="userSpaceOnUse" color-interpolation-filters="sRGB">
<feFlood flood-opacity="0" result="BackgroundImageFix"/>
<feBlend mode="normal" in="SourceGraphic" in2="BackgroundImageFix" result="shape"/>
<feGaussianBlur stdDeviation="0.13876" result="effect1_foregroundBlur_13_3"/>
</filter>
<filter id="filter30_f_13_3" x="52.0161" y="303.818" width="3.3994" height="3.40468" filterUnits="userSpaceOnUse" color-interpolation-filters="sRGB">
<feFlood flood-opacity="0" result="BackgroundImageFix"/>
<feBlend mode="normal" in="SourceGraphic" in2="BackgroundImageFix" result="shape"/>
<feGaussianBlur stdDeviation="0.106687" result="effect1_foregroundBlur_13_3"/>
</filter>
<filter id="filter31_f_13_3" x="19.8474" y="325.927" width="4.04627" height="4.05242" filterUnits="userSpaceOnUse" color-interpolation-filters="sRGB">
<feFlood flood-opacity="0" result="BackgroundImageFix"/>
<feBlend mode="normal" in="SourceGraphic" in2="BackgroundImageFix" result="shape"/>
<feGaussianBlur stdDeviation="0.126984" result="effect1_foregroundBlur_13_3"/>
</filter>
<filter id="filter32_f_13_3" x="732.355" y="233.77" width="3.99433" height="4.00037" filterUnits="userSpaceOnUse" color-interpolation-filters="sRGB">
<feFlood flood-opacity="0" result="BackgroundImageFix"/>
<feBlend mode="normal" in="SourceGraphic" in2="BackgroundImageFix" result="shape"/>
<feGaussianBlur stdDeviation="0.125353" result="effect1_foregroundBlur_13_3"/>
</filter>
<filter id="filter33_f_13_3" x="139.629" y="693.271" width="4.12415" height="4.13034" filterUnits="userSpaceOnUse" color-interpolation-filters="sRGB">
<feFlood flood-opacity="0" result="BackgroundImageFix"/>
<feBlend mode="normal" in="SourceGraphic" in2="BackgroundImageFix" result="shape"/>
<feGaussianBlur stdDeviation="0.129425" result="effect1_foregroundBlur_13_3"/>
</filter>
<filter id="filter34_f_13_3" x="160.134" y="659.76" width="3.6543" height="3.65994" filterUnits="userSpaceOnUse" color-interpolation-filters="sRGB">
<feFlood flood-opacity="0" result="BackgroundImageFix"/>
<feBlend mode="normal" in="SourceGraphic" in2="BackgroundImageFix" result="shape"/>
<feGaussianBlur stdDeviation="0.114686" result="effect1_foregroundBlur_13_3"/>
</filter>
<filter id="filter35_f_13_3" x="191.747" y="700.714" width="4.42652" height="4.4333" filterUnits="userSpaceOnUse" color-interpolation-filters="sRGB">
<feFlood flood-opacity="0" result="BackgroundImageFix"/>
<feBlend mode="normal" in="SourceGraphic" in2="BackgroundImageFix" result="shape"/>
<feGaussianBlur stdDeviation="0.138918" result="effect1_foregroundBlur_13_3"/>
</filter>
<filter id="filter36_f_13_3" x="206.258" y="608.275" width="3.16655" height="3.17137" filterUnits="userSpaceOnUse" color-interpolation-filters="sRGB">
<feFlood flood-opacity="0" result="BackgroundImageFix"/>
<feBlend mode="normal" in="SourceGraphic" in2="BackgroundImageFix" result="shape"/>
<feGaussianBlur stdDeviation="0.0993757" result="effect1_foregroundBlur_13_3"/>
</filter>
<filter id="filter37_f_13_3" x="192.395" y="635.863" width="2.94906" height="2.95354" filterUnits="userSpaceOnUse" color-interpolation-filters="sRGB">
<feFlood flood-opacity="0" result="BackgroundImageFix"/>
<feBlend mode="normal" in="SourceGraphic" in2="BackgroundImageFix" result="shape"/>
<feGaussianBlur stdDeviation="0.0925499" result="effect1_foregroundBlur_13_3"/>
</filter>
<filter id="filter38_f_13_3" x="297.44" y="632.484" width="4.19592" height="4.20236" filterUnits="userSpaceOnUse" color-interpolation-filters="sRGB">
<feFlood flood-opacity="0" result="BackgroundImageFix"/>
<feBlend mode="normal" in="SourceGraphic" in2="BackgroundImageFix" result="shape"/>
<feGaussianBlur stdDeviation="0.131682" result="effect1_foregroundBlur_13_3"/>
</filter>
<filter id="filter39_f_13_3" x="300.586" y="628.615" width="3.83017" height="3.83597" filterUnits="userSpaceOnUse" color-interpolation-filters="sRGB">
<feFlood flood-opacity="0" result="BackgroundImageFix"/>
<feBlend mode="normal" in="SourceGraphic" in2="BackgroundImageFix" result="shape"/>
<feGaussianBlur stdDeviation="0.120202" result="effect1_foregroundBlur_13_3"/>
</filter>
<filter id="filter40_f_13_3" x="360.241" y="646.319" width="3.7576" height="3.7634" filterUnits="userSpaceOnUse" color-interpolation-filters="sRGB">
<feFlood flood-opacity="0" result="BackgroundImageFix"/>
<feBlend mode="normal" in="SourceGraphic" in2="BackgroundImageFix" result="shape"/>
<feGaussianBlur stdDeviation="0.117927" result="effect1_foregroundBlur_13_3"/>
</filter>
<filter id="filter41_f_13_3" x="380.913" y="636.576" width="3.77714" height="3.78294" filterUnits="userSpaceOnUse" color-interpolation-filters="sRGB">
<feFlood flood-opacity="0" result="BackgroundImageFix"/>
<feBlend mode="normal" in="SourceGraphic" in2="BackgroundImageFix" result="shape"/>
<feGaussianBlur stdDeviation="0.11854" result="effect1_foregroundBlur_13_3"/>
</filter>
<filter id="filter42_f_13_3" x="363.486" y="679.73" width="3.67802" height="3.68363" filterUnits="userSpaceOnUse" color-interpolation-filters="sRGB">
<feFlood flood-opacity="0" result="BackgroundImageFix"/>
<feBlend mode="normal" in="SourceGraphic" in2="BackgroundImageFix" result="shape"/>
<feGaussianBlur stdDeviation="0.115427" result="effect1_foregroundBlur_13_3"/>
</filter>
<filter id="filter43_f_13_3" x="343.993" y="620.29" width="3.35948" height="3.36466" filterUnits="userSpaceOnUse" color-interpolation-filters="sRGB">
<feFlood flood-opacity="0" result="BackgroundImageFix"/>
<feBlend mode="normal" in="SourceGraphic" in2="BackgroundImageFix" result="shape"/>
<feGaussianBlur stdDeviation="0.105433" result="effect1_foregroundBlur_13_3"/>
</filter>
<filter id="filter44_f_13_3" x="460.535" y="652.007" width="4.17164" height="4.17811" filterUnits="userSpaceOnUse" color-interpolation-filters="sRGB">
<feFlood flood-opacity="0" result="BackgroundImageFix"/>
<feBlend mode="normal" in="SourceGraphic" in2="BackgroundImageFix" result="shape"/>
<feGaussianBlur stdDeviation="0.130922" result="effect1_foregroundBlur_13_3"/>
</filter>
<filter id="filter45_f_13_3" x="603.756" y="716.533" width="3.62303" height="3.62865" filterUnits="userSpaceOnUse" color-interpolation-filters="sRGB">
<feFlood flood-opacity="0" result="BackgroundImageFix"/>
<feBlend mode="normal" in="SourceGraphic" in2="BackgroundImageFix" result="shape"/>
<feGaussianBlur stdDeviation="0.113704" result="effect1_foregroundBlur_13_3"/>
</filter>
<filter id="filter46_f_13_3" x="702.457" y="672.604" width="3.81316" height="3.81908" filterUnits="userSpaceOnUse" color-interpolation-filters="sRGB">
<feFlood flood-opacity="0" result="BackgroundImageFix"/>
<feBlend mode="normal" in="SourceGraphic" in2="BackgroundImageFix" result="shape"/>
<feGaussianBlur stdDeviation="0.119672" result="effect1_foregroundBlur_13_3"/>
</filter>
<filter id="filter47_f_13_3" x="677.107" y="711.976" width="3.28325" height="3.28825" filterUnits="userSpaceOnUse" color-interpolation-filters="sRGB">
<feFlood flood-opacity="0" result="BackgroundImageFix"/>
<feBlend mode="normal" in="SourceGraphic" in2="BackgroundImageFix" result="shape"/>
<feGaussianBlur stdDeviation="0.103038" result="effect1_foregroundBlur_13_3"/>
</filter>
<filter id="filter48_f_13_3" x="19.8474" y="705.049" width="4.04627" height="4.05243" filterUnits="userSpaceOnUse" color-interpolation-filters="sRGB">
<feFlood flood-opacity="0" result="BackgroundImageFix"/>
<feBlend mode="normal" in="SourceGraphic" in2="BackgroundImageFix" result="shape"/>
<feGaussianBlur stdDeviation="0.126984" result="effect1_foregroundBlur_13_3"/>
</filter>
<linearGradient id="paint0_linear_13_3" x1="267.393" y1="422.28" x2="231.275" y2="461.177" gradientUnits="userSpaceOnUse">
<stop stop-color="#616CC0"/>
<stop offset="1" stop-color="#2C008B"/>
</linearGradient>
<linearGradient id="paint1_linear_13_3" x1="284.863" y1="434.749" x2="245.989" y2="465.713" gradientUnits="userSpaceOnUse">
<stop stop-color="#616CC0"/>
<stop offset="1" stop-color="#2C008B"/>
</linearGradient>
<linearGradient id="paint2_linear_13_3" x1="95.224" y1="328.426" x2="77.1011" y2="439.524" gradientUnits="userSpaceOnUse">
<stop stop-color="#7B6C9F"/>
<stop offset="1" stop-color="#2C0064"/>
</linearGradient>
<linearGradient id="paint3_linear_13_3" x1="187.722" y1="406.112" x2="142.709" y2="485.382" gradientUnits="userSpaceOnUse">
<stop stop-color="#7B6C9F"/>
<stop offset="1" stop-color="#2C0064"/>
</linearGradient>
<linearGradient id="paint4_linear_13_3" x1="194.676" y1="422.517" x2="164.727" y2="481.481" gradientUnits="userSpaceOnUse">
<stop stop-color="#7B6C9F"/>
<stop offset="1" stop-color="#2C0064"/>
</linearGradient>
<linearGradient id="paint5_linear_13_3" x1="248.658" y1="463.532" x2="220.032" y2="502.487" gradientUnits="userSpaceOnUse">
<stop stop-color="#7B6C9F"/>
<stop offset="1" stop-color="#2C0064"/>
</linearGradient>
<linearGradient id="paint6_linear_13_3" x1="200.523" y1="449.07" x2="179.686" y2="490.306" gradientUnits="userSpaceOnUse">
<stop stop-color="#7B6C9F"/>
<stop offset="1" stop-color="#2C0064"/>
</linearGradient>
<linearGradient id="paint7_linear_13_3" x1="504.438" y1="395.04" x2="548.089" y2="433.553" gradientUnits="userSpaceOnUse">
<stop stop-color="#7B6C9F"/>
<stop offset="1" stop-color="#2C0064"/>
</linearGradient>
<linearGradient id="paint8_linear_13_3" x1="469.997" y1="436.003" x2="480.332" y2="468.064" gradientUnits="userSpaceOnUse">
<stop stop-color="#7B6C9F"/>
<stop offset="1" stop-color="#2C0064"/>
</linearGradient>
<linearGradient id="paint9_linear_13_3" x1="562.733" y1="386.32" x2="594.366" y2="422.553" gradientUnits="userSpaceOnUse">
<stop stop-color="#7B6C9F"/>
<stop offset="1" stop-color="#2C0064"/>
</linearGradient>
<linearGradient id="paint10_linear_13_3" x1="565.662" y1="375.211" x2="612.561" y2="394.937" gradientUnits="userSpaceOnUse">
<stop stop-color="#7B6C9F"/>
<stop offset="1" stop-color="#2C0064"/>
</linearGradient>
<linearGradient id="paint11_linear_13_3" x1="221.059" y1="458.898" x2="231.906" y2="506.149" gradientUnits="userSpaceOnUse">
<stop stop-color="#7B6C9F"/>
<stop offset="1" stop-color="#2C0064"/>
</linearGradient>
<radialGradient id="paint12_radial_13_3" cx="0" cy="0" r="1" gradientUnits="userSpaceOnUse" gradientTransform="translate(370.929 480.462) rotate(1.33188) scale(101.302 46.0621)">
<stop stop-color="#2C0064"/>
<stop offset="0.813725" stop-color="#533681"/>
<stop offset="1" stop-color="#7B6C9F"/>
</radialGradient>
<linearGradient id="paint13_linear_13_3" x1="66.3438" y1="435.239" x2="57.9305" y2="469.895" gradientUnits="userSpaceOnUse">
<stop stop-color="#7B6C9F"/>
<stop offset="1" stop-color="#2C0064"/>
</linearGradient>
<linearGradient id="paint14_linear_13_3" x1="59.3148" y1="391.548" x2="111.664" y2="363.569" gradientUnits="userSpaceOnUse">
<stop stop-color="#2C0064"/>
<stop offset="0.813725" stop-color="#533681"/>
<stop offset="1" stop-color="#7B6C9F"/>
</linearGradient>
<linearGradient id="paint15_linear_13_3" x1="32.1433" y1="371.053" x2="53.8939" y2="349.211" gradientUnits="userSpaceOnUse">
<stop stop-color="#2C0064"/>
<stop offset="0.813725" stop-color="#533681"/>
<stop offset="1" stop-color="#7B6C9F"/>
</linearGradient>
<linearGradient id="paint16_linear_13_3" x1="564.095" y1="413.276" x2="559.312" y2="380.299" gradientUnits="userSpaceOnUse">
<stop stop-color="#2C0064"/>
<stop offset="0.813725" stop-color="#533681"/>
<stop offset="1" stop-color="#7B6C9F"/>
</linearGradient>
<linearGradient id="paint17_linear_13_3" x1="81.6642" y1="390.393" x2="50.232" y2="416.778" gradientUnits="userSpaceOnUse">
<stop stop-color="#7B6C9F"/>
<stop offset="1" stop-color="#2C0064"/>
</linearGradient>
<linearGradient id="paint18_linear_13_3" x1="588.818" y1="519.222" x2="560.681" y2="448.672" gradientUnits="userSpaceOnUse">
<stop stop-color="#7B6C9F"/>
<stop offset="1" stop-color="#2C0064"/>
</linearGradient>
<linearGradient id="paint19_linear_13_3" x1="267.393" y1="612.748" x2="231.275" y2="573.852" gradientUnits="userSpaceOnUse">
<stop stop-color="#616CC0"/>
<stop offset="1" stop-color="#2C008B"/>
</linearGradient>
<linearGradient id="paint20_linear_13_3" x1="284.863" y1="600.279" x2="245.989" y2="569.316" gradientUnits="userSpaceOnUse">
<stop stop-color="#616CC0"/>
<stop offset="1" stop-color="#2C008B"/>
</linearGradient>
<linearGradient id="paint21_linear_13_3" x1="95.224" y1="706.602" x2="77.101" y2="595.505" gradientUnits="userSpaceOnUse">
<stop stop-color="#7B6C9F"/>
<stop offset="1" stop-color="#2C0064"/>
</linearGradient>
<linearGradient id="paint22_linear_13_3" x1="187.722" y1="628.917" x2="142.709" y2="549.646" gradientUnits="userSpaceOnUse">
<stop stop-color="#7B6C9F"/>
<stop offset="1" stop-color="#2C0064"/>
</linearGradient>
<linearGradient id="paint23_linear_13_3" x1="194.676" y1="612.511" x2="164.727" y2="553.547" gradientUnits="userSpaceOnUse">
<stop stop-color="#7B6C9F"/>
<stop offset="1" stop-color="#2C0064"/>
</linearGradient>
<linearGradient id="paint24_linear_13_3" x1="248.658" y1="571.497" x2="220.032" y2="532.541" gradientUnits="userSpaceOnUse">
<stop stop-color="#7B6C9F"/>
<stop offset="1" stop-color="#2C0064"/>
</linearGradient>
<linearGradient id="paint25_linear_13_3" x1="200.523" y1="585.958" x2="179.686" y2="544.723" gradientUnits="userSpaceOnUse">
<stop stop-color="#7B6C9F"/>
<stop offset="1" stop-color="#2C0064"/>
</linearGradient>
<linearGradient id="paint26_linear_13_3" x1="504.438" y1="639.989" x2="548.089" y2="601.476" gradientUnits="userSpaceOnUse">
<stop stop-color="#7B6C9F"/>
<stop offset="1" stop-color="#2C0064"/>
</linearGradient>
<linearGradient id="paint27_linear_13_3" x1="469.997" y1="599.025" x2="480.332" y2="566.965" gradientUnits="userSpaceOnUse">
<stop stop-color="#7B6C9F"/>
<stop offset="1" stop-color="#2C0064"/>
</linearGradient>
<linearGradient id="paint28_linear_13_3" x1="562.733" y1="648.708" x2="594.366" y2="612.476" gradientUnits="userSpaceOnUse">
<stop stop-color="#7B6C9F"/>
<stop offset="1" stop-color="#2C0064"/>
</linearGradient>
<linearGradient id="paint29_linear_13_3" x1="565.662" y1="659.817" x2="612.561" y2="640.092" gradientUnits="userSpaceOnUse">
<stop stop-color="#7B6C9F"/>
<stop offset="1" stop-color="#2C0064"/>
</linearGradient>
<linearGradient id="paint30_linear_13_3" x1="221.059" y1="576.13" x2="231.906" y2="528.88" gradientUnits="userSpaceOnUse">
<stop stop-color="#7B6C9F"/>
<stop offset="1" stop-color="#2C0064"/>
</linearGradient>
<radialGradient id="paint31_radial_13_3" cx="0" cy="0" r="1" gradientUnits="userSpaceOnUse" gradientTransform="translate(370.929 554.566) rotate(-1.33188) scale(101.302 46.0621)">
<stop stop-color="#2C0064"/>
<stop offset="0.813725" stop-color="#533681"/>
<stop offset="1" stop-color="#7B6C9F"/>
</radialGradient>
<linearGradient id="paint32_linear_13_3" x1="66.3438" y1="599.79" x2="57.9305" y2="565.134" gradientUnits="userSpaceOnUse">
<stop stop-color="#7B6C9F"/>
<stop offset="1" stop-color="#2C0064"/>
</linearGradient>
<linearGradient id="paint33_linear_13_3" x1="59.3148" y1="643.481" x2="111.664" y2="671.459" gradientUnits="userSpaceOnUse">
<stop stop-color="#2C0064"/>
<stop offset="0.813725" stop-color="#533681"/>
<stop offset="1" stop-color="#7B6C9F"/>
</linearGradient>
<linearGradient id="paint34_linear_13_3" x1="32.1433" y1="663.975" x2="53.8939" y2="685.817" gradientUnits="userSpaceOnUse">
<stop stop-color="#2C0064"/>
<stop offset="0.813725" stop-color="#533681"/>
<stop offset="1" stop-color="#7B6C9F"/>
</linearGradient>
<linearGradient id="paint35_linear_13_3" x1="564.095" y1="621.752" x2="559.312" y2="654.73" gradientUnits="userSpaceOnUse">
<stop stop-color="#2C0064"/>
<stop offset="0.813725" stop-color="#533681"/>
<stop offset="1" stop-color="#7B6C9F"/>
</linearGradient>
<linearGradient id="paint36_linear_13_3" x1="81.6642" y1="644.636" x2="50.2321" y2="618.25" gradientUnits="userSpaceOnUse">
<stop stop-color="#7B6C9F"/>
<stop offset="1" stop-color="#2C0064"/>
</linearGradient>
<linearGradient id="paint37_linear_13_3" x1="588.818" y1="515.807" x2="560.681" y2="586.357" gradientUnits="userSpaceOnUse">
<stop stop-color="#7B6C9F"/>
<stop offset="1" stop-color="#2C0064"/>
</linearGradient>
<radialGradient id="paint38_radial_13_3" cx="0" cy="0" r="1" gradientUnits="userSpaceOnUse" gradientTransform="translate(402.5 102.5) rotate(95.8197) scale(261.347 304.784)">
<stop stop-color="#D90068"/>
<stop offset="0.526042" stop-color="#5B004D"/>
</radialGradient>
<clipPath id="clip0_13_3">
<rect width="743" height="720" fill="white"/>
</clipPath>
</defs>
</svg>
