<svg id="visual" viewBox="0 0 1000 300" width="1000" height="300" xmlns="http://www.w3.org/2000/svg" xmlns:xlink="http://www.w3.org/1999/xlink" version="1.1"><path d="M761 0L667 0L667 20L725 20L725 40L849 40L849 60L645 60L645 80L664 80L664 100L564 100L564 120L920 120L920 140L583 140L583 160L772 160L772 180L775 180L775 200L666 200L666 220L911 220L911 240L611 240L611 260L768 260L768 280L700 280L700 300L0 300L0 280L0 280L0 260L0 260L0 240L0 240L0 220L0 220L0 200L0 200L0 180L0 180L0 160L0 160L0 140L0 140L0 120L0 120L0 100L0 100L0 80L0 80L0 60L0 60L0 40L0 40L0 20L0 20L0 0L0 0Z" fill="#fff671"></path><path d="M603 0L411 0L411 20L423 20L423 40L480 40L480 60L573 60L573 80L557 80L557 100L519 100L519 120L652 120L652 140L399 140L399 160L479 160L479 180L505 180L505 200L346 200L346 220L649 220L649 240L593 240L593 260L392 260L392 280L307 280L307 300L0 300L0 280L0 280L0 260L0 260L0 240L0 240L0 220L0 220L0 200L0 200L0 180L0 180L0 160L0 160L0 140L0 140L0 120L0 120L0 100L0 100L0 80L0 80L0 60L0 60L0 40L0 40L0 20L0 20L0 0L0 0Z" fill="#fff000"></path><path d="M328 0L389 0L389 20L121 20L121 40L56 40L56 60L145 60L145 80L311 80L311 100L214 100L214 120L135 120L135 140L343 140L343 160L378 160L378 180L376 180L376 200L344 200L344 220L324 220L324 240L242 240L242 260L61 260L61 280L420 280L420 300L0 300L0 280L0 280L0 260L0 260L0 240L0 240L0 220L0 220L0 200L0 200L0 180L0 180L0 160L0 160L0 140L0 140L0 120L0 120L0 100L0 100L0 80L0 80L0 60L0 60L0 40L0 40L0 20L0 20L0 0L0 0Z" fill="#bab002"></path></svg>